<?xml version="1.0" encoding="utf-8" standalone="no"?>
<!DOCTYPE svg PUBLIC "-//W3C//DTD SVG 1.1//EN"
  "http://www.w3.org/Graphics/SVG/1.1/DTD/svg11.dtd">
<!-- Created with matplotlib (https://matplotlib.org/) -->
<svg height="288pt" version="1.1" viewBox="0 0 468 288" width="468pt" xmlns="http://www.w3.org/2000/svg" xmlns:xlink="http://www.w3.org/1999/xlink">
 <defs>
  <style type="text/css">
*{stroke-linecap:butt;stroke-linejoin:round;}
  </style>
 </defs>
 <g id="figure_1">
  <g id="patch_1">
   <path d="M 0 288 
L 468 288 
L 468 0 
L 0 0 
z
" style="fill:#ffffff;"/>
  </g>
  <g id="axes_1">
   <g id="patch_2">
    <path d="M 58.5 252 
L 421.2 252 
L 421.2 34.56 
L 58.5 34.56 
z
" style="fill:#ffffff;"/>
   </g>
   <g id="PolyCollection_1">
    <defs>
     <path d="M 74.986364 -36 
L 74.986364 -36 
L 98.538312 -36 
L 122.09026 -36 
L 145.642208 -36 
L 169.194156 -43.05919 
L 192.746104 -52.468906 
L 216.298052 -53.760499 
L 239.85 -57.367829 
L 263.401948 -59.721617 
L 286.953896 -69.601003 
L 310.505844 -70.401182 
L 334.057792 -75.441442 
L 357.60974 -81.364507 
L 381.161688 -82.471277 
L 404.713636 -91.66464 
L 404.713636 -224.436766 
L 404.713636 -224.436766 
L 381.161688 -204.769318 
L 357.60974 -198.302652 
L 334.057792 -192.16867 
L 310.505844 -180.84222 
L 286.953896 -167.517497 
L 263.401948 -150.352783 
L 239.85 -137.034583 
L 216.298052 -126.749671 
L 192.746104 -116.734385 
L 169.194156 -96.416791 
L 145.642208 -73.462738 
L 122.09026 -64.992362 
L 98.538312 -36 
L 74.986364 -36 
z
" id="mc5a9a55928" style="stroke:#6495ed;stroke-opacity:0.25;"/>
    </defs>
    <g clip-path="url(#pe3a71617b0)">
     <use style="fill:#6495ed;fill-opacity:0.25;stroke:#6495ed;stroke-opacity:0.25;" x="0" xlink:href="#mc5a9a55928" y="288"/>
    </g>
   </g>
   <g id="matplotlib.axis_1">
    <g id="xtick_1">
     <g id="line2d_1">
      <defs>
       <path d="M 0 0 
L 0 3.5 
" id="ma11975e19b" style="stroke:#000000;stroke-width:0.8;"/>
      </defs>
      <g>
       <use style="stroke:#000000;stroke-width:0.8;" x="74.986364" xlink:href="#ma11975e19b" y="252"/>
      </g>
     </g>
     <g id="text_1">
      <!-- 2010 -->
      <defs>
       <path d="M 19.1875 8.296875 
L 53.609375 8.296875 
L 53.609375 0 
L 7.328125 0 
L 7.328125 8.296875 
Q 12.9375 14.109375 22.625 23.890625 
Q 32.328125 33.6875 34.8125 36.53125 
Q 39.546875 41.84375 41.421875 45.53125 
Q 43.3125 49.21875 43.3125 52.78125 
Q 43.3125 58.59375 39.234375 62.25 
Q 35.15625 65.921875 28.609375 65.921875 
Q 23.96875 65.921875 18.8125 64.3125 
Q 13.671875 62.703125 7.8125 59.421875 
L 7.8125 69.390625 
Q 13.765625 71.78125 18.9375 73 
Q 24.125 74.21875 28.421875 74.21875 
Q 39.75 74.21875 46.484375 68.546875 
Q 53.21875 62.890625 53.21875 53.421875 
Q 53.21875 48.921875 51.53125 44.890625 
Q 49.859375 40.875 45.40625 35.40625 
Q 44.1875 33.984375 37.640625 27.21875 
Q 31.109375 20.453125 19.1875 8.296875 
z
" id="DejaVuSans-50"/>
       <path d="M 31.78125 66.40625 
Q 24.171875 66.40625 20.328125 58.90625 
Q 16.5 51.421875 16.5 36.375 
Q 16.5 21.390625 20.328125 13.890625 
Q 24.171875 6.390625 31.78125 6.390625 
Q 39.453125 6.390625 43.28125 13.890625 
Q 47.125 21.390625 47.125 36.375 
Q 47.125 51.421875 43.28125 58.90625 
Q 39.453125 66.40625 31.78125 66.40625 
z
M 31.78125 74.21875 
Q 44.046875 74.21875 50.515625 64.515625 
Q 56.984375 54.828125 56.984375 36.375 
Q 56.984375 17.96875 50.515625 8.265625 
Q 44.046875 -1.421875 31.78125 -1.421875 
Q 19.53125 -1.421875 13.0625 8.265625 
Q 6.59375 17.96875 6.59375 36.375 
Q 6.59375 54.828125 13.0625 64.515625 
Q 19.53125 74.21875 31.78125 74.21875 
z
" id="DejaVuSans-48"/>
       <path d="M 12.40625 8.296875 
L 28.515625 8.296875 
L 28.515625 63.921875 
L 10.984375 60.40625 
L 10.984375 69.390625 
L 28.421875 72.90625 
L 38.28125 72.90625 
L 38.28125 8.296875 
L 54.390625 8.296875 
L 54.390625 0 
L 12.40625 0 
z
" id="DejaVuSans-49"/>
      </defs>
      <g transform="translate(62.261364 266.598437)scale(0.1 -0.1)">
       <use xlink:href="#DejaVuSans-50"/>
       <use x="63.623047" xlink:href="#DejaVuSans-48"/>
       <use x="127.246094" xlink:href="#DejaVuSans-49"/>
       <use x="190.869141" xlink:href="#DejaVuSans-48"/>
      </g>
     </g>
    </g>
    <g id="xtick_2">
     <g id="line2d_2">
      <g>
       <use style="stroke:#000000;stroke-width:0.8;" x="122.09026" xlink:href="#ma11975e19b" y="252"/>
      </g>
     </g>
     <g id="text_2">
      <!-- 2012 -->
      <g transform="translate(109.36526 266.598437)scale(0.1 -0.1)">
       <use xlink:href="#DejaVuSans-50"/>
       <use x="63.623047" xlink:href="#DejaVuSans-48"/>
       <use x="127.246094" xlink:href="#DejaVuSans-49"/>
       <use x="190.869141" xlink:href="#DejaVuSans-50"/>
      </g>
     </g>
    </g>
    <g id="xtick_3">
     <g id="line2d_3">
      <g>
       <use style="stroke:#000000;stroke-width:0.8;" x="169.194156" xlink:href="#ma11975e19b" y="252"/>
      </g>
     </g>
     <g id="text_3">
      <!-- 2014 -->
      <defs>
       <path d="M 37.796875 64.3125 
L 12.890625 25.390625 
L 37.796875 25.390625 
z
M 35.203125 72.90625 
L 47.609375 72.90625 
L 47.609375 25.390625 
L 58.015625 25.390625 
L 58.015625 17.1875 
L 47.609375 17.1875 
L 47.609375 0 
L 37.796875 0 
L 37.796875 17.1875 
L 4.890625 17.1875 
L 4.890625 26.703125 
z
" id="DejaVuSans-52"/>
      </defs>
      <g transform="translate(156.469156 266.598437)scale(0.1 -0.1)">
       <use xlink:href="#DejaVuSans-50"/>
       <use x="63.623047" xlink:href="#DejaVuSans-48"/>
       <use x="127.246094" xlink:href="#DejaVuSans-49"/>
       <use x="190.869141" xlink:href="#DejaVuSans-52"/>
      </g>
     </g>
    </g>
    <g id="xtick_4">
     <g id="line2d_4">
      <g>
       <use style="stroke:#000000;stroke-width:0.8;" x="216.298052" xlink:href="#ma11975e19b" y="252"/>
      </g>
     </g>
     <g id="text_4">
      <!-- 2016 -->
      <defs>
       <path d="M 33.015625 40.375 
Q 26.375 40.375 22.484375 35.828125 
Q 18.609375 31.296875 18.609375 23.390625 
Q 18.609375 15.53125 22.484375 10.953125 
Q 26.375 6.390625 33.015625 6.390625 
Q 39.65625 6.390625 43.53125 10.953125 
Q 47.40625 15.53125 47.40625 23.390625 
Q 47.40625 31.296875 43.53125 35.828125 
Q 39.65625 40.375 33.015625 40.375 
z
M 52.59375 71.296875 
L 52.59375 62.3125 
Q 48.875 64.0625 45.09375 64.984375 
Q 41.3125 65.921875 37.59375 65.921875 
Q 27.828125 65.921875 22.671875 59.328125 
Q 17.53125 52.734375 16.796875 39.40625 
Q 19.671875 43.65625 24.015625 45.921875 
Q 28.375 48.1875 33.59375 48.1875 
Q 44.578125 48.1875 50.953125 41.515625 
Q 57.328125 34.859375 57.328125 23.390625 
Q 57.328125 12.15625 50.6875 5.359375 
Q 44.046875 -1.421875 33.015625 -1.421875 
Q 20.359375 -1.421875 13.671875 8.265625 
Q 6.984375 17.96875 6.984375 36.375 
Q 6.984375 53.65625 15.1875 63.9375 
Q 23.390625 74.21875 37.203125 74.21875 
Q 40.921875 74.21875 44.703125 73.484375 
Q 48.484375 72.75 52.59375 71.296875 
z
" id="DejaVuSans-54"/>
      </defs>
      <g transform="translate(203.573052 266.598437)scale(0.1 -0.1)">
       <use xlink:href="#DejaVuSans-50"/>
       <use x="63.623047" xlink:href="#DejaVuSans-48"/>
       <use x="127.246094" xlink:href="#DejaVuSans-49"/>
       <use x="190.869141" xlink:href="#DejaVuSans-54"/>
      </g>
     </g>
    </g>
    <g id="xtick_5">
     <g id="line2d_5">
      <g>
       <use style="stroke:#000000;stroke-width:0.8;" x="263.401948" xlink:href="#ma11975e19b" y="252"/>
      </g>
     </g>
     <g id="text_5">
      <!-- 2018 -->
      <defs>
       <path d="M 31.78125 34.625 
Q 24.75 34.625 20.71875 30.859375 
Q 16.703125 27.09375 16.703125 20.515625 
Q 16.703125 13.921875 20.71875 10.15625 
Q 24.75 6.390625 31.78125 6.390625 
Q 38.8125 6.390625 42.859375 10.171875 
Q 46.921875 13.96875 46.921875 20.515625 
Q 46.921875 27.09375 42.890625 30.859375 
Q 38.875 34.625 31.78125 34.625 
z
M 21.921875 38.8125 
Q 15.578125 40.375 12.03125 44.71875 
Q 8.5 49.078125 8.5 55.328125 
Q 8.5 64.0625 14.71875 69.140625 
Q 20.953125 74.21875 31.78125 74.21875 
Q 42.671875 74.21875 48.875 69.140625 
Q 55.078125 64.0625 55.078125 55.328125 
Q 55.078125 49.078125 51.53125 44.71875 
Q 48 40.375 41.703125 38.8125 
Q 48.828125 37.15625 52.796875 32.3125 
Q 56.78125 27.484375 56.78125 20.515625 
Q 56.78125 9.90625 50.3125 4.234375 
Q 43.84375 -1.421875 31.78125 -1.421875 
Q 19.734375 -1.421875 13.25 4.234375 
Q 6.78125 9.90625 6.78125 20.515625 
Q 6.78125 27.484375 10.78125 32.3125 
Q 14.796875 37.15625 21.921875 38.8125 
z
M 18.3125 54.390625 
Q 18.3125 48.734375 21.84375 45.5625 
Q 25.390625 42.390625 31.78125 42.390625 
Q 38.140625 42.390625 41.71875 45.5625 
Q 45.3125 48.734375 45.3125 54.390625 
Q 45.3125 60.0625 41.71875 63.234375 
Q 38.140625 66.40625 31.78125 66.40625 
Q 25.390625 66.40625 21.84375 63.234375 
Q 18.3125 60.0625 18.3125 54.390625 
z
" id="DejaVuSans-56"/>
      </defs>
      <g transform="translate(250.676948 266.598437)scale(0.1 -0.1)">
       <use xlink:href="#DejaVuSans-50"/>
       <use x="63.623047" xlink:href="#DejaVuSans-48"/>
       <use x="127.246094" xlink:href="#DejaVuSans-49"/>
       <use x="190.869141" xlink:href="#DejaVuSans-56"/>
      </g>
     </g>
    </g>
    <g id="xtick_6">
     <g id="line2d_6">
      <g>
       <use style="stroke:#000000;stroke-width:0.8;" x="310.505844" xlink:href="#ma11975e19b" y="252"/>
      </g>
     </g>
     <g id="text_6">
      <!-- 2020 -->
      <g transform="translate(297.780844 266.598437)scale(0.1 -0.1)">
       <use xlink:href="#DejaVuSans-50"/>
       <use x="63.623047" xlink:href="#DejaVuSans-48"/>
       <use x="127.246094" xlink:href="#DejaVuSans-50"/>
       <use x="190.869141" xlink:href="#DejaVuSans-48"/>
      </g>
     </g>
    </g>
    <g id="xtick_7">
     <g id="line2d_7">
      <g>
       <use style="stroke:#000000;stroke-width:0.8;" x="357.60974" xlink:href="#ma11975e19b" y="252"/>
      </g>
     </g>
     <g id="text_7">
      <!-- 2022 -->
      <g transform="translate(344.88474 266.598437)scale(0.1 -0.1)">
       <use xlink:href="#DejaVuSans-50"/>
       <use x="63.623047" xlink:href="#DejaVuSans-48"/>
       <use x="127.246094" xlink:href="#DejaVuSans-50"/>
       <use x="190.869141" xlink:href="#DejaVuSans-50"/>
      </g>
     </g>
    </g>
    <g id="xtick_8">
     <g id="line2d_8">
      <g>
       <use style="stroke:#000000;stroke-width:0.8;" x="404.713636" xlink:href="#ma11975e19b" y="252"/>
      </g>
     </g>
     <g id="text_8">
      <!-- 2024 -->
      <g transform="translate(391.988636 266.598437)scale(0.1 -0.1)">
       <use xlink:href="#DejaVuSans-50"/>
       <use x="63.623047" xlink:href="#DejaVuSans-48"/>
       <use x="127.246094" xlink:href="#DejaVuSans-50"/>
       <use x="190.869141" xlink:href="#DejaVuSans-52"/>
      </g>
     </g>
    </g>
   </g>
   <g id="matplotlib.axis_2">
    <g id="ytick_1">
     <g id="line2d_9">
      <defs>
       <path d="M 0 0 
L -3.5 0 
" id="mb583864856" style="stroke:#000000;stroke-width:0.8;"/>
      </defs>
      <g>
       <use style="stroke:#000000;stroke-width:0.8;" x="58.5" xlink:href="#mb583864856" y="252"/>
      </g>
     </g>
     <g id="text_9">
      <!-- 0 -->
      <g transform="translate(45.1375 255.799219)scale(0.1 -0.1)">
       <use xlink:href="#DejaVuSans-48"/>
      </g>
     </g>
    </g>
    <g id="ytick_2">
     <g id="line2d_10">
      <g>
       <use style="stroke:#000000;stroke-width:0.8;" x="58.5" xlink:href="#mb583864856" y="208.512"/>
      </g>
     </g>
     <g id="text_10">
      <!-- 2000 -->
      <g transform="translate(26.05 212.311219)scale(0.1 -0.1)">
       <use xlink:href="#DejaVuSans-50"/>
       <use x="63.623047" xlink:href="#DejaVuSans-48"/>
       <use x="127.246094" xlink:href="#DejaVuSans-48"/>
       <use x="190.869141" xlink:href="#DejaVuSans-48"/>
      </g>
     </g>
    </g>
    <g id="ytick_3">
     <g id="line2d_11">
      <g>
       <use style="stroke:#000000;stroke-width:0.8;" x="58.5" xlink:href="#mb583864856" y="165.024"/>
      </g>
     </g>
     <g id="text_11">
      <!-- 4000 -->
      <g transform="translate(26.05 168.823219)scale(0.1 -0.1)">
       <use xlink:href="#DejaVuSans-52"/>
       <use x="63.623047" xlink:href="#DejaVuSans-48"/>
       <use x="127.246094" xlink:href="#DejaVuSans-48"/>
       <use x="190.869141" xlink:href="#DejaVuSans-48"/>
      </g>
     </g>
    </g>
    <g id="ytick_4">
     <g id="line2d_12">
      <g>
       <use style="stroke:#000000;stroke-width:0.8;" x="58.5" xlink:href="#mb583864856" y="121.536"/>
      </g>
     </g>
     <g id="text_12">
      <!-- 6000 -->
      <g transform="translate(26.05 125.335219)scale(0.1 -0.1)">
       <use xlink:href="#DejaVuSans-54"/>
       <use x="63.623047" xlink:href="#DejaVuSans-48"/>
       <use x="127.246094" xlink:href="#DejaVuSans-48"/>
       <use x="190.869141" xlink:href="#DejaVuSans-48"/>
      </g>
     </g>
    </g>
    <g id="ytick_5">
     <g id="line2d_13">
      <g>
       <use style="stroke:#000000;stroke-width:0.8;" x="58.5" xlink:href="#mb583864856" y="78.048"/>
      </g>
     </g>
     <g id="text_13">
      <!-- 8000 -->
      <g transform="translate(26.05 81.847219)scale(0.1 -0.1)">
       <use xlink:href="#DejaVuSans-56"/>
       <use x="63.623047" xlink:href="#DejaVuSans-48"/>
       <use x="127.246094" xlink:href="#DejaVuSans-48"/>
       <use x="190.869141" xlink:href="#DejaVuSans-48"/>
      </g>
     </g>
    </g>
    <g id="ytick_6">
     <g id="line2d_14">
      <g>
       <use style="stroke:#000000;stroke-width:0.8;" x="58.5" xlink:href="#mb583864856" y="34.56"/>
      </g>
     </g>
     <g id="text_14">
      <!-- 10000 -->
      <g transform="translate(19.6875 38.359219)scale(0.1 -0.1)">
       <use xlink:href="#DejaVuSans-49"/>
       <use x="63.623047" xlink:href="#DejaVuSans-48"/>
       <use x="127.246094" xlink:href="#DejaVuSans-48"/>
       <use x="190.869141" xlink:href="#DejaVuSans-48"/>
       <use x="254.492188" xlink:href="#DejaVuSans-48"/>
      </g>
     </g>
    </g>
    <g id="text_15">
     <!-- Cumulative installed capacity [kWp] -->
     <defs>
      <path d="M 64.40625 67.28125 
L 64.40625 56.890625 
Q 59.421875 61.53125 53.78125 63.8125 
Q 48.140625 66.109375 41.796875 66.109375 
Q 29.296875 66.109375 22.65625 58.46875 
Q 16.015625 50.828125 16.015625 36.375 
Q 16.015625 21.96875 22.65625 14.328125 
Q 29.296875 6.6875 41.796875 6.6875 
Q 48.140625 6.6875 53.78125 8.984375 
Q 59.421875 11.28125 64.40625 15.921875 
L 64.40625 5.609375 
Q 59.234375 2.09375 53.4375 0.328125 
Q 47.65625 -1.421875 41.21875 -1.421875 
Q 24.65625 -1.421875 15.125 8.703125 
Q 5.609375 18.84375 5.609375 36.375 
Q 5.609375 53.953125 15.125 64.078125 
Q 24.65625 74.21875 41.21875 74.21875 
Q 47.75 74.21875 53.53125 72.484375 
Q 59.328125 70.75 64.40625 67.28125 
z
" id="DejaVuSans-67"/>
      <path d="M 8.5 21.578125 
L 8.5 54.6875 
L 17.484375 54.6875 
L 17.484375 21.921875 
Q 17.484375 14.15625 20.5 10.265625 
Q 23.53125 6.390625 29.59375 6.390625 
Q 36.859375 6.390625 41.078125 11.03125 
Q 45.3125 15.671875 45.3125 23.6875 
L 45.3125 54.6875 
L 54.296875 54.6875 
L 54.296875 0 
L 45.3125 0 
L 45.3125 8.40625 
Q 42.046875 3.421875 37.71875 1 
Q 33.40625 -1.421875 27.6875 -1.421875 
Q 18.265625 -1.421875 13.375 4.4375 
Q 8.5 10.296875 8.5 21.578125 
z
M 31.109375 56 
z
" id="DejaVuSans-117"/>
      <path d="M 52 44.1875 
Q 55.375 50.25 60.0625 53.125 
Q 64.75 56 71.09375 56 
Q 79.640625 56 84.28125 50.015625 
Q 88.921875 44.046875 88.921875 33.015625 
L 88.921875 0 
L 79.890625 0 
L 79.890625 32.71875 
Q 79.890625 40.578125 77.09375 44.375 
Q 74.3125 48.1875 68.609375 48.1875 
Q 61.625 48.1875 57.5625 43.546875 
Q 53.515625 38.921875 53.515625 30.90625 
L 53.515625 0 
L 44.484375 0 
L 44.484375 32.71875 
Q 44.484375 40.625 41.703125 44.40625 
Q 38.921875 48.1875 33.109375 48.1875 
Q 26.21875 48.1875 22.15625 43.53125 
Q 18.109375 38.875 18.109375 30.90625 
L 18.109375 0 
L 9.078125 0 
L 9.078125 54.6875 
L 18.109375 54.6875 
L 18.109375 46.1875 
Q 21.1875 51.21875 25.484375 53.609375 
Q 29.78125 56 35.6875 56 
Q 41.65625 56 45.828125 52.96875 
Q 50 49.953125 52 44.1875 
z
" id="DejaVuSans-109"/>
      <path d="M 9.421875 75.984375 
L 18.40625 75.984375 
L 18.40625 0 
L 9.421875 0 
z
" id="DejaVuSans-108"/>
      <path d="M 34.28125 27.484375 
Q 23.390625 27.484375 19.1875 25 
Q 14.984375 22.515625 14.984375 16.5 
Q 14.984375 11.71875 18.140625 8.90625 
Q 21.296875 6.109375 26.703125 6.109375 
Q 34.1875 6.109375 38.703125 11.40625 
Q 43.21875 16.703125 43.21875 25.484375 
L 43.21875 27.484375 
z
M 52.203125 31.203125 
L 52.203125 0 
L 43.21875 0 
L 43.21875 8.296875 
Q 40.140625 3.328125 35.546875 0.953125 
Q 30.953125 -1.421875 24.3125 -1.421875 
Q 15.921875 -1.421875 10.953125 3.296875 
Q 6 8.015625 6 15.921875 
Q 6 25.140625 12.171875 29.828125 
Q 18.359375 34.515625 30.609375 34.515625 
L 43.21875 34.515625 
L 43.21875 35.40625 
Q 43.21875 41.609375 39.140625 45 
Q 35.0625 48.390625 27.6875 48.390625 
Q 23 48.390625 18.546875 47.265625 
Q 14.109375 46.140625 10.015625 43.890625 
L 10.015625 52.203125 
Q 14.9375 54.109375 19.578125 55.046875 
Q 24.21875 56 28.609375 56 
Q 40.484375 56 46.34375 49.84375 
Q 52.203125 43.703125 52.203125 31.203125 
z
" id="DejaVuSans-97"/>
      <path d="M 18.3125 70.21875 
L 18.3125 54.6875 
L 36.8125 54.6875 
L 36.8125 47.703125 
L 18.3125 47.703125 
L 18.3125 18.015625 
Q 18.3125 11.328125 20.140625 9.421875 
Q 21.96875 7.515625 27.59375 7.515625 
L 36.8125 7.515625 
L 36.8125 0 
L 27.59375 0 
Q 17.1875 0 13.234375 3.875 
Q 9.28125 7.765625 9.28125 18.015625 
L 9.28125 47.703125 
L 2.6875 47.703125 
L 2.6875 54.6875 
L 9.28125 54.6875 
L 9.28125 70.21875 
z
" id="DejaVuSans-116"/>
      <path d="M 9.421875 54.6875 
L 18.40625 54.6875 
L 18.40625 0 
L 9.421875 0 
z
M 9.421875 75.984375 
L 18.40625 75.984375 
L 18.40625 64.59375 
L 9.421875 64.59375 
z
" id="DejaVuSans-105"/>
      <path d="M 2.984375 54.6875 
L 12.5 54.6875 
L 29.59375 8.796875 
L 46.6875 54.6875 
L 56.203125 54.6875 
L 35.6875 0 
L 23.484375 0 
z
" id="DejaVuSans-118"/>
      <path d="M 56.203125 29.59375 
L 56.203125 25.203125 
L 14.890625 25.203125 
Q 15.484375 15.921875 20.484375 11.0625 
Q 25.484375 6.203125 34.421875 6.203125 
Q 39.59375 6.203125 44.453125 7.46875 
Q 49.3125 8.734375 54.109375 11.28125 
L 54.109375 2.78125 
Q 49.265625 0.734375 44.1875 -0.34375 
Q 39.109375 -1.421875 33.890625 -1.421875 
Q 20.796875 -1.421875 13.15625 6.1875 
Q 5.515625 13.8125 5.515625 26.8125 
Q 5.515625 40.234375 12.765625 48.109375 
Q 20.015625 56 32.328125 56 
Q 43.359375 56 49.78125 48.890625 
Q 56.203125 41.796875 56.203125 29.59375 
z
M 47.21875 32.234375 
Q 47.125 39.59375 43.09375 43.984375 
Q 39.0625 48.390625 32.421875 48.390625 
Q 24.90625 48.390625 20.390625 44.140625 
Q 15.875 39.890625 15.1875 32.171875 
z
" id="DejaVuSans-101"/>
      <path id="DejaVuSans-32"/>
      <path d="M 54.890625 33.015625 
L 54.890625 0 
L 45.90625 0 
L 45.90625 32.71875 
Q 45.90625 40.484375 42.875 44.328125 
Q 39.84375 48.1875 33.796875 48.1875 
Q 26.515625 48.1875 22.3125 43.546875 
Q 18.109375 38.921875 18.109375 30.90625 
L 18.109375 0 
L 9.078125 0 
L 9.078125 54.6875 
L 18.109375 54.6875 
L 18.109375 46.1875 
Q 21.34375 51.125 25.703125 53.5625 
Q 30.078125 56 35.796875 56 
Q 45.21875 56 50.046875 50.171875 
Q 54.890625 44.34375 54.890625 33.015625 
z
" id="DejaVuSans-110"/>
      <path d="M 44.28125 53.078125 
L 44.28125 44.578125 
Q 40.484375 46.53125 36.375 47.5 
Q 32.28125 48.484375 27.875 48.484375 
Q 21.1875 48.484375 17.84375 46.4375 
Q 14.5 44.390625 14.5 40.28125 
Q 14.5 37.15625 16.890625 35.375 
Q 19.28125 33.59375 26.515625 31.984375 
L 29.59375 31.296875 
Q 39.15625 29.25 43.1875 25.515625 
Q 47.21875 21.78125 47.21875 15.09375 
Q 47.21875 7.46875 41.1875 3.015625 
Q 35.15625 -1.421875 24.609375 -1.421875 
Q 20.21875 -1.421875 15.453125 -0.5625 
Q 10.6875 0.296875 5.421875 2 
L 5.421875 11.28125 
Q 10.40625 8.6875 15.234375 7.390625 
Q 20.0625 6.109375 24.8125 6.109375 
Q 31.15625 6.109375 34.5625 8.28125 
Q 37.984375 10.453125 37.984375 14.40625 
Q 37.984375 18.0625 35.515625 20.015625 
Q 33.0625 21.96875 24.703125 23.78125 
L 21.578125 24.515625 
Q 13.234375 26.265625 9.515625 29.90625 
Q 5.8125 33.546875 5.8125 39.890625 
Q 5.8125 47.609375 11.28125 51.796875 
Q 16.75 56 26.8125 56 
Q 31.78125 56 36.171875 55.265625 
Q 40.578125 54.546875 44.28125 53.078125 
z
" id="DejaVuSans-115"/>
      <path d="M 45.40625 46.390625 
L 45.40625 75.984375 
L 54.390625 75.984375 
L 54.390625 0 
L 45.40625 0 
L 45.40625 8.203125 
Q 42.578125 3.328125 38.25 0.953125 
Q 33.9375 -1.421875 27.875 -1.421875 
Q 17.96875 -1.421875 11.734375 6.484375 
Q 5.515625 14.40625 5.515625 27.296875 
Q 5.515625 40.1875 11.734375 48.09375 
Q 17.96875 56 27.875 56 
Q 33.9375 56 38.25 53.625 
Q 42.578125 51.265625 45.40625 46.390625 
z
M 14.796875 27.296875 
Q 14.796875 17.390625 18.875 11.75 
Q 22.953125 6.109375 30.078125 6.109375 
Q 37.203125 6.109375 41.296875 11.75 
Q 45.40625 17.390625 45.40625 27.296875 
Q 45.40625 37.203125 41.296875 42.84375 
Q 37.203125 48.484375 30.078125 48.484375 
Q 22.953125 48.484375 18.875 42.84375 
Q 14.796875 37.203125 14.796875 27.296875 
z
" id="DejaVuSans-100"/>
      <path d="M 48.78125 52.59375 
L 48.78125 44.1875 
Q 44.96875 46.296875 41.140625 47.34375 
Q 37.3125 48.390625 33.40625 48.390625 
Q 24.65625 48.390625 19.8125 42.84375 
Q 14.984375 37.3125 14.984375 27.296875 
Q 14.984375 17.28125 19.8125 11.734375 
Q 24.65625 6.203125 33.40625 6.203125 
Q 37.3125 6.203125 41.140625 7.25 
Q 44.96875 8.296875 48.78125 10.40625 
L 48.78125 2.09375 
Q 45.015625 0.34375 40.984375 -0.53125 
Q 36.96875 -1.421875 32.421875 -1.421875 
Q 20.0625 -1.421875 12.78125 6.34375 
Q 5.515625 14.109375 5.515625 27.296875 
Q 5.515625 40.671875 12.859375 48.328125 
Q 20.21875 56 33.015625 56 
Q 37.15625 56 41.109375 55.140625 
Q 45.0625 54.296875 48.78125 52.59375 
z
" id="DejaVuSans-99"/>
      <path d="M 18.109375 8.203125 
L 18.109375 -20.796875 
L 9.078125 -20.796875 
L 9.078125 54.6875 
L 18.109375 54.6875 
L 18.109375 46.390625 
Q 20.953125 51.265625 25.265625 53.625 
Q 29.59375 56 35.59375 56 
Q 45.5625 56 51.78125 48.09375 
Q 58.015625 40.1875 58.015625 27.296875 
Q 58.015625 14.40625 51.78125 6.484375 
Q 45.5625 -1.421875 35.59375 -1.421875 
Q 29.59375 -1.421875 25.265625 0.953125 
Q 20.953125 3.328125 18.109375 8.203125 
z
M 48.6875 27.296875 
Q 48.6875 37.203125 44.609375 42.84375 
Q 40.53125 48.484375 33.40625 48.484375 
Q 26.265625 48.484375 22.1875 42.84375 
Q 18.109375 37.203125 18.109375 27.296875 
Q 18.109375 17.390625 22.1875 11.75 
Q 26.265625 6.109375 33.40625 6.109375 
Q 40.53125 6.109375 44.609375 11.75 
Q 48.6875 17.390625 48.6875 27.296875 
z
" id="DejaVuSans-112"/>
      <path d="M 32.171875 -5.078125 
Q 28.375 -14.84375 24.75 -17.8125 
Q 21.140625 -20.796875 15.09375 -20.796875 
L 7.90625 -20.796875 
L 7.90625 -13.28125 
L 13.1875 -13.28125 
Q 16.890625 -13.28125 18.9375 -11.515625 
Q 21 -9.765625 23.484375 -3.21875 
L 25.09375 0.875 
L 2.984375 54.6875 
L 12.5 54.6875 
L 29.59375 11.921875 
L 46.6875 54.6875 
L 56.203125 54.6875 
z
" id="DejaVuSans-121"/>
      <path d="M 8.59375 75.984375 
L 29.296875 75.984375 
L 29.296875 69 
L 17.578125 69 
L 17.578125 -6.203125 
L 29.296875 -6.203125 
L 29.296875 -13.1875 
L 8.59375 -13.1875 
z
" id="DejaVuSans-91"/>
      <path d="M 9.078125 75.984375 
L 18.109375 75.984375 
L 18.109375 31.109375 
L 44.921875 54.6875 
L 56.390625 54.6875 
L 27.390625 29.109375 
L 57.625 0 
L 45.90625 0 
L 18.109375 26.703125 
L 18.109375 0 
L 9.078125 0 
z
" id="DejaVuSans-107"/>
      <path d="M 3.328125 72.90625 
L 13.28125 72.90625 
L 28.609375 11.28125 
L 43.890625 72.90625 
L 54.984375 72.90625 
L 70.3125 11.28125 
L 85.59375 72.90625 
L 95.609375 72.90625 
L 77.296875 0 
L 64.890625 0 
L 49.515625 63.28125 
L 33.984375 0 
L 21.578125 0 
z
" id="DejaVuSans-87"/>
      <path d="M 30.421875 75.984375 
L 30.421875 -13.1875 
L 9.71875 -13.1875 
L 9.71875 -6.203125 
L 21.390625 -6.203125 
L 21.390625 69 
L 9.71875 69 
L 9.71875 75.984375 
z
" id="DejaVuSans-93"/>
     </defs>
     <g transform="translate(13.607812 233.824531)rotate(-90)scale(0.1 -0.1)">
      <use xlink:href="#DejaVuSans-67"/>
      <use x="69.824219" xlink:href="#DejaVuSans-117"/>
      <use x="133.203125" xlink:href="#DejaVuSans-109"/>
      <use x="230.615234" xlink:href="#DejaVuSans-117"/>
      <use x="293.994141" xlink:href="#DejaVuSans-108"/>
      <use x="321.777344" xlink:href="#DejaVuSans-97"/>
      <use x="383.056641" xlink:href="#DejaVuSans-116"/>
      <use x="422.265625" xlink:href="#DejaVuSans-105"/>
      <use x="450.048828" xlink:href="#DejaVuSans-118"/>
      <use x="509.228516" xlink:href="#DejaVuSans-101"/>
      <use x="570.751953" xlink:href="#DejaVuSans-32"/>
      <use x="602.539062" xlink:href="#DejaVuSans-105"/>
      <use x="630.322266" xlink:href="#DejaVuSans-110"/>
      <use x="693.701172" xlink:href="#DejaVuSans-115"/>
      <use x="745.800781" xlink:href="#DejaVuSans-116"/>
      <use x="785.009766" xlink:href="#DejaVuSans-97"/>
      <use x="846.289062" xlink:href="#DejaVuSans-108"/>
      <use x="874.072266" xlink:href="#DejaVuSans-108"/>
      <use x="901.855469" xlink:href="#DejaVuSans-101"/>
      <use x="963.378906" xlink:href="#DejaVuSans-100"/>
      <use x="1026.855469" xlink:href="#DejaVuSans-32"/>
      <use x="1058.642578" xlink:href="#DejaVuSans-99"/>
      <use x="1113.623047" xlink:href="#DejaVuSans-97"/>
      <use x="1174.902344" xlink:href="#DejaVuSans-112"/>
      <use x="1238.378906" xlink:href="#DejaVuSans-97"/>
      <use x="1299.658203" xlink:href="#DejaVuSans-99"/>
      <use x="1354.638672" xlink:href="#DejaVuSans-105"/>
      <use x="1382.421875" xlink:href="#DejaVuSans-116"/>
      <use x="1421.630859" xlink:href="#DejaVuSans-121"/>
      <use x="1480.810547" xlink:href="#DejaVuSans-32"/>
      <use x="1512.597656" xlink:href="#DejaVuSans-91"/>
      <use x="1551.611328" xlink:href="#DejaVuSans-107"/>
      <use x="1609.521484" xlink:href="#DejaVuSans-87"/>
      <use x="1708.398438" xlink:href="#DejaVuSans-112"/>
      <use x="1771.875" xlink:href="#DejaVuSans-93"/>
     </g>
    </g>
   </g>
   <g id="line2d_15">
    <path clip-path="url(#pe3a71617b0)" d="M 74.986364 252 
L 98.538312 252 
L 122.09026 252 
L 145.642208 252 
L 169.194156 235.626768 
L 192.746104 216.1224 
L 216.298052 204.619824 
L 239.85 195.965712 
L 263.401948 195.965712 
L 286.953896 172.721376 
L 310.505844 164.91528 
L 334.057792 162.719136 
L 357.60974 162.436464 
L 381.161688 161.827632 
L 404.713636 154.826064 
" style="fill:none;stroke:#248bcc;stroke-linecap:square;stroke-opacity:0.1;stroke-width:1.5;"/>
   </g>
   <g id="line2d_16">
    <path clip-path="url(#pe3a71617b0)" d="M 74.986364 252 
L 98.538312 252 
L 122.09026 252 
L 145.642208 252 
L 169.194156 235.170144 
L 192.746104 229.777632 
L 216.298052 228.777408 
L 239.85 228.777408 
L 263.401948 228.777408 
L 286.953896 209.186064 
L 310.505844 192.595392 
L 334.057792 186.311376 
L 357.60974 183.332448 
L 381.161688 178.961904 
L 404.713636 178.374816 
" style="fill:none;stroke:#248bcc;stroke-linecap:square;stroke-opacity:0.1;stroke-width:1.5;"/>
   </g>
   <g id="line2d_17">
    <path clip-path="url(#pe3a71617b0)" d="M 74.986364 252 
L 98.538312 252 
L 122.09026 252 
L 145.642208 252 
L 169.194156 241.041024 
L 192.746104 231.538896 
L 216.298052 228.277296 
L 239.85 224.60256 
L 263.401948 224.60256 
L 286.953896 217.905408 
L 310.505844 217.905408 
L 334.057792 217.905408 
L 357.60974 213.29568 
L 381.161688 212.20848 
L 404.713636 212.056272 
" style="fill:none;stroke:#248bcc;stroke-linecap:square;stroke-opacity:0.1;stroke-width:1.5;"/>
   </g>
   <g id="line2d_18">
    <path clip-path="url(#pe3a71617b0)" d="M 74.986364 252 
L 98.538312 252 
L 122.09026 252 
L 145.642208 252 
L 169.194156 223.645824 
L 192.746104 217.448784 
L 216.298052 210.990816 
L 239.85 207.729216 
L 263.401948 205.598304 
L 286.953896 174.37392 
L 310.505844 168.894432 
L 334.057792 168.894432 
L 357.60974 163.980288 
L 381.161688 158.109408 
L 404.713636 111.53376 
" style="fill:none;stroke:#248bcc;stroke-linecap:square;stroke-opacity:0.1;stroke-width:1.5;"/>
   </g>
   <g id="line2d_19">
    <path clip-path="url(#pe3a71617b0)" d="M 74.986364 252 
L 98.538312 252 
L 122.09026 252 
L 145.642208 252 
L 169.194156 241.845552 
L 192.746104 237.21408 
L 216.298052 234.865728 
L 239.85 234.865728 
L 263.401948 231.495408 
L 286.953896 218.231568 
L 310.505844 218.231568 
L 334.057792 214.143696 
L 357.60974 211.164768 
L 381.161688 210.621168 
L 404.713636 203.380416 
" style="fill:none;stroke:#248bcc;stroke-linecap:square;stroke-opacity:0.1;stroke-width:1.5;"/>
   </g>
   <g id="line2d_20">
    <path clip-path="url(#pe3a71617b0)" d="M 74.986364 252 
L 98.538312 252 
L 122.09026 252 
L 145.642208 241.584624 
L 169.194156 212.8608 
L 192.746104 204.337152 
L 216.298052 196.87896 
L 239.85 195.509088 
L 263.401948 189.616464 
L 286.953896 180.310032 
L 310.505844 179.80992 
L 334.057792 171.286272 
L 357.60974 155.2392 
L 381.161688 151.303536 
L 404.713636 151.303536 
" style="fill:none;stroke:#248bcc;stroke-linecap:square;stroke-opacity:0.1;stroke-width:1.5;"/>
   </g>
   <g id="line2d_21">
    <path clip-path="url(#pe3a71617b0)" d="M 74.986364 252 
L 98.538312 252 
L 122.09026 229.581936 
L 145.642208 229.581936 
L 169.194156 219.27528 
L 192.746104 213.4044 
L 216.298052 213.4044 
L 239.85 213.4044 
L 263.401948 213.4044 
L 286.953896 177.113664 
L 310.505844 172.612656 
L 334.057792 168.459552 
L 357.60974 165.219696 
L 381.161688 164.067264 
L 404.713636 163.414944 
" style="fill:none;stroke:#248bcc;stroke-linecap:square;stroke-opacity:0.1;stroke-width:1.5;"/>
   </g>
   <g id="line2d_22">
    <path clip-path="url(#pe3a71617b0)" d="M 74.986364 252 
L 98.538312 252 
L 122.09026 252 
L 145.642208 252 
L 169.194156 237.192336 
L 192.746104 226.820448 
L 216.298052 222.036768 
L 239.85 222.036768 
L 263.401948 222.036768 
L 286.953896 218.535984 
L 310.505844 212.20848 
L 334.057792 210.621168 
L 357.60974 205.511328 
L 381.161688 204.619824 
L 404.713636 199.857888 
" style="fill:none;stroke:#248bcc;stroke-linecap:square;stroke-opacity:0.1;stroke-width:1.5;"/>
   </g>
   <g id="line2d_23">
    <path clip-path="url(#pe3a71617b0)" d="M 74.986364 252 
L 98.538312 252 
L 122.09026 236.713968 
L 145.642208 236.713968 
L 169.194156 216.55728 
L 192.746104 203.445648 
L 216.298052 197.031168 
L 239.85 197.031168 
L 263.401948 197.031168 
L 286.953896 183.136752 
L 310.505844 178.374816 
L 334.057792 166.54608 
L 357.60974 158.653008 
L 381.161688 157.000464 
L 404.713636 155.869776 
" style="fill:none;stroke:#248bcc;stroke-linecap:square;stroke-opacity:0.1;stroke-width:1.5;"/>
   </g>
   <g id="line2d_24">
    <path clip-path="url(#pe3a71617b0)" d="M 74.986364 252 
L 98.538312 252 
L 122.09026 252 
L 145.642208 252 
L 169.194156 229.625424 
L 192.746104 225.059184 
L 216.298052 225.059184 
L 239.85 225.059184 
L 263.401948 225.059184 
L 286.953896 189.399024 
L 310.505844 164.958768 
L 334.057792 159.283584 
L 357.60974 159.283584 
L 381.161688 149.303088 
L 404.713636 133.756128 
" style="fill:none;stroke:#248bcc;stroke-linecap:square;stroke-opacity:0.1;stroke-width:1.5;"/>
   </g>
   <g id="line2d_25">
    <path clip-path="url(#pe3a71617b0)" d="M 74.986364 252 
L 98.538312 252 
L 122.09026 252 
L 145.642208 252 
L 169.194156 230.603904 
L 192.746104 216.318096 
L 216.298052 210.425472 
L 239.85 210.425472 
L 263.401948 198.50976 
L 286.953896 182.266992 
L 310.505844 141.997104 
L 334.057792 136.191456 
L 357.60974 128.298384 
L 381.161688 122.862384 
L 404.713636 98.226432 
" style="fill:none;stroke:#248bcc;stroke-linecap:square;stroke-opacity:0.1;stroke-width:1.5;"/>
   </g>
   <g id="line2d_26">
    <path clip-path="url(#pe3a71617b0)" d="M 74.986364 252 
L 98.538312 252 
L 122.09026 252 
L 145.642208 239.323248 
L 169.194156 231.77808 
L 192.746104 202.902048 
L 216.298052 197.248608 
L 239.85 197.248608 
L 263.401948 193.247712 
L 286.953896 185.876496 
L 310.505844 180.223056 
L 334.057792 177.918192 
L 357.60974 177.918192 
L 381.161688 177.765984 
L 404.713636 141.410016 
" style="fill:none;stroke:#248bcc;stroke-linecap:square;stroke-opacity:0.1;stroke-width:1.5;"/>
   </g>
   <g id="line2d_27">
    <path clip-path="url(#pe3a71617b0)" d="M 74.986364 252 
L 98.538312 252 
L 122.09026 252 
L 145.642208 231.625872 
L 169.194156 223.1892 
L 192.746104 198.29232 
L 216.298052 188.920656 
L 239.85 188.920656 
L 263.401948 188.442288 
L 286.953896 156.456864 
L 310.505844 151.673184 
L 334.057792 145.280448 
L 357.60974 134.821584 
L 381.161688 133.125552 
L 404.713636 133.125552 
" style="fill:none;stroke:#248bcc;stroke-linecap:square;stroke-opacity:0.1;stroke-width:1.5;"/>
   </g>
   <g id="line2d_28">
    <path clip-path="url(#pe3a71617b0)" d="M 74.986364 252 
L 98.538312 252 
L 122.09026 218.340288 
L 145.642208 218.340288 
L 169.194156 208.881648 
L 192.746104 200.488464 
L 216.298052 198.29232 
L 239.85 198.29232 
L 263.401948 194.291424 
L 286.953896 171.851616 
L 310.505844 167.763744 
L 334.057792 163.71936 
L 357.60974 151.042608 
L 381.161688 145.084752 
L 404.713636 143.475696 
" style="fill:none;stroke:#248bcc;stroke-linecap:square;stroke-opacity:0.1;stroke-width:1.5;"/>
   </g>
   <g id="line2d_29">
    <path clip-path="url(#pe3a71617b0)" d="M 74.986364 252 
L 98.538312 252 
L 122.09026 252 
L 145.642208 252 
L 169.194156 250.303968 
L 192.746104 242.997984 
L 216.298052 238.323024 
L 239.85 228.886128 
L 263.401948 222.341184 
L 286.953896 214.100208 
L 310.505844 213.056496 
L 334.057792 208.925136 
L 357.60974 207.555264 
L 381.161688 206.272368 
L 404.713636 170.89488 
" style="fill:none;stroke:#248bcc;stroke-linecap:square;stroke-opacity:0.1;stroke-width:1.5;"/>
   </g>
   <g id="line2d_30">
    <path clip-path="url(#pe3a71617b0)" d="M 74.986364 252 
L 98.538312 252 
L 122.09026 252 
L 145.642208 241.584624 
L 169.194156 210.490704 
L 192.746104 199.879632 
L 216.298052 198.379296 
L 239.85 198.379296 
L 263.401948 198.379296 
L 286.953896 178.744464 
L 310.505844 176.200416 
L 334.057792 143.084304 
L 357.60974 138.191904 
L 381.161688 136.060992 
L 404.713636 132.451488 
" style="fill:none;stroke:#248bcc;stroke-linecap:square;stroke-opacity:0.1;stroke-width:1.5;"/>
   </g>
   <g id="line2d_31">
    <path clip-path="url(#pe3a71617b0)" d="M 74.986364 252 
L 98.538312 252 
L 122.09026 236.713968 
L 145.642208 227.603232 
L 169.194156 192.073536 
L 192.746104 177.352848 
L 216.298052 162.458208 
L 239.85 149.781456 
L 263.401948 140.88816 
L 286.953896 119.318112 
L 310.505844 110.924928 
L 334.057792 104.46696 
L 357.60974 104.184288 
L 381.161688 94.57344 
L 404.713636 85.680144 
" style="fill:none;stroke:#248bcc;stroke-linecap:square;stroke-opacity:0.1;stroke-width:1.5;"/>
   </g>
   <g id="line2d_32">
    <path clip-path="url(#pe3a71617b0)" d="M 74.986364 252 
L 98.538312 252 
L 122.09026 252 
L 145.642208 252 
L 169.194156 245.302848 
L 192.746104 240.36696 
L 216.298052 237.714192 
L 239.85 220.384224 
L 263.401948 217.013904 
L 286.953896 196.705008 
L 310.505844 189.855648 
L 334.057792 189.855648 
L 357.60974 188.203104 
L 381.161688 183.419424 
L 404.713636 177.5268 
" style="fill:none;stroke:#248bcc;stroke-linecap:square;stroke-opacity:0.1;stroke-width:1.5;"/>
   </g>
   <g id="line2d_33">
    <path clip-path="url(#pe3a71617b0)" d="M 74.986364 252 
L 98.538312 252 
L 122.09026 252 
L 145.642208 242.584848 
L 169.194156 230.256 
L 192.746104 228.820896 
L 216.298052 226.168128 
L 239.85 226.168128 
L 263.401948 226.168128 
L 286.953896 219.971088 
L 310.505844 217.774944 
L 334.057792 216.057168 
L 357.60974 189.05112 
L 381.161688 186.44184 
L 404.713636 184.571856 
" style="fill:none;stroke:#248bcc;stroke-linecap:square;stroke-opacity:0.1;stroke-width:1.5;"/>
   </g>
   <g id="line2d_34">
    <path clip-path="url(#pe3a71617b0)" d="M 74.986364 252 
L 98.538312 252 
L 122.09026 252 
L 145.642208 241.628112 
L 169.194156 217.796688 
L 192.746104 215.165664 
L 216.298052 214.426368 
L 239.85 214.426368 
L 263.401948 198.7272 
L 286.953896 174.395664 
L 310.505844 163.262736 
L 334.057792 163.262736 
L 357.60974 155.826288 
L 381.161688 142.08408 
L 404.713636 130.494528 
" style="fill:none;stroke:#248bcc;stroke-linecap:square;stroke-opacity:0.1;stroke-width:1.5;"/>
   </g>
   <g id="line2d_35">
    <path clip-path="url(#pe3a71617b0)" d="M 74.986364 252 
L 98.538312 252 
L 122.09026 231.756336 
L 145.642208 227.124864 
L 169.194156 223.036992 
L 192.746104 220.232016 
L 216.298052 217.64448 
L 239.85 217.64448 
L 263.401948 217.64448 
L 286.953896 193.247712 
L 310.505844 193.247712 
L 334.057792 193.247712 
L 357.60974 187.833456 
L 381.161688 185.854752 
L 404.713636 182.701872 
" style="fill:none;stroke:#248bcc;stroke-linecap:square;stroke-opacity:0.1;stroke-width:1.5;"/>
   </g>
   <g id="line2d_36">
    <path clip-path="url(#pe3a71617b0)" d="M 74.986364 252 
L 98.538312 252 
L 122.09026 252 
L 145.642208 252 
L 169.194156 236.866176 
L 192.746104 209.27304 
L 216.298052 209.033856 
L 239.85 209.033856 
L 263.401948 208.685952 
L 286.953896 147.694032 
L 310.505844 146.628576 
L 334.057792 145.34568 
L 357.60974 142.888608 
L 381.161688 141.86664 
L 404.713636 127.08072 
" style="fill:none;stroke:#248bcc;stroke-linecap:square;stroke-opacity:0.1;stroke-width:1.5;"/>
   </g>
   <g id="line2d_37">
    <path clip-path="url(#pe3a71617b0)" d="M 74.986364 252 
L 98.538312 252 
L 122.09026 252 
L 145.642208 252 
L 169.194156 229.190544 
L 192.746104 206.66376 
L 216.298052 189.05112 
L 239.85 188.07264 
L 263.401948 187.920432 
L 286.953896 159.196608 
L 310.505844 157.84848 
L 334.057792 154.608624 
L 357.60974 151.86888 
L 381.161688 140.866416 
L 404.713636 139.061664 
" style="fill:none;stroke:#248bcc;stroke-linecap:square;stroke-opacity:0.1;stroke-width:1.5;"/>
   </g>
   <g id="line2d_38">
    <path clip-path="url(#pe3a71617b0)" d="M 74.986364 252 
L 98.538312 252 
L 122.09026 252 
L 145.642208 239.127552 
L 169.194156 214.100208 
L 192.746104 156.87 
L 216.298052 133.886592 
L 239.85 129.168144 
L 263.401948 122.971104 
L 286.953896 96.160752 
L 310.505844 94.051584 
L 334.057792 54.064368 
L 357.60974 53.36856 
L 381.161688 50.998464 
L 404.713636 25.123104 
" style="fill:none;stroke:#248bcc;stroke-linecap:square;stroke-opacity:0.1;stroke-width:1.5;"/>
   </g>
   <g id="line2d_39">
    <path clip-path="url(#pe3a71617b0)" d="M 74.986364 252 
L 98.538312 252 
L 122.09026 252 
L 145.642208 237.475008 
L 169.194156 191.182032 
L 192.746104 180.049104 
L 216.298052 180.049104 
L 239.85 180.049104 
L 263.401948 180.049104 
L 286.953896 172.438704 
L 310.505844 169.633728 
L 334.057792 168.698736 
L 357.60974 168.046416 
L 381.161688 164.15424 
L 404.713636 157.152672 
" style="fill:none;stroke:#248bcc;stroke-linecap:square;stroke-opacity:0.1;stroke-width:1.5;"/>
   </g>
   <g id="line2d_40">
    <path clip-path="url(#pe3a71617b0)" d="M 74.986364 252 
L 98.538312 252 
L 122.09026 252 
L 145.642208 252 
L 169.194156 225.059184 
L 192.746104 205.489584 
L 216.298052 201.466944 
L 239.85 201.466944 
L 263.401948 200.162304 
L 286.953896 197.009424 
L 310.505844 196.618032 
L 334.057792 193.095504 
L 357.60974 188.746704 
L 381.161688 188.159616 
L 404.713636 188.159616 
" style="fill:none;stroke:#248bcc;stroke-linecap:square;stroke-opacity:0.1;stroke-width:1.5;"/>
   </g>
   <g id="line2d_41">
    <path clip-path="url(#pe3a71617b0)" d="M 74.986364 252 
L 98.538312 252 
L 122.09026 252 
L 145.642208 242.889264 
L 169.194156 218.73168 
L 192.746104 211.621392 
L 216.298052 208.207584 
L 239.85 208.207584 
L 263.401948 208.207584 
L 286.953896 172.808352 
L 310.505844 162.436464 
L 334.057792 161.392752 
L 357.60974 147.324384 
L 381.161688 137.256912 
L 404.713636 136.604592 
" style="fill:none;stroke:#248bcc;stroke-linecap:square;stroke-opacity:0.1;stroke-width:1.5;"/>
   </g>
   <g id="line2d_42">
    <path clip-path="url(#pe3a71617b0)" d="M 74.986364 252 
L 98.538312 252 
L 122.09026 252 
L 145.642208 252 
L 169.194156 240.845328 
L 192.746104 233.474112 
L 216.298052 233.474112 
L 239.85 233.474112 
L 263.401948 230.625648 
L 286.953896 219.123072 
L 310.505844 217.383552 
L 334.057792 210.012336 
L 357.60974 179.005392 
L 381.161688 174.417408 
L 404.713636 165.089232 
" style="fill:none;stroke:#248bcc;stroke-linecap:square;stroke-opacity:0.1;stroke-width:1.5;"/>
   </g>
   <g id="line2d_43">
    <path clip-path="url(#pe3a71617b0)" d="M 74.986364 252 
L 98.538312 252 
L 122.09026 252 
L 145.642208 252 
L 169.194156 217.2096 
L 192.746104 202.619376 
L 216.298052 166.241664 
L 239.85 160.740432 
L 263.401948 160.740432 
L 286.953896 135.408672 
L 310.505844 129.233376 
L 334.057792 110.163888 
L 357.60974 106.902288 
L 381.161688 96.987024 
L 404.713636 76.134528 
" style="fill:none;stroke:#248bcc;stroke-linecap:square;stroke-opacity:0.1;stroke-width:1.5;"/>
   </g>
   <g id="line2d_44">
    <path clip-path="url(#pe3a71617b0)" d="M 74.986364 252 
L 98.538312 252 
L 122.09026 252 
L 145.642208 252 
L 169.194156 229.625424 
L 192.746104 205.728768 
L 216.298052 205.728768 
L 239.85 205.728768 
L 263.401948 197.596512 
L 286.953896 140.496768 
L 310.505844 104.075568 
L 334.057792 93.16008 
L 357.60974 90.833472 
L 381.161688 78.70032 
L 404.713636 76.786848 
" style="fill:none;stroke:#248bcc;stroke-linecap:square;stroke-opacity:0.1;stroke-width:1.5;"/>
   </g>
   <g id="line2d_45">
    <path clip-path="url(#pe3a71617b0)" d="M 74.986364 252 
L 98.538312 252 
L 122.09026 228.777408 
L 145.642208 201.88008 
L 169.194156 176.570064 
L 192.746104 156.3264 
L 216.298052 150.3468 
L 239.85 143.06256 
L 263.401948 134.995536 
L 286.953896 121.905648 
L 310.505844 121.905648 
L 334.057792 113.903856 
L 357.60974 111.294576 
L 381.161688 108.620064 
L 404.713636 108.119952 
" style="fill:none;stroke:#248bcc;stroke-linecap:square;stroke-opacity:0.1;stroke-width:1.5;"/>
   </g>
   <g id="line2d_46">
    <path clip-path="url(#pe3a71617b0)" d="M 74.986364 252 
L 98.538312 252 
L 122.09026 231.66936 
L 145.642208 229.799376 
L 169.194156 193.813056 
L 192.746104 166.676544 
L 216.298052 160.262064 
L 239.85 159.109632 
L 263.401948 156.76128 
L 286.953896 147.867984 
L 310.505844 146.411136 
L 334.057792 139.387824 
L 357.60974 132.451488 
L 381.161688 109.68552 
L 404.713636 51.716016 
" style="fill:none;stroke:#248bcc;stroke-linecap:square;stroke-opacity:0.1;stroke-width:1.5;"/>
   </g>
   <g id="line2d_47">
    <path clip-path="url(#pe3a71617b0)" d="M 74.986364 252 
L 98.538312 252 
L 122.09026 231.756336 
L 145.642208 231.756336 
L 169.194156 218.666448 
L 192.746104 210.447216 
L 216.298052 205.772256 
L 239.85 204.076224 
L 263.401948 204.076224 
L 286.953896 204.076224 
L 310.505844 191.899584 
L 334.057792 191.899584 
L 357.60974 190.594944 
L 381.161688 188.703216 
L 404.713636 184.463136 
" style="fill:none;stroke:#248bcc;stroke-linecap:square;stroke-opacity:0.1;stroke-width:1.5;"/>
   </g>
   <g id="line2d_48">
    <path clip-path="url(#pe3a71617b0)" d="M 74.986364 252 
L 98.538312 252 
L 122.09026 228.712176 
L 145.642208 228.712176 
L 169.194156 217.731456 
L 192.746104 213.165216 
L 216.298052 213.165216 
L 239.85 210.882096 
L 263.401948 209.577456 
L 286.953896 189.638208 
L 310.505844 168.916176 
L 334.057792 166.915728 
L 357.60974 165.872016 
L 381.161688 163.458432 
L 404.713636 141.714432 
" style="fill:none;stroke:#248bcc;stroke-linecap:square;stroke-opacity:0.1;stroke-width:1.5;"/>
   </g>
   <g id="line2d_49">
    <path clip-path="url(#pe3a71617b0)" d="M 74.986364 252 
L 98.538312 252 
L 122.09026 229.581936 
L 145.642208 209.251296 
L 169.194156 190.855872 
L 192.746104 186.702768 
L 216.298052 180.875376 
L 239.85 177.918192 
L 263.401948 167.350608 
L 286.953896 148.411584 
L 310.505844 147.563568 
L 334.057792 133.256016 
L 357.60974 126.972 
L 381.161688 122.536224 
L 404.713636 107.706816 
" style="fill:none;stroke:#248bcc;stroke-linecap:square;stroke-opacity:0.1;stroke-width:1.5;"/>
   </g>
   <g id="line2d_50">
    <path clip-path="url(#pe3a71617b0)" d="M 74.986364 252 
L 98.538312 252 
L 122.09026 252 
L 145.642208 252 
L 169.194156 244.49832 
L 192.746104 228.168576 
L 216.298052 218.775168 
L 239.85 218.775168 
L 263.401948 211.490928 
L 286.953896 211.12128 
L 310.505844 211.12128 
L 334.057792 204.728544 
L 357.60974 201.206016 
L 381.161688 199.009872 
L 404.713636 188.246592 
" style="fill:none;stroke:#248bcc;stroke-linecap:square;stroke-opacity:0.1;stroke-width:1.5;"/>
   </g>
   <g id="line2d_51">
    <path clip-path="url(#pe3a71617b0)" d="M 74.986364 252 
L 98.538312 252 
L 122.09026 252 
L 145.642208 252 
L 169.194156 233.62632 
L 192.746104 224.16768 
L 216.298052 223.123968 
L 239.85 223.123968 
L 263.401948 216.165888 
L 286.953896 194.226192 
L 310.505844 179.962128 
L 334.057792 172.656144 
L 357.60974 172.656144 
L 381.161688 171.308016 
L 404.713636 169.394544 
" style="fill:none;stroke:#248bcc;stroke-linecap:square;stroke-opacity:0.1;stroke-width:1.5;"/>
   </g>
   <g id="line2d_52">
    <path clip-path="url(#pe3a71617b0)" d="M 74.986364 252 
L 98.538312 252 
L 122.09026 252 
L 145.642208 252 
L 169.194156 230.082048 
L 192.746104 216.905184 
L 216.298052 216.905184 
L 239.85 216.905184 
L 263.401948 216.905184 
L 286.953896 204.554592 
L 310.505844 202.162752 
L 334.057792 194.769792 
L 357.60974 190.094832 
L 381.161688 172.41696 
L 404.713636 168.350832 
" style="fill:none;stroke:#248bcc;stroke-linecap:square;stroke-opacity:0.1;stroke-width:1.5;"/>
   </g>
   <g id="line2d_53">
    <path clip-path="url(#pe3a71617b0)" d="M 74.986364 252 
L 98.538312 252 
L 122.09026 211.425696 
L 145.642208 211.425696 
L 169.194156 202.575888 
L 192.746104 197.509536 
L 216.298052 197.509536 
L 239.85 191.812608 
L 263.401948 188.790192 
L 286.953896 178.309584 
L 310.505844 177.265872 
L 334.057792 161.87112 
L 357.60974 161.87112 
L 381.161688 161.87112 
L 404.713636 151.151328 
" style="fill:none;stroke:#248bcc;stroke-linecap:square;stroke-opacity:0.1;stroke-width:1.5;"/>
   </g>
   <g id="line2d_54">
    <path clip-path="url(#pe3a71617b0)" d="M 74.986364 252 
L 98.538312 252 
L 122.09026 218.340288 
L 145.642208 218.340288 
L 169.194156 202.271472 
L 192.746104 187.942176 
L 216.298052 177.613776 
L 239.85 152.41248 
L 263.401948 127.972224 
L 286.953896 97.160976 
L 310.505844 95.290992 
L 334.057792 82.048896 
L 357.60974 78.5916 
L 381.161688 73.546992 
L 404.713636 68.502384 
" style="fill:none;stroke:#248bcc;stroke-linecap:square;stroke-opacity:0.1;stroke-width:1.5;"/>
   </g>
   <g id="line2d_55">
    <path clip-path="url(#pe3a71617b0)" d="M 74.986364 252 
L 98.538312 252 
L 122.09026 252 
L 145.642208 252 
L 169.194156 240.301728 
L 192.746104 220.623408 
L 216.298052 219.318768 
L 239.85 211.186512 
L 263.401948 189.768672 
L 286.953896 156.043728 
L 310.505844 154.652112 
L 334.057792 154.521648 
L 357.60974 147.824496 
L 381.161688 146.693808 
L 404.713636 141.018624 
" style="fill:none;stroke:#248bcc;stroke-linecap:square;stroke-opacity:0.1;stroke-width:1.5;"/>
   </g>
   <g id="line2d_56">
    <path clip-path="url(#pe3a71617b0)" d="M 74.986364 252 
L 98.538312 252 
L 122.09026 252 
L 145.642208 252 
L 169.194156 247.43376 
L 192.746104 227.668464 
L 216.298052 227.668464 
L 239.85 227.668464 
L 263.401948 227.668464 
L 286.953896 199.640448 
L 310.505844 185.724288 
L 334.057792 175.417632 
L 357.60974 172.721376 
L 381.161688 164.502144 
L 404.713636 148.759488 
" style="fill:none;stroke:#248bcc;stroke-linecap:square;stroke-opacity:0.1;stroke-width:1.5;"/>
   </g>
   <g id="line2d_57">
    <path clip-path="url(#pe3a71617b0)" d="M 74.986364 252 
L 98.538312 252 
L 122.09026 252 
L 145.642208 252 
L 169.194156 218.62296 
L 192.746104 212.20848 
L 216.298052 212.20848 
L 239.85 208.94688 
L 263.401948 198.531504 
L 286.953896 187.52904 
L 310.505844 161.54496 
L 334.057792 148.302864 
L 357.60974 132.386256 
L 381.161688 118.143936 
L 404.713636 95.073552 
" style="fill:none;stroke:#248bcc;stroke-linecap:square;stroke-opacity:0.1;stroke-width:1.5;"/>
   </g>
   <g id="line2d_58">
    <path clip-path="url(#pe3a71617b0)" d="M 74.986364 252 
L 98.538312 252 
L 122.09026 252 
L 145.642208 252 
L 169.194156 233.995968 
L 192.746104 215.535312 
L 216.298052 215.535312 
L 239.85 209.16432 
L 263.401948 205.598304 
L 286.953896 201.379968 
L 310.505844 201.01032 
L 334.057792 197.813952 
L 357.60974 197.813952 
L 381.161688 194.769792 
L 404.713636 192.030048 
" style="fill:none;stroke:#248bcc;stroke-linecap:square;stroke-opacity:0.1;stroke-width:1.5;"/>
   </g>
   <g id="line2d_59">
    <path clip-path="url(#pe3a71617b0)" d="M 74.986364 252 
L 98.538312 252 
L 122.09026 252 
L 145.642208 222.928272 
L 169.194156 210.490704 
L 192.746104 192.53016 
L 216.298052 187.333344 
L 239.85 187.333344 
L 263.401948 187.333344 
L 286.953896 168.916176 
L 310.505844 165.5676 
L 334.057792 160.370784 
L 357.60974 157.08744 
L 381.161688 150.759936 
L 404.713636 128.907216 
" style="fill:none;stroke:#248bcc;stroke-linecap:square;stroke-opacity:0.1;stroke-width:1.5;"/>
   </g>
   <g id="line2d_60">
    <path clip-path="url(#pe3a71617b0)" d="M 74.986364 252 
L 98.538312 252 
L 122.09026 252 
L 145.642208 243.650304 
L 169.194156 240.084288 
L 192.746104 232.060752 
L 216.298052 232.060752 
L 239.85 232.060752 
L 263.401948 223.993728 
L 286.953896 211.512672 
L 310.505844 185.180688 
L 334.057792 175.417632 
L 357.60974 167.459328 
L 381.161688 151.173072 
L 404.713636 122.40576 
" style="fill:none;stroke:#248bcc;stroke-linecap:square;stroke-opacity:0.1;stroke-width:1.5;"/>
   </g>
   <g id="line2d_61">
    <path clip-path="url(#pe3a71617b0)" d="M 74.986364 252 
L 98.538312 252 
L 122.09026 236.713968 
L 145.642208 224.798256 
L 169.194156 209.360016 
L 192.746104 197.509536 
L 216.298052 191.486448 
L 239.85 179.875152 
L 263.401948 176.243904 
L 286.953896 169.220592 
L 310.505844 169.003152 
L 334.057792 161.958096 
L 357.60974 159.283584 
L 381.161688 152.08632 
L 404.713636 138.626784 
" style="fill:none;stroke:#248bcc;stroke-linecap:square;stroke-opacity:0.1;stroke-width:1.5;"/>
   </g>
   <g id="line2d_62">
    <path clip-path="url(#pe3a71617b0)" d="M 74.986364 252 
L 98.538312 252 
L 122.09026 229.581936 
L 145.642208 229.581936 
L 169.194156 200.292768 
L 192.746104 176.87448 
L 216.298052 174.221712 
L 239.85 174.221712 
L 263.401948 174.221712 
L 286.953896 132.886368 
L 310.505844 122.992848 
L 334.057792 122.992848 
L 357.60974 88.767792 
L 381.161688 88.767792 
L 404.713636 86.85432 
" style="fill:none;stroke:#248bcc;stroke-linecap:square;stroke-opacity:0.1;stroke-width:1.5;"/>
   </g>
   <g id="line2d_63">
    <path clip-path="url(#pe3a71617b0)" d="M 74.986364 252 
L 98.538312 252 
L 122.09026 252 
L 145.642208 236.713968 
L 169.194156 217.405296 
L 192.746104 197.42256 
L 216.298052 187.702992 
L 239.85 185.419872 
L 263.401948 182.049552 
L 286.953896 165.980736 
L 310.505844 138.539808 
L 334.057792 99.096192 
L 357.60974 97.334928 
L 381.161688 96.682608 
L 404.713636 59.522112 
" style="fill:none;stroke:#248bcc;stroke-linecap:square;stroke-opacity:0.1;stroke-width:1.5;"/>
   </g>
   <g id="line2d_64">
    <path clip-path="url(#pe3a71617b0)" d="M 74.986364 252 
L 98.538312 252 
L 122.09026 250.216992 
L 145.642208 246.737952 
L 169.194156 233.321904 
L 192.746104 232.343424 
L 216.298052 232.343424 
L 239.85 228.429504 
L 263.401948 218.666448 
L 286.953896 202.075776 
L 310.505844 189.855648 
L 334.057792 184.724064 
L 357.60974 173.917296 
L 381.161688 169.3728 
L 404.713636 160.740432 
" style="fill:none;stroke:#248bcc;stroke-linecap:square;stroke-opacity:0.1;stroke-width:1.5;"/>
   </g>
   <g id="line2d_65">
    <path clip-path="url(#pe3a71617b0)" d="M 74.986364 252 
L 98.538312 252 
L 122.09026 252 
L 145.642208 243.269784 
L 169.194156 223.417512 
L 192.746104 211.914936 
L 216.298052 208.62072 
L 239.85 207.9684 
L 263.401948 198.629352 
L 286.953896 179.527248 
L 310.505844 169.31844 
L 334.057792 165.13272 
L 357.60974 160.577352 
L 381.161688 154.543392 
L 404.713636 141.562224 
" style="fill:none;stroke:#248bcc;stroke-linecap:square;stroke-width:1.5;"/>
   </g>
   <g id="line2d_66">
    <path clip-path="url(#pe3a71617b0)" d="M 74.986364 251.815176 
L 98.538312 251.815176 
L 122.09026 246.81613 
L 145.642208 240.023028 
L 169.194156 229.631244 
L 192.746104 227.448837 
L 216.298052 225.353675 
L 239.85 210.631511 
L 263.401948 204.959843 
L 286.953896 198.056255 
" style="fill:none;stroke:#000000;stroke-dasharray:5.55,2.4;stroke-dashoffset:0;stroke-width:1.5;"/>
   </g>
   <g id="line2d_67">
    <path clip-path="url(#pe3a71617b0)" d="M 286.953896 198.056255 
L 310.505844 189.964693 
L 334.057792 180.659397 
L 357.60974 169.958306 
L 381.161688 157.652052 
L 404.713636 143.49986 
" style="fill:none;stroke:#ff0000;stroke-dasharray:5.55,2.4;stroke-dashoffset:0;stroke-width:1.5;"/>
   </g>
   <g id="patch_3">
    <path d="M 58.5 252 
L 58.5 34.56 
" style="fill:none;stroke:#000000;stroke-linecap:square;stroke-linejoin:miter;stroke-width:0.8;"/>
   </g>
   <g id="patch_4">
    <path d="M 421.2 252 
L 421.2 34.56 
" style="fill:none;stroke:#000000;stroke-linecap:square;stroke-linejoin:miter;stroke-width:0.8;"/>
   </g>
   <g id="patch_5">
    <path d="M 58.5 252 
L 421.2 252 
" style="fill:none;stroke:#000000;stroke-linecap:square;stroke-linejoin:miter;stroke-width:0.8;"/>
   </g>
   <g id="patch_6">
    <path d="M 58.5 34.56 
L 421.2 34.56 
" style="fill:none;stroke:#000000;stroke-linecap:square;stroke-linejoin:miter;stroke-width:0.8;"/>
   </g>
   <g id="text_16">
    <!-- $w_{e}=$0.14, $w_{p}=$0.3, $w_{a}=$0.38 -->
    <defs>
     <path d="M 8.5 54.6875 
L 17.390625 54.6875 
L 19.671875 10.6875 
L 40.09375 54.6875 
L 50.484375 54.6875 
L 53.515625 10.6875 
L 72.90625 54.6875 
L 81.890625 54.6875 
L 56.890625 0 
L 46.390625 0 
L 43.703125 45.3125 
L 22.796875 0 
L 12.203125 0 
z
" id="DejaVuSans-Oblique-119"/>
     <path d="M 48.09375 32.234375 
Q 48.25 33.015625 48.3125 33.84375 
Q 48.390625 34.671875 48.390625 35.5 
Q 48.390625 41.453125 44.890625 44.921875 
Q 41.40625 48.390625 35.40625 48.390625 
Q 28.71875 48.390625 23.578125 44.15625 
Q 18.453125 39.9375 15.828125 32.171875 
z
M 55.90625 25.203125 
L 14.109375 25.203125 
Q 13.8125 23.34375 13.71875 22.265625 
Q 13.625 21.1875 13.625 20.40625 
Q 13.625 13.625 17.796875 9.90625 
Q 21.96875 6.203125 29.59375 6.203125 
Q 35.453125 6.203125 40.671875 7.515625 
Q 45.90625 8.84375 50.390625 11.375 
L 48.6875 2.484375 
Q 43.84375 0.53125 38.6875 -0.4375 
Q 33.546875 -1.421875 28.21875 -1.421875 
Q 16.84375 -1.421875 10.71875 4.015625 
Q 4.59375 9.46875 4.59375 19.484375 
Q 4.59375 28.03125 7.640625 35.375 
Q 10.6875 42.71875 16.609375 48.484375 
Q 20.40625 52.09375 25.65625 54.046875 
Q 30.90625 56 36.8125 56 
Q 46.09375 56 51.578125 50.4375 
Q 57.078125 44.875 57.078125 35.5 
Q 57.078125 33.25 56.78125 30.6875 
Q 56.5 28.125 55.90625 25.203125 
z
" id="DejaVuSans-Oblique-101"/>
     <path d="M 10.59375 45.40625 
L 73.1875 45.40625 
L 73.1875 37.203125 
L 10.59375 37.203125 
z
M 10.59375 25.484375 
L 73.1875 25.484375 
L 73.1875 17.1875 
L 10.59375 17.1875 
z
" id="DejaVuSans-61"/>
     <path d="M 10.6875 12.40625 
L 21 12.40625 
L 21 0 
L 10.6875 0 
z
" id="DejaVuSans-46"/>
     <path d="M 11.71875 12.40625 
L 22.015625 12.40625 
L 22.015625 4 
L 14.015625 -11.625 
L 7.71875 -11.625 
L 11.71875 4 
z
" id="DejaVuSans-44"/>
     <path d="M 49.609375 33.6875 
Q 49.609375 40.875 46.484375 44.671875 
Q 43.359375 48.484375 37.5 48.484375 
Q 33.5 48.484375 29.859375 46.4375 
Q 26.21875 44.390625 23.390625 40.484375 
Q 20.609375 36.625 18.9375 31.15625 
Q 17.28125 25.6875 17.28125 20.3125 
Q 17.28125 13.484375 20.40625 9.796875 
Q 23.53125 6.109375 29.296875 6.109375 
Q 33.546875 6.109375 37.1875 8.109375 
Q 40.828125 10.109375 43.40625 13.921875 
Q 46.1875 17.921875 47.890625 23.34375 
Q 49.609375 28.765625 49.609375 33.6875 
z
M 21.78125 46.390625 
Q 25.390625 51.125 30.296875 53.5625 
Q 35.203125 56 41.21875 56 
Q 49.609375 56 54.25 50.5 
Q 58.890625 45.015625 58.890625 35.109375 
Q 58.890625 27 56 19.65625 
Q 53.125 12.3125 47.703125 6.5 
Q 44.09375 2.640625 39.546875 0.609375 
Q 35.015625 -1.421875 29.984375 -1.421875 
Q 24.171875 -1.421875 20.21875 1 
Q 16.265625 3.421875 14.3125 8.203125 
L 8.6875 -20.796875 
L -0.296875 -20.796875 
L 14.40625 54.6875 
L 23.390625 54.6875 
z
" id="DejaVuSans-Oblique-112"/>
     <path d="M 40.578125 39.3125 
Q 47.65625 37.796875 51.625 33 
Q 55.609375 28.21875 55.609375 21.1875 
Q 55.609375 10.40625 48.1875 4.484375 
Q 40.765625 -1.421875 27.09375 -1.421875 
Q 22.515625 -1.421875 17.65625 -0.515625 
Q 12.796875 0.390625 7.625 2.203125 
L 7.625 11.71875 
Q 11.71875 9.328125 16.59375 8.109375 
Q 21.484375 6.890625 26.8125 6.890625 
Q 36.078125 6.890625 40.9375 10.546875 
Q 45.796875 14.203125 45.796875 21.1875 
Q 45.796875 27.640625 41.28125 31.265625 
Q 36.765625 34.90625 28.71875 34.90625 
L 20.21875 34.90625 
L 20.21875 43.015625 
L 29.109375 43.015625 
Q 36.375 43.015625 40.234375 45.921875 
Q 44.09375 48.828125 44.09375 54.296875 
Q 44.09375 59.90625 40.109375 62.90625 
Q 36.140625 65.921875 28.71875 65.921875 
Q 24.65625 65.921875 20.015625 65.03125 
Q 15.375 64.15625 9.8125 62.3125 
L 9.8125 71.09375 
Q 15.4375 72.65625 20.34375 73.4375 
Q 25.25 74.21875 29.59375 74.21875 
Q 40.828125 74.21875 47.359375 69.109375 
Q 53.90625 64.015625 53.90625 55.328125 
Q 53.90625 49.265625 50.4375 45.09375 
Q 46.96875 40.921875 40.578125 39.3125 
z
" id="DejaVuSans-51"/>
     <path d="M 53.71875 31.203125 
L 47.609375 0 
L 38.625 0 
L 40.28125 8.296875 
Q 36.328125 3.421875 31.265625 1 
Q 26.21875 -1.421875 20.015625 -1.421875 
Q 13.03125 -1.421875 8.5625 2.84375 
Q 4.109375 7.125 4.109375 13.8125 
Q 4.109375 23.390625 11.75 28.953125 
Q 19.390625 34.515625 32.8125 34.515625 
L 45.3125 34.515625 
L 45.796875 36.921875 
Q 45.90625 37.3125 45.953125 37.765625 
Q 46 38.234375 46 39.203125 
Q 46 43.5625 42.453125 45.96875 
Q 38.921875 48.390625 32.515625 48.390625 
Q 28.125 48.390625 23.5 47.265625 
Q 18.890625 46.140625 14.015625 43.890625 
L 15.578125 52.203125 
Q 20.65625 54.109375 25.515625 55.046875 
Q 30.375 56 34.90625 56 
Q 44.578125 56 49.625 51.796875 
Q 54.6875 47.609375 54.6875 39.59375 
Q 54.6875 37.984375 54.4375 35.8125 
Q 54.203125 33.640625 53.71875 31.203125 
z
M 44 27.484375 
L 35.015625 27.484375 
Q 23.96875 27.484375 18.671875 24.53125 
Q 13.375 21.578125 13.375 15.375 
Q 13.375 11.078125 16.078125 8.640625 
Q 18.796875 6.203125 23.578125 6.203125 
Q 30.90625 6.203125 36.375 11.453125 
Q 41.84375 16.703125 43.609375 25.484375 
z
" id="DejaVuSans-Oblique-97"/>
    </defs>
    <g transform="translate(150.81 28.56)scale(0.12 -0.12)">
     <use transform="translate(0 0.78125)" xlink:href="#DejaVuSans-Oblique-119"/>
     <use transform="translate(81.787109 -15.625)scale(0.7)" xlink:href="#DejaVuSans-Oblique-101"/>
     <use transform="translate(147.070312 0.78125)" xlink:href="#DejaVuSans-61"/>
     <use transform="translate(250.341797 0.78125)" xlink:href="#DejaVuSans-48"/>
     <use transform="translate(313.964844 0.78125)" xlink:href="#DejaVuSans-46"/>
     <use transform="translate(345.751953 0.78125)" xlink:href="#DejaVuSans-49"/>
     <use transform="translate(409.375 0.78125)" xlink:href="#DejaVuSans-52"/>
     <use transform="translate(472.998047 0.78125)" xlink:href="#DejaVuSans-44"/>
     <use transform="translate(504.785156 0.78125)" xlink:href="#DejaVuSans-32"/>
     <use transform="translate(536.572266 0.78125)" xlink:href="#DejaVuSans-Oblique-119"/>
     <use transform="translate(618.359375 -15.625)scale(0.7)" xlink:href="#DejaVuSans-Oblique-112"/>
     <use transform="translate(685.009766 0.78125)" xlink:href="#DejaVuSans-61"/>
     <use transform="translate(788.28125 0.78125)" xlink:href="#DejaVuSans-48"/>
     <use transform="translate(851.904297 0.78125)" xlink:href="#DejaVuSans-46"/>
     <use transform="translate(883.691406 0.78125)" xlink:href="#DejaVuSans-51"/>
     <use transform="translate(947.314453 0.78125)" xlink:href="#DejaVuSans-44"/>
     <use transform="translate(979.101562 0.78125)" xlink:href="#DejaVuSans-32"/>
     <use transform="translate(1010.888672 0.78125)" xlink:href="#DejaVuSans-Oblique-119"/>
     <use transform="translate(1092.675781 -15.625)scale(0.7)" xlink:href="#DejaVuSans-Oblique-97"/>
     <use transform="translate(1157.788086 0.78125)" xlink:href="#DejaVuSans-61"/>
     <use transform="translate(1261.05957 0.78125)" xlink:href="#DejaVuSans-48"/>
     <use transform="translate(1324.682617 0.78125)" xlink:href="#DejaVuSans-46"/>
     <use transform="translate(1356.469727 0.78125)" xlink:href="#DejaVuSans-51"/>
     <use transform="translate(1420.092773 0.78125)" xlink:href="#DejaVuSans-56"/>
    </g>
   </g>
   <g id="legend_1">
    <g id="line2d_68">
     <path d="M 67.5 47.658437 
L 87.5 47.658437 
" style="fill:none;stroke:#248bcc;stroke-linecap:square;"/>
    </g>
    <g id="line2d_69"/>
    <g id="text_17">
     <!-- Median 50 simulations -->
     <defs>
      <path d="M 9.8125 72.90625 
L 24.515625 72.90625 
L 43.109375 23.296875 
L 61.8125 72.90625 
L 76.515625 72.90625 
L 76.515625 0 
L 66.890625 0 
L 66.890625 64.015625 
L 48.09375 14.015625 
L 38.1875 14.015625 
L 19.390625 64.015625 
L 19.390625 0 
L 9.8125 0 
z
" id="DejaVuSans-77"/>
      <path d="M 10.796875 72.90625 
L 49.515625 72.90625 
L 49.515625 64.59375 
L 19.828125 64.59375 
L 19.828125 46.734375 
Q 21.96875 47.46875 24.109375 47.828125 
Q 26.265625 48.1875 28.421875 48.1875 
Q 40.625 48.1875 47.75 41.5 
Q 54.890625 34.8125 54.890625 23.390625 
Q 54.890625 11.625 47.5625 5.09375 
Q 40.234375 -1.421875 26.90625 -1.421875 
Q 22.3125 -1.421875 17.546875 -0.640625 
Q 12.796875 0.140625 7.71875 1.703125 
L 7.71875 11.625 
Q 12.109375 9.234375 16.796875 8.0625 
Q 21.484375 6.890625 26.703125 6.890625 
Q 35.15625 6.890625 40.078125 11.328125 
Q 45.015625 15.765625 45.015625 23.390625 
Q 45.015625 31 40.078125 35.4375 
Q 35.15625 39.890625 26.703125 39.890625 
Q 22.75 39.890625 18.8125 39.015625 
Q 14.890625 38.140625 10.796875 36.28125 
z
" id="DejaVuSans-53"/>
      <path d="M 30.609375 48.390625 
Q 23.390625 48.390625 19.1875 42.75 
Q 14.984375 37.109375 14.984375 27.296875 
Q 14.984375 17.484375 19.15625 11.84375 
Q 23.34375 6.203125 30.609375 6.203125 
Q 37.796875 6.203125 41.984375 11.859375 
Q 46.1875 17.53125 46.1875 27.296875 
Q 46.1875 37.015625 41.984375 42.703125 
Q 37.796875 48.390625 30.609375 48.390625 
z
M 30.609375 56 
Q 42.328125 56 49.015625 48.375 
Q 55.71875 40.765625 55.71875 27.296875 
Q 55.71875 13.875 49.015625 6.21875 
Q 42.328125 -1.421875 30.609375 -1.421875 
Q 18.84375 -1.421875 12.171875 6.21875 
Q 5.515625 13.875 5.515625 27.296875 
Q 5.515625 40.765625 12.171875 48.375 
Q 18.84375 56 30.609375 56 
z
" id="DejaVuSans-111"/>
     </defs>
     <g transform="translate(95.5 51.158437)scale(0.1 -0.1)">
      <use xlink:href="#DejaVuSans-77"/>
      <use x="86.279297" xlink:href="#DejaVuSans-101"/>
      <use x="147.802734" xlink:href="#DejaVuSans-100"/>
      <use x="211.279297" xlink:href="#DejaVuSans-105"/>
      <use x="239.0625" xlink:href="#DejaVuSans-97"/>
      <use x="300.341797" xlink:href="#DejaVuSans-110"/>
      <use x="363.720703" xlink:href="#DejaVuSans-32"/>
      <use x="395.507812" xlink:href="#DejaVuSans-53"/>
      <use x="459.130859" xlink:href="#DejaVuSans-48"/>
      <use x="522.753906" xlink:href="#DejaVuSans-32"/>
      <use x="554.541016" xlink:href="#DejaVuSans-115"/>
      <use x="606.640625" xlink:href="#DejaVuSans-105"/>
      <use x="634.423828" xlink:href="#DejaVuSans-109"/>
      <use x="731.835938" xlink:href="#DejaVuSans-117"/>
      <use x="795.214844" xlink:href="#DejaVuSans-108"/>
      <use x="822.998047" xlink:href="#DejaVuSans-97"/>
      <use x="884.277344" xlink:href="#DejaVuSans-116"/>
      <use x="923.486328" xlink:href="#DejaVuSans-105"/>
      <use x="951.269531" xlink:href="#DejaVuSans-111"/>
      <use x="1012.451172" xlink:href="#DejaVuSans-110"/>
      <use x="1075.830078" xlink:href="#DejaVuSans-115"/>
     </g>
    </g>
    <g id="line2d_70">
     <path d="M 67.5 62.336562 
L 87.5 62.336562 
" style="fill:none;stroke:#6495ed;stroke-linecap:square;stroke-opacity:0.25;stroke-width:4;"/>
    </g>
    <g id="line2d_71"/>
    <g id="text_18">
     <!-- 90% Confidence interval -->
     <defs>
      <path d="M 10.984375 1.515625 
L 10.984375 10.5 
Q 14.703125 8.734375 18.5 7.8125 
Q 22.3125 6.890625 25.984375 6.890625 
Q 35.75 6.890625 40.890625 13.453125 
Q 46.046875 20.015625 46.78125 33.40625 
Q 43.953125 29.203125 39.59375 26.953125 
Q 35.25 24.703125 29.984375 24.703125 
Q 19.046875 24.703125 12.671875 31.3125 
Q 6.296875 37.9375 6.296875 49.421875 
Q 6.296875 60.640625 12.9375 67.421875 
Q 19.578125 74.21875 30.609375 74.21875 
Q 43.265625 74.21875 49.921875 64.515625 
Q 56.59375 54.828125 56.59375 36.375 
Q 56.59375 19.140625 48.40625 8.859375 
Q 40.234375 -1.421875 26.421875 -1.421875 
Q 22.703125 -1.421875 18.890625 -0.6875 
Q 15.09375 0.046875 10.984375 1.515625 
z
M 30.609375 32.421875 
Q 37.25 32.421875 41.125 36.953125 
Q 45.015625 41.5 45.015625 49.421875 
Q 45.015625 57.28125 41.125 61.84375 
Q 37.25 66.40625 30.609375 66.40625 
Q 23.96875 66.40625 20.09375 61.84375 
Q 16.21875 57.28125 16.21875 49.421875 
Q 16.21875 41.5 20.09375 36.953125 
Q 23.96875 32.421875 30.609375 32.421875 
z
" id="DejaVuSans-57"/>
      <path d="M 72.703125 32.078125 
Q 68.453125 32.078125 66.03125 28.46875 
Q 63.625 24.859375 63.625 18.40625 
Q 63.625 12.0625 66.03125 8.421875 
Q 68.453125 4.78125 72.703125 4.78125 
Q 76.859375 4.78125 79.265625 8.421875 
Q 81.6875 12.0625 81.6875 18.40625 
Q 81.6875 24.8125 79.265625 28.4375 
Q 76.859375 32.078125 72.703125 32.078125 
z
M 72.703125 38.28125 
Q 80.421875 38.28125 84.953125 32.90625 
Q 89.5 27.546875 89.5 18.40625 
Q 89.5 9.28125 84.9375 3.921875 
Q 80.375 -1.421875 72.703125 -1.421875 
Q 64.890625 -1.421875 60.34375 3.921875 
Q 55.8125 9.28125 55.8125 18.40625 
Q 55.8125 27.59375 60.375 32.9375 
Q 64.9375 38.28125 72.703125 38.28125 
z
M 22.3125 68.015625 
Q 18.109375 68.015625 15.6875 64.375 
Q 13.28125 60.75 13.28125 54.390625 
Q 13.28125 47.953125 15.671875 44.328125 
Q 18.0625 40.71875 22.3125 40.71875 
Q 26.5625 40.71875 28.96875 44.328125 
Q 31.390625 47.953125 31.390625 54.390625 
Q 31.390625 60.6875 28.953125 64.34375 
Q 26.515625 68.015625 22.3125 68.015625 
z
M 66.40625 74.21875 
L 74.21875 74.21875 
L 28.609375 -1.421875 
L 20.796875 -1.421875 
z
M 22.3125 74.21875 
Q 30.03125 74.21875 34.609375 68.875 
Q 39.203125 63.53125 39.203125 54.390625 
Q 39.203125 45.171875 34.640625 39.84375 
Q 30.078125 34.515625 22.3125 34.515625 
Q 14.546875 34.515625 10.03125 39.859375 
Q 5.515625 45.21875 5.515625 54.390625 
Q 5.515625 63.484375 10.046875 68.84375 
Q 14.59375 74.21875 22.3125 74.21875 
z
" id="DejaVuSans-37"/>
      <path d="M 37.109375 75.984375 
L 37.109375 68.5 
L 28.515625 68.5 
Q 23.6875 68.5 21.796875 66.546875 
Q 19.921875 64.59375 19.921875 59.515625 
L 19.921875 54.6875 
L 34.71875 54.6875 
L 34.71875 47.703125 
L 19.921875 47.703125 
L 19.921875 0 
L 10.890625 0 
L 10.890625 47.703125 
L 2.296875 47.703125 
L 2.296875 54.6875 
L 10.890625 54.6875 
L 10.890625 58.5 
Q 10.890625 67.625 15.140625 71.796875 
Q 19.390625 75.984375 28.609375 75.984375 
z
" id="DejaVuSans-102"/>
      <path d="M 41.109375 46.296875 
Q 39.59375 47.171875 37.8125 47.578125 
Q 36.03125 48 33.890625 48 
Q 26.265625 48 22.1875 43.046875 
Q 18.109375 38.09375 18.109375 28.8125 
L 18.109375 0 
L 9.078125 0 
L 9.078125 54.6875 
L 18.109375 54.6875 
L 18.109375 46.1875 
Q 20.953125 51.171875 25.484375 53.578125 
Q 30.03125 56 36.53125 56 
Q 37.453125 56 38.578125 55.875 
Q 39.703125 55.765625 41.0625 55.515625 
z
" id="DejaVuSans-114"/>
     </defs>
     <g transform="translate(95.5 65.836562)scale(0.1 -0.1)">
      <use xlink:href="#DejaVuSans-57"/>
      <use x="63.623047" xlink:href="#DejaVuSans-48"/>
      <use x="127.246094" xlink:href="#DejaVuSans-37"/>
      <use x="222.265625" xlink:href="#DejaVuSans-32"/>
      <use x="254.052734" xlink:href="#DejaVuSans-67"/>
      <use x="323.876953" xlink:href="#DejaVuSans-111"/>
      <use x="385.058594" xlink:href="#DejaVuSans-110"/>
      <use x="448.4375" xlink:href="#DejaVuSans-102"/>
      <use x="483.642578" xlink:href="#DejaVuSans-105"/>
      <use x="511.425781" xlink:href="#DejaVuSans-100"/>
      <use x="574.902344" xlink:href="#DejaVuSans-101"/>
      <use x="636.425781" xlink:href="#DejaVuSans-110"/>
      <use x="699.804688" xlink:href="#DejaVuSans-99"/>
      <use x="754.785156" xlink:href="#DejaVuSans-101"/>
      <use x="816.308594" xlink:href="#DejaVuSans-32"/>
      <use x="848.095703" xlink:href="#DejaVuSans-105"/>
      <use x="875.878906" xlink:href="#DejaVuSans-110"/>
      <use x="939.257812" xlink:href="#DejaVuSans-116"/>
      <use x="978.466797" xlink:href="#DejaVuSans-101"/>
      <use x="1039.990234" xlink:href="#DejaVuSans-114"/>
      <use x="1081.103516" xlink:href="#DejaVuSans-118"/>
      <use x="1140.283203" xlink:href="#DejaVuSans-97"/>
      <use x="1201.5625" xlink:href="#DejaVuSans-108"/>
     </g>
    </g>
    <g id="line2d_72">
     <path d="M 67.5 77.014687 
L 87.5 77.014687 
" style="fill:none;stroke:#248bcc;stroke-linecap:square;stroke-opacity:0.1;"/>
    </g>
    <g id="line2d_73"/>
    <g id="text_19">
     <!-- Individual run -->
     <defs>
      <path d="M 9.8125 72.90625 
L 19.671875 72.90625 
L 19.671875 0 
L 9.8125 0 
z
" id="DejaVuSans-73"/>
     </defs>
     <g transform="translate(95.5 80.514687)scale(0.1 -0.1)">
      <use xlink:href="#DejaVuSans-73"/>
      <use x="29.492188" xlink:href="#DejaVuSans-110"/>
      <use x="92.871094" xlink:href="#DejaVuSans-100"/>
      <use x="156.347656" xlink:href="#DejaVuSans-105"/>
      <use x="184.130859" xlink:href="#DejaVuSans-118"/>
      <use x="243.310547" xlink:href="#DejaVuSans-105"/>
      <use x="271.09375" xlink:href="#DejaVuSans-100"/>
      <use x="334.570312" xlink:href="#DejaVuSans-117"/>
      <use x="397.949219" xlink:href="#DejaVuSans-97"/>
      <use x="459.228516" xlink:href="#DejaVuSans-108"/>
      <use x="487.011719" xlink:href="#DejaVuSans-32"/>
      <use x="518.798828" xlink:href="#DejaVuSans-114"/>
      <use x="559.912109" xlink:href="#DejaVuSans-117"/>
      <use x="623.291016" xlink:href="#DejaVuSans-110"/>
     </g>
    </g>
    <g id="line2d_74">
     <path d="M 67.5 91.692813 
L 87.5 91.692813 
" style="fill:none;stroke:#000000;stroke-dasharray:3.7,1.6;stroke-dashoffset:0;"/>
    </g>
    <g id="line2d_75"/>
    <g id="text_20">
     <!-- Wiedikon (estimated) -->
     <defs>
      <path d="M 31 75.875 
Q 24.46875 64.65625 21.28125 53.65625 
Q 18.109375 42.671875 18.109375 31.390625 
Q 18.109375 20.125 21.3125 9.0625 
Q 24.515625 -2 31 -13.1875 
L 23.1875 -13.1875 
Q 15.875 -1.703125 12.234375 9.375 
Q 8.59375 20.453125 8.59375 31.390625 
Q 8.59375 42.28125 12.203125 53.3125 
Q 15.828125 64.359375 23.1875 75.875 
z
" id="DejaVuSans-40"/>
      <path d="M 8.015625 75.875 
L 15.828125 75.875 
Q 23.140625 64.359375 26.78125 53.3125 
Q 30.421875 42.28125 30.421875 31.390625 
Q 30.421875 20.453125 26.78125 9.375 
Q 23.140625 -1.703125 15.828125 -13.1875 
L 8.015625 -13.1875 
Q 14.5 -2 17.703125 9.0625 
Q 20.90625 20.125 20.90625 31.390625 
Q 20.90625 42.671875 17.703125 53.65625 
Q 14.5 64.65625 8.015625 75.875 
z
" id="DejaVuSans-41"/>
     </defs>
     <g transform="translate(95.5 95.192813)scale(0.1 -0.1)">
      <use xlink:href="#DejaVuSans-87"/>
      <use x="98.845703" xlink:href="#DejaVuSans-105"/>
      <use x="126.628906" xlink:href="#DejaVuSans-101"/>
      <use x="188.152344" xlink:href="#DejaVuSans-100"/>
      <use x="251.628906" xlink:href="#DejaVuSans-105"/>
      <use x="279.412109" xlink:href="#DejaVuSans-107"/>
      <use x="337.275391" xlink:href="#DejaVuSans-111"/>
      <use x="398.457031" xlink:href="#DejaVuSans-110"/>
      <use x="461.835938" xlink:href="#DejaVuSans-32"/>
      <use x="493.623047" xlink:href="#DejaVuSans-40"/>
      <use x="532.636719" xlink:href="#DejaVuSans-101"/>
      <use x="594.160156" xlink:href="#DejaVuSans-115"/>
      <use x="646.259766" xlink:href="#DejaVuSans-116"/>
      <use x="685.46875" xlink:href="#DejaVuSans-105"/>
      <use x="713.251953" xlink:href="#DejaVuSans-109"/>
      <use x="810.664062" xlink:href="#DejaVuSans-97"/>
      <use x="871.943359" xlink:href="#DejaVuSans-116"/>
      <use x="911.152344" xlink:href="#DejaVuSans-101"/>
      <use x="972.675781" xlink:href="#DejaVuSans-100"/>
      <use x="1036.152344" xlink:href="#DejaVuSans-41"/>
     </g>
    </g>
    <g id="line2d_76">
     <path d="M 67.5 106.370937 
L 87.5 106.370937 
" style="fill:none;stroke:#ff0000;stroke-dasharray:3.7,1.6;stroke-dashoffset:0;"/>
    </g>
    <g id="line2d_77"/>
    <g id="text_21">
     <!-- Wiedikon (15% growth) -->
     <defs>
      <path d="M 45.40625 27.984375 
Q 45.40625 37.75 41.375 43.109375 
Q 37.359375 48.484375 30.078125 48.484375 
Q 22.859375 48.484375 18.828125 43.109375 
Q 14.796875 37.75 14.796875 27.984375 
Q 14.796875 18.265625 18.828125 12.890625 
Q 22.859375 7.515625 30.078125 7.515625 
Q 37.359375 7.515625 41.375 12.890625 
Q 45.40625 18.265625 45.40625 27.984375 
z
M 54.390625 6.78125 
Q 54.390625 -7.171875 48.1875 -13.984375 
Q 42 -20.796875 29.203125 -20.796875 
Q 24.46875 -20.796875 20.265625 -20.09375 
Q 16.0625 -19.390625 12.109375 -17.921875 
L 12.109375 -9.1875 
Q 16.0625 -11.328125 19.921875 -12.34375 
Q 23.78125 -13.375 27.78125 -13.375 
Q 36.625 -13.375 41.015625 -8.765625 
Q 45.40625 -4.15625 45.40625 5.171875 
L 45.40625 9.625 
Q 42.625 4.78125 38.28125 2.390625 
Q 33.9375 0 27.875 0 
Q 17.828125 0 11.671875 7.65625 
Q 5.515625 15.328125 5.515625 27.984375 
Q 5.515625 40.671875 11.671875 48.328125 
Q 17.828125 56 27.875 56 
Q 33.9375 56 38.28125 53.609375 
Q 42.625 51.21875 45.40625 46.390625 
L 45.40625 54.6875 
L 54.390625 54.6875 
z
" id="DejaVuSans-103"/>
      <path d="M 4.203125 54.6875 
L 13.1875 54.6875 
L 24.421875 12.015625 
L 35.59375 54.6875 
L 46.1875 54.6875 
L 57.421875 12.015625 
L 68.609375 54.6875 
L 77.59375 54.6875 
L 63.28125 0 
L 52.6875 0 
L 40.921875 44.828125 
L 29.109375 0 
L 18.5 0 
z
" id="DejaVuSans-119"/>
      <path d="M 54.890625 33.015625 
L 54.890625 0 
L 45.90625 0 
L 45.90625 32.71875 
Q 45.90625 40.484375 42.875 44.328125 
Q 39.84375 48.1875 33.796875 48.1875 
Q 26.515625 48.1875 22.3125 43.546875 
Q 18.109375 38.921875 18.109375 30.90625 
L 18.109375 0 
L 9.078125 0 
L 9.078125 75.984375 
L 18.109375 75.984375 
L 18.109375 46.1875 
Q 21.34375 51.125 25.703125 53.5625 
Q 30.078125 56 35.796875 56 
Q 45.21875 56 50.046875 50.171875 
Q 54.890625 44.34375 54.890625 33.015625 
z
" id="DejaVuSans-104"/>
     </defs>
     <g transform="translate(95.5 109.870937)scale(0.1 -0.1)">
      <use xlink:href="#DejaVuSans-87"/>
      <use x="98.845703" xlink:href="#DejaVuSans-105"/>
      <use x="126.628906" xlink:href="#DejaVuSans-101"/>
      <use x="188.152344" xlink:href="#DejaVuSans-100"/>
      <use x="251.628906" xlink:href="#DejaVuSans-105"/>
      <use x="279.412109" xlink:href="#DejaVuSans-107"/>
      <use x="337.275391" xlink:href="#DejaVuSans-111"/>
      <use x="398.457031" xlink:href="#DejaVuSans-110"/>
      <use x="461.835938" xlink:href="#DejaVuSans-32"/>
      <use x="493.623047" xlink:href="#DejaVuSans-40"/>
      <use x="532.636719" xlink:href="#DejaVuSans-49"/>
      <use x="596.259766" xlink:href="#DejaVuSans-53"/>
      <use x="659.882812" xlink:href="#DejaVuSans-37"/>
      <use x="754.902344" xlink:href="#DejaVuSans-32"/>
      <use x="786.689453" xlink:href="#DejaVuSans-103"/>
      <use x="850.166016" xlink:href="#DejaVuSans-114"/>
      <use x="891.248047" xlink:href="#DejaVuSans-111"/>
      <use x="952.429688" xlink:href="#DejaVuSans-119"/>
      <use x="1034.216797" xlink:href="#DejaVuSans-116"/>
      <use x="1073.425781" xlink:href="#DejaVuSans-104"/>
      <use x="1136.804688" xlink:href="#DejaVuSans-41"/>
     </g>
    </g>
   </g>
  </g>
 </g>
 <defs>
  <clipPath id="pe3a71617b0">
   <rect height="217.44" width="362.7" x="58.5" y="34.56"/>
  </clipPath>
 </defs>
</svg>
