<?xml version="1.0" encoding="utf-8" standalone="no"?>
<!DOCTYPE svg PUBLIC "-//W3C//DTD SVG 1.1//EN"
  "http://www.w3.org/Graphics/SVG/1.1/DTD/svg11.dtd">
<!-- Created with matplotlib (https://matplotlib.org/) -->
<svg height="360pt" version="1.1" viewBox="0 0 468 360" width="468pt" xmlns="http://www.w3.org/2000/svg" xmlns:xlink="http://www.w3.org/1999/xlink">
 <defs>
  <style type="text/css">
*{stroke-linecap:butt;stroke-linejoin:round;}
  </style>
 </defs>
 <g id="figure_1">
  <g id="patch_1">
   <path d="M 0 360 
L 468 360 
L 468 0 
L 0 0 
z
" style="fill:#ffffff;"/>
  </g>
  <g id="axes_1">
   <g id="patch_2">
    <path d="M 58.5 315 
L 421.2 315 
L 421.2 43.2 
L 58.5 43.2 
z
" style="fill:#ffffff;"/>
   </g>
   <g id="patch_3">
    <path clip-path="url(#pd522d62b32)" d="M 184.443123 315 
L 184.443123 314.655775 
L 186.165594 314.655775 
L 186.165594 315 
L 198.222889 315 
L 198.222889 314.655775 
L 199.94536 314.655775 
L 199.94536 315 
L 205.112773 315 
L 205.112773 314.655775 
L 208.557714 314.655775 
L 208.557714 315 
L 210.280185 315 
L 210.280185 313.6231 
L 213.725127 313.6231 
L 213.725127 311.557751 
L 215.447598 311.557751 
L 215.447598 313.278875 
L 217.170068 313.278875 
L 217.170068 312.93465 
L 218.892539 312.93465 
L 218.892539 312.590426 
L 220.61501 312.590426 
L 220.61501 312.93465 
L 222.337481 312.93465 
L 222.337481 310.180851 
L 224.059952 310.180851 
L 224.059952 309.836626 
L 225.782423 309.836626 
L 225.782423 310.180851 
L 227.504893 310.180851 
L 227.504893 307.082827 
L 229.227364 307.082827 
L 229.227364 305.361702 
L 230.949835 305.361702 
L 230.949835 305.705927 
L 232.672306 305.705927 
L 232.672306 300.198328 
L 234.394777 300.198328 
L 234.394777 294.690729 
L 236.117247 294.690729 
L 236.117247 295.034954 
L 237.839718 295.034954 
L 237.839718 287.806231 
L 239.562189 287.806231 
L 239.562189 289.527356 
L 241.28466 289.527356 
L 241.28466 284.708207 
L 243.007131 284.708207 
L 243.007131 284.363982 
L 244.729602 284.363982 
L 244.729602 271.283435 
L 246.452072 271.283435 
L 246.452072 276.791033 
L 248.174543 276.791033 
L 248.174543 260.612462 
L 249.897014 260.612462 
L 249.897014 250.629939 
L 251.619485 250.629939 
L 251.619485 249.597264 
L 253.341956 249.597264 
L 253.341956 245.466565 
L 255.064427 245.466565 
L 255.064427 229.287994 
L 256.786897 229.287994 
L 256.786897 231.009119 
L 258.509368 231.009119 
L 258.509368 236.860942 
L 260.231839 236.860942 
L 260.231839 219.993921 
L 261.95431 219.993921 
L 261.95431 209.667173 
L 263.676781 209.667173 
L 263.676781 213.109422 
L 265.399251 213.109422 
L 265.399251 193.832827 
L 267.121722 193.832827 
L 267.121722 189.702128 
L 268.844193 189.702128 
L 268.844193 186.948328 
L 270.566664 186.948328 
L 270.566664 185.227204 
L 272.289135 185.227204 
L 272.289135 196.930851 
L 274.011606 196.930851 
L 274.011606 198.996201 
L 275.734076 198.996201 
L 275.734076 195.209726 
L 277.456547 195.209726 
L 277.456547 213.797872 
L 279.179018 213.797872 
L 279.179018 225.157295 
L 280.901489 225.157295 
L 280.901489 233.074468 
L 282.62396 233.074468 
L 282.62396 242.368541 
L 284.34643 242.368541 
L 284.34643 246.49924 
L 286.068901 246.49924 
L 286.068901 252.006839 
L 287.791372 252.006839 
L 287.791372 256.481763 
L 289.513843 256.481763 
L 289.513843 261.645137 
L 291.236314 261.645137 
L 291.236314 256.825988 
L 292.958785 256.825988 
L 292.958785 260.268237 
L 294.681255 260.268237 
L 294.681255 277.479483 
L 296.403726 277.479483 
L 296.403726 278.167933 
L 298.126197 278.167933 
L 298.126197 282.642857 
L 299.848668 282.642857 
L 299.848668 284.363982 
L 301.571139 284.363982 
L 301.571139 290.904255 
L 303.293609 290.904255 
L 303.293609 296.411854 
L 305.01608 296.411854 
L 305.01608 298.477204 
L 306.738551 298.477204 
L 306.738551 298.821429 
L 308.461022 298.821429 
L 308.461022 296.411854 
L 310.183493 296.411854 
L 310.183493 304.673252 
L 311.905964 304.673252 
L 311.905964 307.082827 
L 313.628434 307.082827 
L 313.628434 304.673252 
L 315.350905 304.673252 
L 315.350905 303.296353 
L 317.073376 303.296353 
L 317.073376 305.705927 
L 318.795847 305.705927 
L 318.795847 306.394377 
L 320.518318 306.394377 
L 320.518318 305.017477 
L 322.240789 305.017477 
L 322.240789 310.180851 
L 323.963259 310.180851 
L 323.963259 310.525076 
L 325.68573 310.525076 
L 325.68573 311.213526 
L 327.408201 311.213526 
L 327.408201 311.901976 
L 329.130672 311.901976 
L 329.130672 311.557751 
L 330.853143 311.557751 
L 330.853143 312.93465 
L 332.575613 312.93465 
L 332.575613 310.525076 
L 334.298084 310.525076 
L 334.298084 312.93465 
L 336.020555 312.93465 
L 336.020555 311.557751 
L 337.743026 311.557751 
L 337.743026 313.967325 
L 339.465497 313.967325 
L 339.465497 314.31155 
L 341.187968 314.31155 
L 341.187968 314.655775 
L 344.632909 314.655775 
L 344.632909 313.967325 
L 348.077851 313.967325 
L 348.077851 315 
L 354.967734 315 
L 354.967734 314.655775 
L 356.690205 314.655775 
L 356.690205 315 
L 356.690205 315 
" style="fill:none;stroke:#5b9bd5;stroke-linejoin:miter;"/>
   </g>
   <g id="patch_4">
    <path clip-path="url(#pd522d62b32)" d="M 180.987474 315 
L 180.987474 314.655775 
L 183.130468 314.655775 
L 183.130468 314.31155 
L 185.273462 314.31155 
L 185.273462 315 
L 187.416456 315 
L 187.416456 314.31155 
L 189.55945 314.31155 
L 189.55945 314.655775 
L 191.702444 314.655775 
L 191.702444 314.31155 
L 193.845438 314.31155 
L 193.845438 312.590426 
L 195.988432 312.590426 
L 195.988432 311.557751 
L 198.131426 311.557751 
L 198.131426 312.246201 
L 200.27442 312.246201 
L 200.27442 311.901976 
L 202.417414 311.901976 
L 202.417414 309.492401 
L 204.560409 309.492401 
L 204.560409 311.557751 
L 206.703403 311.557751 
L 206.703403 310.180851 
L 208.846397 310.180851 
L 208.846397 308.803951 
L 210.989391 308.803951 
L 210.989391 305.361702 
L 213.132385 305.361702 
L 213.132385 309.836626 
L 215.275379 309.836626 
L 215.275379 307.771277 
L 219.561367 307.771277 
L 219.561367 306.050152 
L 221.704361 306.050152 
L 221.704361 299.165653 
L 223.847355 299.165653 
L 223.847355 302.607903 
L 225.990349 302.607903 
L 225.990349 303.296353 
L 228.133343 303.296353 
L 228.133343 302.263678 
L 230.276337 302.263678 
L 230.276337 297.788754 
L 232.419331 297.788754 
L 232.419331 298.821429 
L 234.562325 298.821429 
L 234.562325 295.379179 
L 236.705319 295.379179 
L 236.705319 293.31383 
L 238.848313 293.31383 
L 238.848313 292.62538 
L 240.991307 292.62538 
L 240.991307 287.806231 
L 243.134302 287.806231 
L 243.134302 287.117781 
L 245.277296 287.117781 
L 245.277296 280.921733 
L 247.42029 280.921733 
L 247.42029 281.954407 
L 249.563284 281.954407 
L 249.563284 278.512158 
L 251.706278 278.512158 
L 251.706278 271.971884 
L 253.849272 271.971884 
L 253.849272 259.579787 
L 255.992266 259.579787 
L 255.992266 245.81079 
L 258.13526 245.81079 
L 258.13526 244.089666 
L 260.278254 244.089666 
L 260.278254 225.845745 
L 262.421248 225.845745 
L 262.421248 192.111702 
L 264.564242 192.111702 
L 264.564242 163.541033 
L 266.707236 163.541033 
L 266.707236 166.639058 
L 268.85023 166.639058 
L 268.85023 147.018237 
L 270.993224 147.018237 
L 270.993224 123.266717 
L 273.136218 123.266717 
L 273.136218 102.957447 
L 275.279212 102.957447 
L 275.279212 122.234043 
L 277.422206 122.234043 
L 277.422206 143.231763 
L 279.565201 143.231763 
L 279.565201 156.656535 
L 281.708195 156.656535 
L 281.708195 185.227204 
L 283.851189 185.227204 
L 283.851189 192.800152 
L 285.994183 192.800152 
L 285.994183 220.338146 
L 288.137177 220.338146 
L 288.137177 246.155015 
L 290.280171 246.155015 
L 290.280171 256.825988 
L 292.423165 256.825988 
L 292.423165 259.924012 
L 294.566159 259.924012 
L 294.566159 273.348784 
L 296.709153 273.348784 
L 296.709153 286.085106 
L 298.852147 286.085106 
L 298.852147 289.871581 
L 300.995141 289.871581 
L 300.995141 285.052432 
L 303.138135 285.052432 
L 303.138135 295.379179 
L 305.281129 295.379179 
L 305.281129 296.411854 
L 307.424123 296.411854 
L 307.424123 301.231003 
L 311.710111 301.231003 
L 311.710111 302.952128 
L 313.853105 302.952128 
L 313.853105 302.607903 
L 315.996099 302.607903 
L 315.996099 307.771277 
L 318.139094 307.771277 
L 318.139094 308.803951 
L 320.282088 308.803951 
L 320.282088 306.394377 
L 322.425082 306.394377 
L 322.425082 309.492401 
L 324.568076 309.492401 
L 324.568076 311.557751 
L 326.71107 311.557751 
L 326.71107 312.246201 
L 328.854064 312.246201 
L 328.854064 312.590426 
L 330.997058 312.590426 
L 330.997058 313.278875 
L 333.140052 313.278875 
L 333.140052 314.655775 
L 335.283046 314.655775 
L 335.283046 313.967325 
L 337.42604 313.967325 
L 337.42604 314.655775 
L 339.569034 314.655775 
L 339.569034 314.31155 
L 343.855022 314.31155 
L 343.855022 314.655775 
L 348.14101 314.655775 
L 348.14101 315 
L 350.284004 315 
L 350.284004 314.655775 
L 352.426998 314.655775 
L 352.426998 314.31155 
L 354.569992 314.31155 
L 354.569992 315 
L 360.998975 315 
L 360.998975 314.655775 
L 365.284963 314.655775 
L 365.284963 315 
L 367.427957 315 
L 367.427957 314.655775 
L 369.570951 314.655775 
L 369.570951 315 
L 380.285921 315 
L 380.285921 314.655775 
L 382.428915 314.655775 
L 382.428915 315 
L 391.000891 315 
L 391.000891 314.655775 
L 395.28688 314.655775 
L 395.28688 315 
L 395.28688 315 
" style="fill:none;stroke:#ed7d31;stroke-linejoin:miter;"/>
   </g>
   <g id="patch_5">
    <path clip-path="url(#pd522d62b32)" d="M 74.986364 315 
L 74.986364 314.655775 
L 78.283636 314.655775 
L 78.283636 315 
L 88.175455 315 
L 88.175455 314.655775 
L 91.472727 314.655775 
L 91.472727 315 
L 104.661818 315 
L 104.661818 314.655775 
L 111.256364 314.655775 
L 111.256364 314.31155 
L 117.850909 314.31155 
L 117.850909 313.967325 
L 121.148182 313.967325 
L 121.148182 314.655775 
L 134.337273 314.655775 
L 134.337273 314.31155 
L 137.634545 314.31155 
L 137.634545 313.967325 
L 140.931818 313.967325 
L 140.931818 315 
L 144.229091 315 
L 144.229091 313.278875 
L 147.526364 313.278875 
L 147.526364 313.967325 
L 157.418182 313.967325 
L 157.418182 313.6231 
L 160.715455 313.6231 
L 160.715455 313.967325 
L 164.012727 313.967325 
L 164.012727 313.6231 
L 167.31 313.6231 
L 167.31 310.869301 
L 170.607273 310.869301 
L 170.607273 314.31155 
L 173.904545 314.31155 
L 173.904545 313.967325 
L 177.201818 313.967325 
L 177.201818 313.278875 
L 180.499091 313.278875 
L 180.499091 312.93465 
L 183.796364 312.93465 
L 183.796364 314.655775 
L 187.093636 314.655775 
L 187.093636 313.967325 
L 190.390909 313.967325 
L 190.390909 312.590426 
L 193.688182 312.590426 
L 193.688182 313.967325 
L 196.985455 313.967325 
L 196.985455 310.869301 
L 200.282727 310.869301 
L 200.282727 311.213526 
L 203.58 311.213526 
L 203.58 309.492401 
L 206.877273 309.492401 
L 206.877273 308.115502 
L 210.174545 308.115502 
L 210.174545 306.738602 
L 213.471818 306.738602 
L 213.471818 308.459726 
L 216.769091 308.459726 
L 216.769091 307.082827 
L 220.066364 307.082827 
L 220.066364 303.984802 
L 223.363636 303.984802 
L 223.363636 303.640578 
L 226.660909 303.640578 
L 226.660909 296.411854 
L 229.958182 296.411854 
L 229.958182 291.93693 
L 233.255455 291.93693 
L 233.255455 288.494681 
L 236.552727 288.494681 
L 236.552727 285.052432 
L 239.85 285.052432 
L 239.85 276.446809 
L 243.147273 276.446809 
L 243.147273 266.808511 
L 246.444545 266.808511 
L 246.444545 255.104863 
L 249.741818 255.104863 
L 249.741818 240.647416 
L 253.039091 240.647416 
L 253.039091 218.961246 
L 256.336364 218.961246 
L 256.336364 182.129179 
L 259.633636 182.129179 
L 259.633636 162.508359 
L 262.930909 162.508359 
L 262.930909 106.399696 
L 266.228182 106.399696 
L 266.228182 88.844225 
L 269.525455 88.844225 
L 269.525455 85.401976 
L 272.822727 85.401976 
L 272.822727 56.142857 
L 276.12 56.142857 
L 276.12 65.43693 
L 279.417273 65.43693 
L 279.417273 91.598024 
L 282.714545 91.598024 
L 282.714545 111.218845 
L 286.011818 111.218845 
L 286.011818 165.262158 
L 289.309091 165.262158 
L 289.309091 211.388298 
L 292.606364 211.388298 
L 292.606364 236.516717 
L 295.903636 236.516717 
L 295.903636 244.778116 
L 299.200909 244.778116 
L 299.200909 266.808511 
L 302.498182 266.808511 
L 302.498182 278.856383 
L 305.795455 278.856383 
L 305.795455 284.019757 
L 309.092727 284.019757 
L 309.092727 289.871581 
L 312.39 289.871581 
L 312.39 295.034954 
L 315.687273 295.034954 
L 315.687273 300.542553 
L 318.984545 300.542553 
L 318.984545 307.771277 
L 322.281818 307.771277 
L 322.281818 309.836626 
L 325.579091 309.836626 
L 325.579091 310.525076 
L 328.876364 310.525076 
L 328.876364 311.213526 
L 332.173636 311.213526 
L 332.173636 308.459726 
L 335.470909 308.459726 
L 335.470909 311.213526 
L 338.768182 311.213526 
L 338.768182 313.278875 
L 342.065455 313.278875 
L 342.065455 315 
L 345.362727 315 
L 345.362727 313.967325 
L 348.66 313.967325 
L 348.66 315 
L 358.551818 315 
L 358.551818 314.655775 
L 361.849091 314.655775 
L 361.849091 315 
L 391.524545 315 
L 391.524545 314.655775 
L 394.821818 314.655775 
L 394.821818 315 
L 401.416364 315 
L 401.416364 314.31155 
L 404.713636 314.31155 
L 404.713636 315 
L 404.713636 315 
" style="fill:none;stroke:#a5a5a5;stroke-linejoin:miter;"/>
   </g>
   <g id="patch_6">
    <path clip-path="url(#pd522d62b32)" d="M 109.729063 315 
L 109.729063 314.655775 
L 112.406196 314.655775 
L 112.406196 315 
L 133.823256 315 
L 133.823256 314.31155 
L 136.500388 314.31155 
L 136.500388 315 
L 149.886051 315 
L 149.886051 314.655775 
L 152.563184 314.655775 
L 152.563184 315 
L 157.917449 315 
L 157.917449 314.31155 
L 160.594581 314.31155 
L 160.594581 315 
L 163.271714 315 
L 163.271714 314.655775 
L 165.948846 314.655775 
L 165.948846 315 
L 171.303111 315 
L 171.303111 314.655775 
L 173.980244 314.655775 
L 173.980244 313.967325 
L 179.334509 313.967325 
L 179.334509 314.31155 
L 182.011641 314.31155 
L 182.011641 313.967325 
L 184.688774 313.967325 
L 184.688774 314.655775 
L 187.365906 314.655775 
L 187.365906 315 
L 190.043039 315 
L 190.043039 313.967325 
L 195.397304 313.967325 
L 195.397304 312.590426 
L 198.074436 312.590426 
L 198.074436 313.967325 
L 200.751569 313.967325 
L 200.751569 313.278875 
L 203.428701 313.278875 
L 203.428701 313.967325 
L 206.105834 313.967325 
L 206.105834 313.6231 
L 208.782966 313.6231 
L 208.782966 312.93465 
L 211.460099 312.93465 
L 211.460099 311.557751 
L 214.137231 311.557751 
L 214.137231 310.180851 
L 216.814364 310.180851 
L 216.814364 306.394377 
L 219.491496 306.394377 
L 219.491496 308.459726 
L 222.168629 308.459726 
L 222.168629 293.31383 
L 224.845761 293.31383 
L 224.845761 286.429331 
L 227.522894 286.429331 
L 227.522894 272.660334 
L 230.200026 272.660334 
L 230.200026 269.906535 
L 232.877159 269.906535 
L 232.877159 254.760638 
L 235.554291 254.760638 
L 235.554291 252.351064 
L 238.231424 252.351064 
L 238.231424 242.024316 
L 240.908556 242.024316 
L 240.908556 222.74772 
L 243.585689 222.74772 
L 243.585689 222.059271 
L 246.262821 222.059271 
L 246.262821 209.322948 
L 248.939954 209.322948 
L 248.939954 203.471125 
L 251.617086 203.471125 
L 251.617086 203.1269 
L 254.294219 203.1269 
L 254.294219 202.782675 
L 256.971351 202.782675 
L 256.971351 201.06155 
L 259.648484 201.06155 
L 259.648484 185.227204 
L 262.325616 185.227204 
L 262.325616 196.930851 
L 265.002749 196.930851 
L 265.002749 209.322948 
L 267.679881 209.322948 
L 267.679881 207.257599 
L 270.357014 207.257599 
L 270.357014 212.420973 
L 275.711279 212.420973 
L 275.711279 227.566869 
L 278.388411 227.566869 
L 278.388411 223.43617 
L 281.065544 223.43617 
L 281.065544 231.353343 
L 283.742676 231.353343 
L 283.742676 222.74772 
L 286.419809 222.74772 
L 286.419809 236.516717 
L 289.096941 236.516717 
L 289.096941 239.270517 
L 291.774074 239.270517 
L 291.774074 241.335866 
L 294.451206 241.335866 
L 294.451206 239.614742 
L 297.128339 239.614742 
L 297.128339 240.303191 
L 299.805471 240.303191 
L 299.805471 248.908815 
L 302.482604 248.908815 
L 302.482604 266.464286 
L 305.159736 266.464286 
L 305.159736 263.710486 
L 307.836869 263.710486 
L 307.836869 254.072188 
L 310.514001 254.072188 
L 310.514001 274.381459 
L 313.191134 274.381459 
L 313.191134 276.102584 
L 315.868266 276.102584 
L 315.868266 288.150456 
L 318.545399 288.150456 
L 318.545399 290.56003 
L 321.222531 290.56003 
L 321.222531 285.740881 
L 323.899664 285.740881 
L 323.899664 300.542553 
L 329.253929 300.542553 
L 329.253929 298.821429 
L 331.931061 298.821429 
L 331.931061 304.329027 
L 334.608194 304.329027 
L 334.608194 305.017477 
L 337.285326 305.017477 
L 337.285326 308.459726 
L 339.962459 308.459726 
L 339.962459 309.492401 
L 342.639591 309.492401 
L 342.639591 311.901976 
L 345.316724 311.901976 
L 345.316724 309.148176 
L 347.993856 309.148176 
L 347.993856 310.869301 
L 350.670989 310.869301 
L 350.670989 311.557751 
L 353.348121 311.557751 
L 353.348121 312.246201 
L 356.025254 312.246201 
L 356.025254 311.557751 
L 358.702386 311.557751 
L 358.702386 311.213526 
L 361.379519 311.213526 
L 361.379519 313.278875 
L 364.056651 313.278875 
L 364.056651 310.869301 
L 366.733784 310.869301 
L 366.733784 314.31155 
L 369.410916 314.31155 
L 369.410916 315 
L 372.088049 315 
L 372.088049 314.31155 
L 374.765181 314.31155 
L 374.765181 313.6231 
L 377.442314 313.6231 
L 377.442314 315 
L 377.442314 315 
" style="fill:none;stroke:#ffc000;stroke-linejoin:miter;"/>
   </g>
   <g id="patch_7">
    <path clip-path="url(#pd522d62b32)" d="M 209.839972 315 
L 209.839972 314.655775 
L 211.648137 314.655775 
L 211.648137 315 
L 213.456303 315 
L 213.456303 313.6231 
L 215.264469 313.6231 
L 215.264469 313.967325 
L 217.072635 313.967325 
L 217.072635 312.93465 
L 218.8808 312.93465 
L 218.8808 311.213526 
L 220.688966 311.213526 
L 220.688966 312.246201 
L 222.497132 312.246201 
L 222.497132 310.869301 
L 224.305297 310.869301 
L 224.305297 310.525076 
L 226.113463 310.525076 
L 226.113463 309.148176 
L 229.729795 309.148176 
L 229.729795 304.673252 
L 231.53796 304.673252 
L 231.53796 304.329027 
L 233.346126 304.329027 
L 233.346126 301.575228 
L 235.154292 301.575228 
L 235.154292 294.690729 
L 236.962457 294.690729 
L 236.962457 293.658055 
L 238.770623 293.658055 
L 238.770623 288.150456 
L 240.578789 288.150456 
L 240.578789 278.512158 
L 242.386955 278.512158 
L 242.386955 276.102584 
L 244.19512 276.102584 
L 244.19512 265.431611 
L 246.003286 265.431611 
L 246.003286 257.858663 
L 247.811452 257.858663 
L 247.811452 261.989362 
L 249.619617 261.989362 
L 249.619617 242.712766 
L 251.427783 242.712766 
L 251.427783 240.303191 
L 253.235949 240.303191 
L 253.235949 237.205167 
L 255.044115 237.205167 
L 255.044115 216.895897 
L 256.85228 216.895897 
L 256.85228 221.370821 
L 258.660446 221.370821 
L 258.660446 203.471125 
L 260.468612 203.471125 
L 260.468612 196.586626 
L 262.276777 196.586626 
L 262.276777 184.194529 
L 264.084943 184.194529 
L 264.084943 193.144377 
L 265.893109 193.144377 
L 265.893109 187.636778 
L 267.701275 187.636778 
L 267.701275 199.340426 
L 269.50944 199.340426 
L 269.50944 197.619301 
L 271.317606 197.619301 
L 271.317606 205.192249 
L 273.125772 205.192249 
L 273.125772 216.551672 
L 274.933938 216.551672 
L 274.933938 221.370821 
L 276.742103 221.370821 
L 276.742103 238.926292 
L 278.550269 238.926292 
L 278.550269 222.059271 
L 280.358435 222.059271 
L 280.358435 244.433891 
L 282.1666 244.433891 
L 282.1666 238.237842 
L 283.974766 238.237842 
L 283.974766 243.056991 
L 285.782932 243.056991 
L 285.782932 243.745441 
L 287.591098 243.745441 
L 287.591098 244.778116 
L 289.399263 244.778116 
L 289.399263 252.351064 
L 291.207429 252.351064 
L 291.207429 265.775836 
L 293.015595 265.775836 
L 293.015595 260.268237 
L 294.82376 260.268237 
L 294.82376 278.512158 
L 296.631926 278.512158 
L 296.631926 272.660334 
L 298.440092 272.660334 
L 298.440092 276.446809 
L 300.248258 276.446809 
L 300.248258 282.987082 
L 302.056423 282.987082 
L 302.056423 280.233283 
L 303.864589 280.233283 
L 303.864589 286.085106 
L 305.672755 286.085106 
L 305.672755 292.62538 
L 307.48092 292.62538 
L 307.48092 290.904255 
L 309.289086 290.904255 
L 309.289086 298.477204 
L 311.097252 298.477204 
L 311.097252 296.067629 
L 312.905418 296.067629 
L 312.905418 299.854103 
L 314.713583 299.854103 
L 314.713583 305.705927 
L 316.521749 305.705927 
L 316.521749 306.394377 
L 318.329915 306.394377 
L 318.329915 303.640578 
L 320.13808 303.640578 
L 320.13808 307.427052 
L 321.946246 307.427052 
L 321.946246 310.525076 
L 323.754412 310.525076 
L 323.754412 309.836626 
L 325.562578 309.836626 
L 325.562578 310.180851 
L 327.370743 310.180851 
L 327.370743 312.590426 
L 329.178909 312.590426 
L 329.178909 309.148176 
L 330.987075 309.148176 
L 330.987075 310.869301 
L 332.79524 310.869301 
L 332.79524 311.557751 
L 334.603406 311.557751 
L 334.603406 312.590426 
L 336.411572 312.590426 
L 336.411572 313.967325 
L 338.219738 313.967325 
L 338.219738 312.93465 
L 340.027903 312.93465 
L 340.027903 314.31155 
L 343.644235 314.31155 
L 343.644235 313.967325 
L 345.4524 313.967325 
L 345.4524 315 
L 347.260566 315 
L 347.260566 314.31155 
L 349.068732 314.31155 
L 349.068732 314.655775 
L 352.685063 314.655775 
L 352.685063 315 
L 370.76672 315 
L 370.76672 314.655775 
L 372.574886 314.655775 
L 372.574886 315 
L 387.040212 315 
L 387.040212 314.655775 
L 390.656543 314.655775 
L 390.656543 315 
L 390.656543 315 
" style="fill:none;stroke:#4472c4;stroke-linejoin:miter;"/>
   </g>
   <g id="matplotlib.axis_1">
    <g id="xtick_1">
     <g id="line2d_1">
      <defs>
       <path d="M 0 0 
L 0 3.5 
" id="ma935b0991e" style="stroke:#000000;stroke-width:0.8;"/>
      </defs>
      <g>
       <use style="stroke:#000000;stroke-width:0.8;" x="65.796132" xlink:href="#ma935b0991e" y="315"/>
      </g>
     </g>
     <g id="text_1">
      <!-- −100 -->
      <defs>
       <path d="M 10.59375 35.5 
L 73.1875 35.5 
L 73.1875 27.203125 
L 10.59375 27.203125 
z
" id="DejaVuSans-8722"/>
       <path d="M 12.40625 8.296875 
L 28.515625 8.296875 
L 28.515625 63.921875 
L 10.984375 60.40625 
L 10.984375 69.390625 
L 28.421875 72.90625 
L 38.28125 72.90625 
L 38.28125 8.296875 
L 54.390625 8.296875 
L 54.390625 0 
L 12.40625 0 
z
" id="DejaVuSans-49"/>
       <path d="M 31.78125 66.40625 
Q 24.171875 66.40625 20.328125 58.90625 
Q 16.5 51.421875 16.5 36.375 
Q 16.5 21.390625 20.328125 13.890625 
Q 24.171875 6.390625 31.78125 6.390625 
Q 39.453125 6.390625 43.28125 13.890625 
Q 47.125 21.390625 47.125 36.375 
Q 47.125 51.421875 43.28125 58.90625 
Q 39.453125 66.40625 31.78125 66.40625 
z
M 31.78125 74.21875 
Q 44.046875 74.21875 50.515625 64.515625 
Q 56.984375 54.828125 56.984375 36.375 
Q 56.984375 17.96875 50.515625 8.265625 
Q 44.046875 -1.421875 31.78125 -1.421875 
Q 19.53125 -1.421875 13.0625 8.265625 
Q 6.59375 17.96875 6.59375 36.375 
Q 6.59375 54.828125 13.0625 64.515625 
Q 19.53125 74.21875 31.78125 74.21875 
z
" id="DejaVuSans-48"/>
      </defs>
      <g transform="translate(52.062538 329.598437)scale(0.1 -0.1)">
       <use xlink:href="#DejaVuSans-8722"/>
       <use x="83.789062" xlink:href="#DejaVuSans-49"/>
       <use x="147.412109" xlink:href="#DejaVuSans-48"/>
       <use x="211.035156" xlink:href="#DejaVuSans-48"/>
      </g>
     </g>
    </g>
    <g id="xtick_2">
     <g id="line2d_2">
      <g>
       <use style="stroke:#000000;stroke-width:0.8;" x="106.951412" xlink:href="#ma935b0991e" y="315"/>
      </g>
     </g>
     <g id="text_2">
      <!-- −80 -->
      <defs>
       <path d="M 31.78125 34.625 
Q 24.75 34.625 20.71875 30.859375 
Q 16.703125 27.09375 16.703125 20.515625 
Q 16.703125 13.921875 20.71875 10.15625 
Q 24.75 6.390625 31.78125 6.390625 
Q 38.8125 6.390625 42.859375 10.171875 
Q 46.921875 13.96875 46.921875 20.515625 
Q 46.921875 27.09375 42.890625 30.859375 
Q 38.875 34.625 31.78125 34.625 
z
M 21.921875 38.8125 
Q 15.578125 40.375 12.03125 44.71875 
Q 8.5 49.078125 8.5 55.328125 
Q 8.5 64.0625 14.71875 69.140625 
Q 20.953125 74.21875 31.78125 74.21875 
Q 42.671875 74.21875 48.875 69.140625 
Q 55.078125 64.0625 55.078125 55.328125 
Q 55.078125 49.078125 51.53125 44.71875 
Q 48 40.375 41.703125 38.8125 
Q 48.828125 37.15625 52.796875 32.3125 
Q 56.78125 27.484375 56.78125 20.515625 
Q 56.78125 9.90625 50.3125 4.234375 
Q 43.84375 -1.421875 31.78125 -1.421875 
Q 19.734375 -1.421875 13.25 4.234375 
Q 6.78125 9.90625 6.78125 20.515625 
Q 6.78125 27.484375 10.78125 32.3125 
Q 14.796875 37.15625 21.921875 38.8125 
z
M 18.3125 54.390625 
Q 18.3125 48.734375 21.84375 45.5625 
Q 25.390625 42.390625 31.78125 42.390625 
Q 38.140625 42.390625 41.71875 45.5625 
Q 45.3125 48.734375 45.3125 54.390625 
Q 45.3125 60.0625 41.71875 63.234375 
Q 38.140625 66.40625 31.78125 66.40625 
Q 25.390625 66.40625 21.84375 63.234375 
Q 18.3125 60.0625 18.3125 54.390625 
z
" id="DejaVuSans-56"/>
      </defs>
      <g transform="translate(96.399068 329.598437)scale(0.1 -0.1)">
       <use xlink:href="#DejaVuSans-8722"/>
       <use x="83.789062" xlink:href="#DejaVuSans-56"/>
       <use x="147.412109" xlink:href="#DejaVuSans-48"/>
      </g>
     </g>
    </g>
    <g id="xtick_3">
     <g id="line2d_3">
      <g>
       <use style="stroke:#000000;stroke-width:0.8;" x="148.106692" xlink:href="#ma935b0991e" y="315"/>
      </g>
     </g>
     <g id="text_3">
      <!-- −60 -->
      <defs>
       <path d="M 33.015625 40.375 
Q 26.375 40.375 22.484375 35.828125 
Q 18.609375 31.296875 18.609375 23.390625 
Q 18.609375 15.53125 22.484375 10.953125 
Q 26.375 6.390625 33.015625 6.390625 
Q 39.65625 6.390625 43.53125 10.953125 
Q 47.40625 15.53125 47.40625 23.390625 
Q 47.40625 31.296875 43.53125 35.828125 
Q 39.65625 40.375 33.015625 40.375 
z
M 52.59375 71.296875 
L 52.59375 62.3125 
Q 48.875 64.0625 45.09375 64.984375 
Q 41.3125 65.921875 37.59375 65.921875 
Q 27.828125 65.921875 22.671875 59.328125 
Q 17.53125 52.734375 16.796875 39.40625 
Q 19.671875 43.65625 24.015625 45.921875 
Q 28.375 48.1875 33.59375 48.1875 
Q 44.578125 48.1875 50.953125 41.515625 
Q 57.328125 34.859375 57.328125 23.390625 
Q 57.328125 12.15625 50.6875 5.359375 
Q 44.046875 -1.421875 33.015625 -1.421875 
Q 20.359375 -1.421875 13.671875 8.265625 
Q 6.984375 17.96875 6.984375 36.375 
Q 6.984375 53.65625 15.1875 63.9375 
Q 23.390625 74.21875 37.203125 74.21875 
Q 40.921875 74.21875 44.703125 73.484375 
Q 48.484375 72.75 52.59375 71.296875 
z
" id="DejaVuSans-54"/>
      </defs>
      <g transform="translate(137.554348 329.598437)scale(0.1 -0.1)">
       <use xlink:href="#DejaVuSans-8722"/>
       <use x="83.789062" xlink:href="#DejaVuSans-54"/>
       <use x="147.412109" xlink:href="#DejaVuSans-48"/>
      </g>
     </g>
    </g>
    <g id="xtick_4">
     <g id="line2d_4">
      <g>
       <use style="stroke:#000000;stroke-width:0.8;" x="189.261972" xlink:href="#ma935b0991e" y="315"/>
      </g>
     </g>
     <g id="text_4">
      <!-- −40 -->
      <defs>
       <path d="M 37.796875 64.3125 
L 12.890625 25.390625 
L 37.796875 25.390625 
z
M 35.203125 72.90625 
L 47.609375 72.90625 
L 47.609375 25.390625 
L 58.015625 25.390625 
L 58.015625 17.1875 
L 47.609375 17.1875 
L 47.609375 0 
L 37.796875 0 
L 37.796875 17.1875 
L 4.890625 17.1875 
L 4.890625 26.703125 
z
" id="DejaVuSans-52"/>
      </defs>
      <g transform="translate(178.709628 329.598437)scale(0.1 -0.1)">
       <use xlink:href="#DejaVuSans-8722"/>
       <use x="83.789062" xlink:href="#DejaVuSans-52"/>
       <use x="147.412109" xlink:href="#DejaVuSans-48"/>
      </g>
     </g>
    </g>
    <g id="xtick_5">
     <g id="line2d_5">
      <g>
       <use style="stroke:#000000;stroke-width:0.8;" x="230.417252" xlink:href="#ma935b0991e" y="315"/>
      </g>
     </g>
     <g id="text_5">
      <!-- −20 -->
      <defs>
       <path d="M 19.1875 8.296875 
L 53.609375 8.296875 
L 53.609375 0 
L 7.328125 0 
L 7.328125 8.296875 
Q 12.9375 14.109375 22.625 23.890625 
Q 32.328125 33.6875 34.8125 36.53125 
Q 39.546875 41.84375 41.421875 45.53125 
Q 43.3125 49.21875 43.3125 52.78125 
Q 43.3125 58.59375 39.234375 62.25 
Q 35.15625 65.921875 28.609375 65.921875 
Q 23.96875 65.921875 18.8125 64.3125 
Q 13.671875 62.703125 7.8125 59.421875 
L 7.8125 69.390625 
Q 13.765625 71.78125 18.9375 73 
Q 24.125 74.21875 28.421875 74.21875 
Q 39.75 74.21875 46.484375 68.546875 
Q 53.21875 62.890625 53.21875 53.421875 
Q 53.21875 48.921875 51.53125 44.890625 
Q 49.859375 40.875 45.40625 35.40625 
Q 44.1875 33.984375 37.640625 27.21875 
Q 31.109375 20.453125 19.1875 8.296875 
z
" id="DejaVuSans-50"/>
      </defs>
      <g transform="translate(219.864908 329.598437)scale(0.1 -0.1)">
       <use xlink:href="#DejaVuSans-8722"/>
       <use x="83.789062" xlink:href="#DejaVuSans-50"/>
       <use x="147.412109" xlink:href="#DejaVuSans-48"/>
      </g>
     </g>
    </g>
    <g id="xtick_6">
     <g id="line2d_6">
      <g>
       <use style="stroke:#000000;stroke-width:0.8;" x="271.572532" xlink:href="#ma935b0991e" y="315"/>
      </g>
     </g>
     <g id="text_6">
      <!-- 0 -->
      <g transform="translate(268.391282 329.598437)scale(0.1 -0.1)">
       <use xlink:href="#DejaVuSans-48"/>
      </g>
     </g>
    </g>
    <g id="xtick_7">
     <g id="line2d_7">
      <g>
       <use style="stroke:#000000;stroke-width:0.8;" x="312.727812" xlink:href="#ma935b0991e" y="315"/>
      </g>
     </g>
     <g id="text_7">
      <!-- 20 -->
      <g transform="translate(306.365312 329.598437)scale(0.1 -0.1)">
       <use xlink:href="#DejaVuSans-50"/>
       <use x="63.623047" xlink:href="#DejaVuSans-48"/>
      </g>
     </g>
    </g>
    <g id="xtick_8">
     <g id="line2d_8">
      <g>
       <use style="stroke:#000000;stroke-width:0.8;" x="353.883093" xlink:href="#ma935b0991e" y="315"/>
      </g>
     </g>
     <g id="text_8">
      <!-- 40 -->
      <g transform="translate(347.520593 329.598437)scale(0.1 -0.1)">
       <use xlink:href="#DejaVuSans-52"/>
       <use x="63.623047" xlink:href="#DejaVuSans-48"/>
      </g>
     </g>
    </g>
    <g id="xtick_9">
     <g id="line2d_9">
      <g>
       <use style="stroke:#000000;stroke-width:0.8;" x="395.038373" xlink:href="#ma935b0991e" y="315"/>
      </g>
     </g>
     <g id="text_9">
      <!-- 60 -->
      <g transform="translate(388.675873 329.598437)scale(0.1 -0.1)">
       <use xlink:href="#DejaVuSans-54"/>
       <use x="63.623047" xlink:href="#DejaVuSans-48"/>
      </g>
     </g>
    </g>
    <g id="text_10">
     <!-- Deviation simulated to historical price [€/MWh] -->
     <defs>
      <path d="M 19.671875 64.796875 
L 19.671875 8.109375 
L 31.59375 8.109375 
Q 46.6875 8.109375 53.6875 14.9375 
Q 60.6875 21.78125 60.6875 36.53125 
Q 60.6875 51.171875 53.6875 57.984375 
Q 46.6875 64.796875 31.59375 64.796875 
z
M 9.8125 72.90625 
L 30.078125 72.90625 
Q 51.265625 72.90625 61.171875 64.09375 
Q 71.09375 55.28125 71.09375 36.53125 
Q 71.09375 17.671875 61.125 8.828125 
Q 51.171875 0 30.078125 0 
L 9.8125 0 
z
" id="DejaVuSans-68"/>
      <path d="M 56.203125 29.59375 
L 56.203125 25.203125 
L 14.890625 25.203125 
Q 15.484375 15.921875 20.484375 11.0625 
Q 25.484375 6.203125 34.421875 6.203125 
Q 39.59375 6.203125 44.453125 7.46875 
Q 49.3125 8.734375 54.109375 11.28125 
L 54.109375 2.78125 
Q 49.265625 0.734375 44.1875 -0.34375 
Q 39.109375 -1.421875 33.890625 -1.421875 
Q 20.796875 -1.421875 13.15625 6.1875 
Q 5.515625 13.8125 5.515625 26.8125 
Q 5.515625 40.234375 12.765625 48.109375 
Q 20.015625 56 32.328125 56 
Q 43.359375 56 49.78125 48.890625 
Q 56.203125 41.796875 56.203125 29.59375 
z
M 47.21875 32.234375 
Q 47.125 39.59375 43.09375 43.984375 
Q 39.0625 48.390625 32.421875 48.390625 
Q 24.90625 48.390625 20.390625 44.140625 
Q 15.875 39.890625 15.1875 32.171875 
z
" id="DejaVuSans-101"/>
      <path d="M 2.984375 54.6875 
L 12.5 54.6875 
L 29.59375 8.796875 
L 46.6875 54.6875 
L 56.203125 54.6875 
L 35.6875 0 
L 23.484375 0 
z
" id="DejaVuSans-118"/>
      <path d="M 9.421875 54.6875 
L 18.40625 54.6875 
L 18.40625 0 
L 9.421875 0 
z
M 9.421875 75.984375 
L 18.40625 75.984375 
L 18.40625 64.59375 
L 9.421875 64.59375 
z
" id="DejaVuSans-105"/>
      <path d="M 34.28125 27.484375 
Q 23.390625 27.484375 19.1875 25 
Q 14.984375 22.515625 14.984375 16.5 
Q 14.984375 11.71875 18.140625 8.90625 
Q 21.296875 6.109375 26.703125 6.109375 
Q 34.1875 6.109375 38.703125 11.40625 
Q 43.21875 16.703125 43.21875 25.484375 
L 43.21875 27.484375 
z
M 52.203125 31.203125 
L 52.203125 0 
L 43.21875 0 
L 43.21875 8.296875 
Q 40.140625 3.328125 35.546875 0.953125 
Q 30.953125 -1.421875 24.3125 -1.421875 
Q 15.921875 -1.421875 10.953125 3.296875 
Q 6 8.015625 6 15.921875 
Q 6 25.140625 12.171875 29.828125 
Q 18.359375 34.515625 30.609375 34.515625 
L 43.21875 34.515625 
L 43.21875 35.40625 
Q 43.21875 41.609375 39.140625 45 
Q 35.0625 48.390625 27.6875 48.390625 
Q 23 48.390625 18.546875 47.265625 
Q 14.109375 46.140625 10.015625 43.890625 
L 10.015625 52.203125 
Q 14.9375 54.109375 19.578125 55.046875 
Q 24.21875 56 28.609375 56 
Q 40.484375 56 46.34375 49.84375 
Q 52.203125 43.703125 52.203125 31.203125 
z
" id="DejaVuSans-97"/>
      <path d="M 18.3125 70.21875 
L 18.3125 54.6875 
L 36.8125 54.6875 
L 36.8125 47.703125 
L 18.3125 47.703125 
L 18.3125 18.015625 
Q 18.3125 11.328125 20.140625 9.421875 
Q 21.96875 7.515625 27.59375 7.515625 
L 36.8125 7.515625 
L 36.8125 0 
L 27.59375 0 
Q 17.1875 0 13.234375 3.875 
Q 9.28125 7.765625 9.28125 18.015625 
L 9.28125 47.703125 
L 2.6875 47.703125 
L 2.6875 54.6875 
L 9.28125 54.6875 
L 9.28125 70.21875 
z
" id="DejaVuSans-116"/>
      <path d="M 30.609375 48.390625 
Q 23.390625 48.390625 19.1875 42.75 
Q 14.984375 37.109375 14.984375 27.296875 
Q 14.984375 17.484375 19.15625 11.84375 
Q 23.34375 6.203125 30.609375 6.203125 
Q 37.796875 6.203125 41.984375 11.859375 
Q 46.1875 17.53125 46.1875 27.296875 
Q 46.1875 37.015625 41.984375 42.703125 
Q 37.796875 48.390625 30.609375 48.390625 
z
M 30.609375 56 
Q 42.328125 56 49.015625 48.375 
Q 55.71875 40.765625 55.71875 27.296875 
Q 55.71875 13.875 49.015625 6.21875 
Q 42.328125 -1.421875 30.609375 -1.421875 
Q 18.84375 -1.421875 12.171875 6.21875 
Q 5.515625 13.875 5.515625 27.296875 
Q 5.515625 40.765625 12.171875 48.375 
Q 18.84375 56 30.609375 56 
z
" id="DejaVuSans-111"/>
      <path d="M 54.890625 33.015625 
L 54.890625 0 
L 45.90625 0 
L 45.90625 32.71875 
Q 45.90625 40.484375 42.875 44.328125 
Q 39.84375 48.1875 33.796875 48.1875 
Q 26.515625 48.1875 22.3125 43.546875 
Q 18.109375 38.921875 18.109375 30.90625 
L 18.109375 0 
L 9.078125 0 
L 9.078125 54.6875 
L 18.109375 54.6875 
L 18.109375 46.1875 
Q 21.34375 51.125 25.703125 53.5625 
Q 30.078125 56 35.796875 56 
Q 45.21875 56 50.046875 50.171875 
Q 54.890625 44.34375 54.890625 33.015625 
z
" id="DejaVuSans-110"/>
      <path id="DejaVuSans-32"/>
      <path d="M 44.28125 53.078125 
L 44.28125 44.578125 
Q 40.484375 46.53125 36.375 47.5 
Q 32.28125 48.484375 27.875 48.484375 
Q 21.1875 48.484375 17.84375 46.4375 
Q 14.5 44.390625 14.5 40.28125 
Q 14.5 37.15625 16.890625 35.375 
Q 19.28125 33.59375 26.515625 31.984375 
L 29.59375 31.296875 
Q 39.15625 29.25 43.1875 25.515625 
Q 47.21875 21.78125 47.21875 15.09375 
Q 47.21875 7.46875 41.1875 3.015625 
Q 35.15625 -1.421875 24.609375 -1.421875 
Q 20.21875 -1.421875 15.453125 -0.5625 
Q 10.6875 0.296875 5.421875 2 
L 5.421875 11.28125 
Q 10.40625 8.6875 15.234375 7.390625 
Q 20.0625 6.109375 24.8125 6.109375 
Q 31.15625 6.109375 34.5625 8.28125 
Q 37.984375 10.453125 37.984375 14.40625 
Q 37.984375 18.0625 35.515625 20.015625 
Q 33.0625 21.96875 24.703125 23.78125 
L 21.578125 24.515625 
Q 13.234375 26.265625 9.515625 29.90625 
Q 5.8125 33.546875 5.8125 39.890625 
Q 5.8125 47.609375 11.28125 51.796875 
Q 16.75 56 26.8125 56 
Q 31.78125 56 36.171875 55.265625 
Q 40.578125 54.546875 44.28125 53.078125 
z
" id="DejaVuSans-115"/>
      <path d="M 52 44.1875 
Q 55.375 50.25 60.0625 53.125 
Q 64.75 56 71.09375 56 
Q 79.640625 56 84.28125 50.015625 
Q 88.921875 44.046875 88.921875 33.015625 
L 88.921875 0 
L 79.890625 0 
L 79.890625 32.71875 
Q 79.890625 40.578125 77.09375 44.375 
Q 74.3125 48.1875 68.609375 48.1875 
Q 61.625 48.1875 57.5625 43.546875 
Q 53.515625 38.921875 53.515625 30.90625 
L 53.515625 0 
L 44.484375 0 
L 44.484375 32.71875 
Q 44.484375 40.625 41.703125 44.40625 
Q 38.921875 48.1875 33.109375 48.1875 
Q 26.21875 48.1875 22.15625 43.53125 
Q 18.109375 38.875 18.109375 30.90625 
L 18.109375 0 
L 9.078125 0 
L 9.078125 54.6875 
L 18.109375 54.6875 
L 18.109375 46.1875 
Q 21.1875 51.21875 25.484375 53.609375 
Q 29.78125 56 35.6875 56 
Q 41.65625 56 45.828125 52.96875 
Q 50 49.953125 52 44.1875 
z
" id="DejaVuSans-109"/>
      <path d="M 8.5 21.578125 
L 8.5 54.6875 
L 17.484375 54.6875 
L 17.484375 21.921875 
Q 17.484375 14.15625 20.5 10.265625 
Q 23.53125 6.390625 29.59375 6.390625 
Q 36.859375 6.390625 41.078125 11.03125 
Q 45.3125 15.671875 45.3125 23.6875 
L 45.3125 54.6875 
L 54.296875 54.6875 
L 54.296875 0 
L 45.3125 0 
L 45.3125 8.40625 
Q 42.046875 3.421875 37.71875 1 
Q 33.40625 -1.421875 27.6875 -1.421875 
Q 18.265625 -1.421875 13.375 4.4375 
Q 8.5 10.296875 8.5 21.578125 
z
M 31.109375 56 
z
" id="DejaVuSans-117"/>
      <path d="M 9.421875 75.984375 
L 18.40625 75.984375 
L 18.40625 0 
L 9.421875 0 
z
" id="DejaVuSans-108"/>
      <path d="M 45.40625 46.390625 
L 45.40625 75.984375 
L 54.390625 75.984375 
L 54.390625 0 
L 45.40625 0 
L 45.40625 8.203125 
Q 42.578125 3.328125 38.25 0.953125 
Q 33.9375 -1.421875 27.875 -1.421875 
Q 17.96875 -1.421875 11.734375 6.484375 
Q 5.515625 14.40625 5.515625 27.296875 
Q 5.515625 40.1875 11.734375 48.09375 
Q 17.96875 56 27.875 56 
Q 33.9375 56 38.25 53.625 
Q 42.578125 51.265625 45.40625 46.390625 
z
M 14.796875 27.296875 
Q 14.796875 17.390625 18.875 11.75 
Q 22.953125 6.109375 30.078125 6.109375 
Q 37.203125 6.109375 41.296875 11.75 
Q 45.40625 17.390625 45.40625 27.296875 
Q 45.40625 37.203125 41.296875 42.84375 
Q 37.203125 48.484375 30.078125 48.484375 
Q 22.953125 48.484375 18.875 42.84375 
Q 14.796875 37.203125 14.796875 27.296875 
z
" id="DejaVuSans-100"/>
      <path d="M 54.890625 33.015625 
L 54.890625 0 
L 45.90625 0 
L 45.90625 32.71875 
Q 45.90625 40.484375 42.875 44.328125 
Q 39.84375 48.1875 33.796875 48.1875 
Q 26.515625 48.1875 22.3125 43.546875 
Q 18.109375 38.921875 18.109375 30.90625 
L 18.109375 0 
L 9.078125 0 
L 9.078125 75.984375 
L 18.109375 75.984375 
L 18.109375 46.1875 
Q 21.34375 51.125 25.703125 53.5625 
Q 30.078125 56 35.796875 56 
Q 45.21875 56 50.046875 50.171875 
Q 54.890625 44.34375 54.890625 33.015625 
z
" id="DejaVuSans-104"/>
      <path d="M 41.109375 46.296875 
Q 39.59375 47.171875 37.8125 47.578125 
Q 36.03125 48 33.890625 48 
Q 26.265625 48 22.1875 43.046875 
Q 18.109375 38.09375 18.109375 28.8125 
L 18.109375 0 
L 9.078125 0 
L 9.078125 54.6875 
L 18.109375 54.6875 
L 18.109375 46.1875 
Q 20.953125 51.171875 25.484375 53.578125 
Q 30.03125 56 36.53125 56 
Q 37.453125 56 38.578125 55.875 
Q 39.703125 55.765625 41.0625 55.515625 
z
" id="DejaVuSans-114"/>
      <path d="M 48.78125 52.59375 
L 48.78125 44.1875 
Q 44.96875 46.296875 41.140625 47.34375 
Q 37.3125 48.390625 33.40625 48.390625 
Q 24.65625 48.390625 19.8125 42.84375 
Q 14.984375 37.3125 14.984375 27.296875 
Q 14.984375 17.28125 19.8125 11.734375 
Q 24.65625 6.203125 33.40625 6.203125 
Q 37.3125 6.203125 41.140625 7.25 
Q 44.96875 8.296875 48.78125 10.40625 
L 48.78125 2.09375 
Q 45.015625 0.34375 40.984375 -0.53125 
Q 36.96875 -1.421875 32.421875 -1.421875 
Q 20.0625 -1.421875 12.78125 6.34375 
Q 5.515625 14.109375 5.515625 27.296875 
Q 5.515625 40.671875 12.859375 48.328125 
Q 20.21875 56 33.015625 56 
Q 37.15625 56 41.109375 55.140625 
Q 45.0625 54.296875 48.78125 52.59375 
z
" id="DejaVuSans-99"/>
      <path d="M 18.109375 8.203125 
L 18.109375 -20.796875 
L 9.078125 -20.796875 
L 9.078125 54.6875 
L 18.109375 54.6875 
L 18.109375 46.390625 
Q 20.953125 51.265625 25.265625 53.625 
Q 29.59375 56 35.59375 56 
Q 45.5625 56 51.78125 48.09375 
Q 58.015625 40.1875 58.015625 27.296875 
Q 58.015625 14.40625 51.78125 6.484375 
Q 45.5625 -1.421875 35.59375 -1.421875 
Q 29.59375 -1.421875 25.265625 0.953125 
Q 20.953125 3.328125 18.109375 8.203125 
z
M 48.6875 27.296875 
Q 48.6875 37.203125 44.609375 42.84375 
Q 40.53125 48.484375 33.40625 48.484375 
Q 26.265625 48.484375 22.1875 42.84375 
Q 18.109375 37.203125 18.109375 27.296875 
Q 18.109375 17.390625 22.1875 11.75 
Q 26.265625 6.109375 33.40625 6.109375 
Q 40.53125 6.109375 44.609375 11.75 
Q 48.6875 17.390625 48.6875 27.296875 
z
" id="DejaVuSans-112"/>
      <path d="M 8.59375 75.984375 
L 29.296875 75.984375 
L 29.296875 69 
L 17.578125 69 
L 17.578125 -6.203125 
L 29.296875 -6.203125 
L 29.296875 -13.1875 
L 8.59375 -13.1875 
z
" id="DejaVuSans-91"/>
      <path d="M 56.984375 67.28125 
L 56.984375 56.890625 
Q 52.546875 62.015625 48.40625 64.203125 
Q 44.28125 66.40625 39.3125 66.40625 
Q 31.640625 66.40625 26.703125 61.515625 
Q 21.78125 56.640625 20.21875 47.515625 
L 48.390625 47.515625 
L 45.703125 41.5 
L 19.4375 41.5 
Q 19.34375 40.328125 19.3125 39.203125 
Q 19.28125 38.09375 19.28125 36.375 
Q 19.28125 34.8125 19.3125 33.6875 
Q 19.34375 32.5625 19.4375 31.390625 
L 41.21875 31.390625 
L 38.484375 25.390625 
L 20.21875 25.390625 
Q 21.78125 16.265625 26.703125 11.328125 
Q 31.640625 6.390625 39.3125 6.390625 
Q 44.28125 6.390625 48.40625 8.59375 
Q 52.546875 10.796875 56.984375 15.921875 
L 56.984375 5.609375 
Q 52.640625 2.09375 48.125 0.328125 
Q 43.609375 -1.421875 38.921875 -1.421875 
Q 27.34375 -1.421875 19.796875 5.65625 
Q 12.25 12.75 10.296875 25.390625 
L 0 25.390625 
L 2.6875 31.390625 
L 9.46875 31.390625 
Q 9.46875 32.515625 9.4375 33.65625 
Q 9.421875 34.8125 9.421875 36.375 
Q 9.421875 38.09375 9.4375 39.234375 
Q 9.46875 40.375 9.46875 41.5 
L 0 41.5 
L 2.6875 47.515625 
L 10.296875 47.515625 
Q 12.25 60.0625 19.8125 67.140625 
Q 27.390625 74.21875 38.921875 74.21875 
Q 43.703125 74.21875 48.21875 72.484375 
Q 52.734375 70.75 56.984375 67.28125 
z
" id="DejaVuSans-8364"/>
      <path d="M 25.390625 72.90625 
L 33.6875 72.90625 
L 8.296875 -9.28125 
L 0 -9.28125 
z
" id="DejaVuSans-47"/>
      <path d="M 9.8125 72.90625 
L 24.515625 72.90625 
L 43.109375 23.296875 
L 61.8125 72.90625 
L 76.515625 72.90625 
L 76.515625 0 
L 66.890625 0 
L 66.890625 64.015625 
L 48.09375 14.015625 
L 38.1875 14.015625 
L 19.390625 64.015625 
L 19.390625 0 
L 9.8125 0 
z
" id="DejaVuSans-77"/>
      <path d="M 3.328125 72.90625 
L 13.28125 72.90625 
L 28.609375 11.28125 
L 43.890625 72.90625 
L 54.984375 72.90625 
L 70.3125 11.28125 
L 85.59375 72.90625 
L 95.609375 72.90625 
L 77.296875 0 
L 64.890625 0 
L 49.515625 63.28125 
L 33.984375 0 
L 21.578125 0 
z
" id="DejaVuSans-87"/>
      <path d="M 30.421875 75.984375 
L 30.421875 -13.1875 
L 9.71875 -13.1875 
L 9.71875 -6.203125 
L 21.390625 -6.203125 
L 21.390625 69 
L 9.71875 69 
L 9.71875 75.984375 
z
" id="DejaVuSans-93"/>
     </defs>
     <g transform="translate(121.804687 343.276563)scale(0.1 -0.1)">
      <use xlink:href="#DejaVuSans-68"/>
      <use x="77.001953" xlink:href="#DejaVuSans-101"/>
      <use x="138.525391" xlink:href="#DejaVuSans-118"/>
      <use x="197.705078" xlink:href="#DejaVuSans-105"/>
      <use x="225.488281" xlink:href="#DejaVuSans-97"/>
      <use x="286.767578" xlink:href="#DejaVuSans-116"/>
      <use x="325.976562" xlink:href="#DejaVuSans-105"/>
      <use x="353.759766" xlink:href="#DejaVuSans-111"/>
      <use x="414.941406" xlink:href="#DejaVuSans-110"/>
      <use x="478.320312" xlink:href="#DejaVuSans-32"/>
      <use x="510.107422" xlink:href="#DejaVuSans-115"/>
      <use x="562.207031" xlink:href="#DejaVuSans-105"/>
      <use x="589.990234" xlink:href="#DejaVuSans-109"/>
      <use x="687.402344" xlink:href="#DejaVuSans-117"/>
      <use x="750.78125" xlink:href="#DejaVuSans-108"/>
      <use x="778.564453" xlink:href="#DejaVuSans-97"/>
      <use x="839.84375" xlink:href="#DejaVuSans-116"/>
      <use x="879.052734" xlink:href="#DejaVuSans-101"/>
      <use x="940.576172" xlink:href="#DejaVuSans-100"/>
      <use x="1004.052734" xlink:href="#DejaVuSans-32"/>
      <use x="1035.839844" xlink:href="#DejaVuSans-116"/>
      <use x="1075.048828" xlink:href="#DejaVuSans-111"/>
      <use x="1136.230469" xlink:href="#DejaVuSans-32"/>
      <use x="1168.017578" xlink:href="#DejaVuSans-104"/>
      <use x="1231.396484" xlink:href="#DejaVuSans-105"/>
      <use x="1259.179688" xlink:href="#DejaVuSans-115"/>
      <use x="1311.279297" xlink:href="#DejaVuSans-116"/>
      <use x="1350.488281" xlink:href="#DejaVuSans-111"/>
      <use x="1411.669922" xlink:href="#DejaVuSans-114"/>
      <use x="1452.783203" xlink:href="#DejaVuSans-105"/>
      <use x="1480.566406" xlink:href="#DejaVuSans-99"/>
      <use x="1535.546875" xlink:href="#DejaVuSans-97"/>
      <use x="1596.826172" xlink:href="#DejaVuSans-108"/>
      <use x="1624.609375" xlink:href="#DejaVuSans-32"/>
      <use x="1656.396484" xlink:href="#DejaVuSans-112"/>
      <use x="1719.873047" xlink:href="#DejaVuSans-114"/>
      <use x="1760.986328" xlink:href="#DejaVuSans-105"/>
      <use x="1788.769531" xlink:href="#DejaVuSans-99"/>
      <use x="1843.75" xlink:href="#DejaVuSans-101"/>
      <use x="1905.273438" xlink:href="#DejaVuSans-32"/>
      <use x="1937.060547" xlink:href="#DejaVuSans-91"/>
      <use x="1976.074219" xlink:href="#DejaVuSans-8364"/>
      <use x="2039.697266" xlink:href="#DejaVuSans-47"/>
      <use x="2073.388672" xlink:href="#DejaVuSans-77"/>
      <use x="2159.667969" xlink:href="#DejaVuSans-87"/>
      <use x="2258.544922" xlink:href="#DejaVuSans-104"/>
      <use x="2321.923828" xlink:href="#DejaVuSans-93"/>
     </g>
    </g>
   </g>
   <g id="matplotlib.axis_2">
    <g id="ytick_1">
     <g id="line2d_10">
      <defs>
       <path d="M 0 0 
L -3.5 0 
" id="mae754e742f" style="stroke:#000000;stroke-width:0.8;"/>
      </defs>
      <g>
       <use style="stroke:#000000;stroke-width:0.8;" x="58.5" xlink:href="#mae754e742f" y="315"/>
      </g>
     </g>
     <g id="text_11">
      <!-- 0 -->
      <g transform="translate(45.1375 318.799219)scale(0.1 -0.1)">
       <use xlink:href="#DejaVuSans-48"/>
      </g>
     </g>
    </g>
    <g id="ytick_2">
     <g id="line2d_11">
      <g>
       <use style="stroke:#000000;stroke-width:0.8;" x="58.5" xlink:href="#mae754e742f" y="280.577508"/>
      </g>
     </g>
     <g id="text_12">
      <!-- 100 -->
      <g transform="translate(32.4125 284.376726)scale(0.1 -0.1)">
       <use xlink:href="#DejaVuSans-49"/>
       <use x="63.623047" xlink:href="#DejaVuSans-48"/>
       <use x="127.246094" xlink:href="#DejaVuSans-48"/>
      </g>
     </g>
    </g>
    <g id="ytick_3">
     <g id="line2d_12">
      <g>
       <use style="stroke:#000000;stroke-width:0.8;" x="58.5" xlink:href="#mae754e742f" y="246.155015"/>
      </g>
     </g>
     <g id="text_13">
      <!-- 200 -->
      <g transform="translate(32.4125 249.954234)scale(0.1 -0.1)">
       <use xlink:href="#DejaVuSans-50"/>
       <use x="63.623047" xlink:href="#DejaVuSans-48"/>
       <use x="127.246094" xlink:href="#DejaVuSans-48"/>
      </g>
     </g>
    </g>
    <g id="ytick_4">
     <g id="line2d_13">
      <g>
       <use style="stroke:#000000;stroke-width:0.8;" x="58.5" xlink:href="#mae754e742f" y="211.732523"/>
      </g>
     </g>
     <g id="text_14">
      <!-- 300 -->
      <defs>
       <path d="M 40.578125 39.3125 
Q 47.65625 37.796875 51.625 33 
Q 55.609375 28.21875 55.609375 21.1875 
Q 55.609375 10.40625 48.1875 4.484375 
Q 40.765625 -1.421875 27.09375 -1.421875 
Q 22.515625 -1.421875 17.65625 -0.515625 
Q 12.796875 0.390625 7.625 2.203125 
L 7.625 11.71875 
Q 11.71875 9.328125 16.59375 8.109375 
Q 21.484375 6.890625 26.8125 6.890625 
Q 36.078125 6.890625 40.9375 10.546875 
Q 45.796875 14.203125 45.796875 21.1875 
Q 45.796875 27.640625 41.28125 31.265625 
Q 36.765625 34.90625 28.71875 34.90625 
L 20.21875 34.90625 
L 20.21875 43.015625 
L 29.109375 43.015625 
Q 36.375 43.015625 40.234375 45.921875 
Q 44.09375 48.828125 44.09375 54.296875 
Q 44.09375 59.90625 40.109375 62.90625 
Q 36.140625 65.921875 28.71875 65.921875 
Q 24.65625 65.921875 20.015625 65.03125 
Q 15.375 64.15625 9.8125 62.3125 
L 9.8125 71.09375 
Q 15.4375 72.65625 20.34375 73.4375 
Q 25.25 74.21875 29.59375 74.21875 
Q 40.828125 74.21875 47.359375 69.109375 
Q 53.90625 64.015625 53.90625 55.328125 
Q 53.90625 49.265625 50.4375 45.09375 
Q 46.96875 40.921875 40.578125 39.3125 
z
" id="DejaVuSans-51"/>
      </defs>
      <g transform="translate(32.4125 215.531742)scale(0.1 -0.1)">
       <use xlink:href="#DejaVuSans-51"/>
       <use x="63.623047" xlink:href="#DejaVuSans-48"/>
       <use x="127.246094" xlink:href="#DejaVuSans-48"/>
      </g>
     </g>
    </g>
    <g id="ytick_5">
     <g id="line2d_14">
      <g>
       <use style="stroke:#000000;stroke-width:0.8;" x="58.5" xlink:href="#mae754e742f" y="177.31003"/>
      </g>
     </g>
     <g id="text_15">
      <!-- 400 -->
      <g transform="translate(32.4125 181.109249)scale(0.1 -0.1)">
       <use xlink:href="#DejaVuSans-52"/>
       <use x="63.623047" xlink:href="#DejaVuSans-48"/>
       <use x="127.246094" xlink:href="#DejaVuSans-48"/>
      </g>
     </g>
    </g>
    <g id="ytick_6">
     <g id="line2d_15">
      <g>
       <use style="stroke:#000000;stroke-width:0.8;" x="58.5" xlink:href="#mae754e742f" y="142.887538"/>
      </g>
     </g>
     <g id="text_16">
      <!-- 500 -->
      <defs>
       <path d="M 10.796875 72.90625 
L 49.515625 72.90625 
L 49.515625 64.59375 
L 19.828125 64.59375 
L 19.828125 46.734375 
Q 21.96875 47.46875 24.109375 47.828125 
Q 26.265625 48.1875 28.421875 48.1875 
Q 40.625 48.1875 47.75 41.5 
Q 54.890625 34.8125 54.890625 23.390625 
Q 54.890625 11.625 47.5625 5.09375 
Q 40.234375 -1.421875 26.90625 -1.421875 
Q 22.3125 -1.421875 17.546875 -0.640625 
Q 12.796875 0.140625 7.71875 1.703125 
L 7.71875 11.625 
Q 12.109375 9.234375 16.796875 8.0625 
Q 21.484375 6.890625 26.703125 6.890625 
Q 35.15625 6.890625 40.078125 11.328125 
Q 45.015625 15.765625 45.015625 23.390625 
Q 45.015625 31 40.078125 35.4375 
Q 35.15625 39.890625 26.703125 39.890625 
Q 22.75 39.890625 18.8125 39.015625 
Q 14.890625 38.140625 10.796875 36.28125 
z
" id="DejaVuSans-53"/>
      </defs>
      <g transform="translate(32.4125 146.686757)scale(0.1 -0.1)">
       <use xlink:href="#DejaVuSans-53"/>
       <use x="63.623047" xlink:href="#DejaVuSans-48"/>
       <use x="127.246094" xlink:href="#DejaVuSans-48"/>
      </g>
     </g>
    </g>
    <g id="ytick_7">
     <g id="line2d_16">
      <g>
       <use style="stroke:#000000;stroke-width:0.8;" x="58.5" xlink:href="#mae754e742f" y="108.465046"/>
      </g>
     </g>
     <g id="text_17">
      <!-- 600 -->
      <g transform="translate(32.4125 112.264264)scale(0.1 -0.1)">
       <use xlink:href="#DejaVuSans-54"/>
       <use x="63.623047" xlink:href="#DejaVuSans-48"/>
       <use x="127.246094" xlink:href="#DejaVuSans-48"/>
      </g>
     </g>
    </g>
    <g id="ytick_8">
     <g id="line2d_17">
      <g>
       <use style="stroke:#000000;stroke-width:0.8;" x="58.5" xlink:href="#mae754e742f" y="74.042553"/>
      </g>
     </g>
     <g id="text_18">
      <!-- 700 -->
      <defs>
       <path d="M 8.203125 72.90625 
L 55.078125 72.90625 
L 55.078125 68.703125 
L 28.609375 0 
L 18.3125 0 
L 43.21875 64.59375 
L 8.203125 64.59375 
z
" id="DejaVuSans-55"/>
      </defs>
      <g transform="translate(32.4125 77.841772)scale(0.1 -0.1)">
       <use xlink:href="#DejaVuSans-55"/>
       <use x="63.623047" xlink:href="#DejaVuSans-48"/>
       <use x="127.246094" xlink:href="#DejaVuSans-48"/>
      </g>
     </g>
    </g>
    <g id="text_19">
     <!-- Absolute frequency [number of hours in a year] -->
     <defs>
      <path d="M 34.1875 63.1875 
L 20.796875 26.90625 
L 47.609375 26.90625 
z
M 28.609375 72.90625 
L 39.796875 72.90625 
L 67.578125 0 
L 57.328125 0 
L 50.6875 18.703125 
L 17.828125 18.703125 
L 11.1875 0 
L 0.78125 0 
z
" id="DejaVuSans-65"/>
      <path d="M 48.6875 27.296875 
Q 48.6875 37.203125 44.609375 42.84375 
Q 40.53125 48.484375 33.40625 48.484375 
Q 26.265625 48.484375 22.1875 42.84375 
Q 18.109375 37.203125 18.109375 27.296875 
Q 18.109375 17.390625 22.1875 11.75 
Q 26.265625 6.109375 33.40625 6.109375 
Q 40.53125 6.109375 44.609375 11.75 
Q 48.6875 17.390625 48.6875 27.296875 
z
M 18.109375 46.390625 
Q 20.953125 51.265625 25.265625 53.625 
Q 29.59375 56 35.59375 56 
Q 45.5625 56 51.78125 48.09375 
Q 58.015625 40.1875 58.015625 27.296875 
Q 58.015625 14.40625 51.78125 6.484375 
Q 45.5625 -1.421875 35.59375 -1.421875 
Q 29.59375 -1.421875 25.265625 0.953125 
Q 20.953125 3.328125 18.109375 8.203125 
L 18.109375 0 
L 9.078125 0 
L 9.078125 75.984375 
L 18.109375 75.984375 
z
" id="DejaVuSans-98"/>
      <path d="M 37.109375 75.984375 
L 37.109375 68.5 
L 28.515625 68.5 
Q 23.6875 68.5 21.796875 66.546875 
Q 19.921875 64.59375 19.921875 59.515625 
L 19.921875 54.6875 
L 34.71875 54.6875 
L 34.71875 47.703125 
L 19.921875 47.703125 
L 19.921875 0 
L 10.890625 0 
L 10.890625 47.703125 
L 2.296875 47.703125 
L 2.296875 54.6875 
L 10.890625 54.6875 
L 10.890625 58.5 
Q 10.890625 67.625 15.140625 71.796875 
Q 19.390625 75.984375 28.609375 75.984375 
z
" id="DejaVuSans-102"/>
      <path d="M 14.796875 27.296875 
Q 14.796875 17.390625 18.875 11.75 
Q 22.953125 6.109375 30.078125 6.109375 
Q 37.203125 6.109375 41.296875 11.75 
Q 45.40625 17.390625 45.40625 27.296875 
Q 45.40625 37.203125 41.296875 42.84375 
Q 37.203125 48.484375 30.078125 48.484375 
Q 22.953125 48.484375 18.875 42.84375 
Q 14.796875 37.203125 14.796875 27.296875 
z
M 45.40625 8.203125 
Q 42.578125 3.328125 38.25 0.953125 
Q 33.9375 -1.421875 27.875 -1.421875 
Q 17.96875 -1.421875 11.734375 6.484375 
Q 5.515625 14.40625 5.515625 27.296875 
Q 5.515625 40.1875 11.734375 48.09375 
Q 17.96875 56 27.875 56 
Q 33.9375 56 38.25 53.625 
Q 42.578125 51.265625 45.40625 46.390625 
L 45.40625 54.6875 
L 54.390625 54.6875 
L 54.390625 -20.796875 
L 45.40625 -20.796875 
z
" id="DejaVuSans-113"/>
      <path d="M 32.171875 -5.078125 
Q 28.375 -14.84375 24.75 -17.8125 
Q 21.140625 -20.796875 15.09375 -20.796875 
L 7.90625 -20.796875 
L 7.90625 -13.28125 
L 13.1875 -13.28125 
Q 16.890625 -13.28125 18.9375 -11.515625 
Q 21 -9.765625 23.484375 -3.21875 
L 25.09375 0.875 
L 2.984375 54.6875 
L 12.5 54.6875 
L 29.59375 11.921875 
L 46.6875 54.6875 
L 56.203125 54.6875 
z
" id="DejaVuSans-121"/>
     </defs>
     <g transform="translate(26.332812 298.333594)rotate(-90)scale(0.1 -0.1)">
      <use xlink:href="#DejaVuSans-65"/>
      <use x="68.408203" xlink:href="#DejaVuSans-98"/>
      <use x="131.884766" xlink:href="#DejaVuSans-115"/>
      <use x="183.984375" xlink:href="#DejaVuSans-111"/>
      <use x="245.166016" xlink:href="#DejaVuSans-108"/>
      <use x="272.949219" xlink:href="#DejaVuSans-117"/>
      <use x="336.328125" xlink:href="#DejaVuSans-116"/>
      <use x="375.537109" xlink:href="#DejaVuSans-101"/>
      <use x="437.060547" xlink:href="#DejaVuSans-32"/>
      <use x="468.847656" xlink:href="#DejaVuSans-102"/>
      <use x="504.052734" xlink:href="#DejaVuSans-114"/>
      <use x="545.134766" xlink:href="#DejaVuSans-101"/>
      <use x="606.658203" xlink:href="#DejaVuSans-113"/>
      <use x="670.134766" xlink:href="#DejaVuSans-117"/>
      <use x="733.513672" xlink:href="#DejaVuSans-101"/>
      <use x="795.037109" xlink:href="#DejaVuSans-110"/>
      <use x="858.416016" xlink:href="#DejaVuSans-99"/>
      <use x="913.396484" xlink:href="#DejaVuSans-121"/>
      <use x="972.576172" xlink:href="#DejaVuSans-32"/>
      <use x="1004.363281" xlink:href="#DejaVuSans-91"/>
      <use x="1043.376953" xlink:href="#DejaVuSans-110"/>
      <use x="1106.755859" xlink:href="#DejaVuSans-117"/>
      <use x="1170.134766" xlink:href="#DejaVuSans-109"/>
      <use x="1267.546875" xlink:href="#DejaVuSans-98"/>
      <use x="1331.023438" xlink:href="#DejaVuSans-101"/>
      <use x="1392.546875" xlink:href="#DejaVuSans-114"/>
      <use x="1433.660156" xlink:href="#DejaVuSans-32"/>
      <use x="1465.447266" xlink:href="#DejaVuSans-111"/>
      <use x="1526.628906" xlink:href="#DejaVuSans-102"/>
      <use x="1561.833984" xlink:href="#DejaVuSans-32"/>
      <use x="1593.621094" xlink:href="#DejaVuSans-104"/>
      <use x="1657" xlink:href="#DejaVuSans-111"/>
      <use x="1718.181641" xlink:href="#DejaVuSans-117"/>
      <use x="1781.560547" xlink:href="#DejaVuSans-114"/>
      <use x="1822.673828" xlink:href="#DejaVuSans-115"/>
      <use x="1874.773438" xlink:href="#DejaVuSans-32"/>
      <use x="1906.560547" xlink:href="#DejaVuSans-105"/>
      <use x="1934.34375" xlink:href="#DejaVuSans-110"/>
      <use x="1997.722656" xlink:href="#DejaVuSans-32"/>
      <use x="2029.509766" xlink:href="#DejaVuSans-97"/>
      <use x="2090.789062" xlink:href="#DejaVuSans-32"/>
      <use x="2122.576172" xlink:href="#DejaVuSans-121"/>
      <use x="2181.755859" xlink:href="#DejaVuSans-101"/>
      <use x="2243.279297" xlink:href="#DejaVuSans-97"/>
      <use x="2304.558594" xlink:href="#DejaVuSans-114"/>
      <use x="2345.671875" xlink:href="#DejaVuSans-93"/>
     </g>
    </g>
   </g>
   <g id="patch_8">
    <path d="M 58.5 315 
L 58.5 43.2 
" style="fill:none;stroke:#000000;stroke-linecap:square;stroke-linejoin:miter;stroke-width:0.8;"/>
   </g>
   <g id="patch_9">
    <path d="M 421.2 315 
L 421.2 43.2 
" style="fill:none;stroke:#000000;stroke-linecap:square;stroke-linejoin:miter;stroke-width:0.8;"/>
   </g>
   <g id="patch_10">
    <path d="M 58.5 315 
L 421.2 315 
" style="fill:none;stroke:#000000;stroke-linecap:square;stroke-linejoin:miter;stroke-width:0.8;"/>
   </g>
   <g id="patch_11">
    <path d="M 58.5 43.2 
L 421.2 43.2 
" style="fill:none;stroke:#000000;stroke-linecap:square;stroke-linejoin:miter;stroke-width:0.8;"/>
   </g>
   <g id="legend_1">
    <g id="patch_12">
     <path d="M 356.75 124.590625 
L 414.2 124.590625 
Q 416.2 124.590625 416.2 122.590625 
L 416.2 50.2 
Q 416.2 48.2 414.2 48.2 
L 356.75 48.2 
Q 354.75 48.2 354.75 50.2 
L 354.75 122.590625 
Q 354.75 124.590625 356.75 124.590625 
z
" style="fill:#ffffff;opacity:0.8;stroke:#cccccc;stroke-linejoin:miter;"/>
    </g>
    <g id="patch_13">
     <path d="M 358.75 59.798437 
L 378.75 59.798437 
L 378.75 52.798437 
L 358.75 52.798437 
z
" style="fill:none;stroke:#5b9bd5;stroke-linejoin:miter;"/>
    </g>
    <g id="text_20">
     <!-- 2015 -->
     <g transform="translate(386.75 59.798437)scale(0.1 -0.1)">
      <use xlink:href="#DejaVuSans-50"/>
      <use x="63.623047" xlink:href="#DejaVuSans-48"/>
      <use x="127.246094" xlink:href="#DejaVuSans-49"/>
      <use x="190.869141" xlink:href="#DejaVuSans-53"/>
     </g>
    </g>
    <g id="patch_14">
     <path d="M 358.75 74.476562 
L 378.75 74.476562 
L 378.75 67.476562 
L 358.75 67.476562 
z
" style="fill:none;stroke:#ed7d31;stroke-linejoin:miter;"/>
    </g>
    <g id="text_21">
     <!-- 2016 -->
     <g transform="translate(386.75 74.476562)scale(0.1 -0.1)">
      <use xlink:href="#DejaVuSans-50"/>
      <use x="63.623047" xlink:href="#DejaVuSans-48"/>
      <use x="127.246094" xlink:href="#DejaVuSans-49"/>
      <use x="190.869141" xlink:href="#DejaVuSans-54"/>
     </g>
    </g>
    <g id="patch_15">
     <path d="M 358.75 89.154687 
L 378.75 89.154687 
L 378.75 82.154687 
L 358.75 82.154687 
z
" style="fill:none;stroke:#a5a5a5;stroke-linejoin:miter;"/>
    </g>
    <g id="text_22">
     <!-- 2017 -->
     <g transform="translate(386.75 89.154687)scale(0.1 -0.1)">
      <use xlink:href="#DejaVuSans-50"/>
      <use x="63.623047" xlink:href="#DejaVuSans-48"/>
      <use x="127.246094" xlink:href="#DejaVuSans-49"/>
      <use x="190.869141" xlink:href="#DejaVuSans-55"/>
     </g>
    </g>
    <g id="patch_16">
     <path d="M 358.75 103.832812 
L 378.75 103.832812 
L 378.75 96.832812 
L 358.75 96.832812 
z
" style="fill:none;stroke:#ffc000;stroke-linejoin:miter;"/>
    </g>
    <g id="text_23">
     <!-- 2018 -->
     <g transform="translate(386.75 103.832812)scale(0.1 -0.1)">
      <use xlink:href="#DejaVuSans-50"/>
      <use x="63.623047" xlink:href="#DejaVuSans-48"/>
      <use x="127.246094" xlink:href="#DejaVuSans-49"/>
      <use x="190.869141" xlink:href="#DejaVuSans-56"/>
     </g>
    </g>
    <g id="patch_17">
     <path d="M 358.75 118.510937 
L 378.75 118.510937 
L 378.75 111.510937 
L 358.75 111.510937 
z
" style="fill:none;stroke:#4472c4;stroke-linejoin:miter;"/>
    </g>
    <g id="text_24">
     <!-- 2019 -->
     <defs>
      <path d="M 10.984375 1.515625 
L 10.984375 10.5 
Q 14.703125 8.734375 18.5 7.8125 
Q 22.3125 6.890625 25.984375 6.890625 
Q 35.75 6.890625 40.890625 13.453125 
Q 46.046875 20.015625 46.78125 33.40625 
Q 43.953125 29.203125 39.59375 26.953125 
Q 35.25 24.703125 29.984375 24.703125 
Q 19.046875 24.703125 12.671875 31.3125 
Q 6.296875 37.9375 6.296875 49.421875 
Q 6.296875 60.640625 12.9375 67.421875 
Q 19.578125 74.21875 30.609375 74.21875 
Q 43.265625 74.21875 49.921875 64.515625 
Q 56.59375 54.828125 56.59375 36.375 
Q 56.59375 19.140625 48.40625 8.859375 
Q 40.234375 -1.421875 26.421875 -1.421875 
Q 22.703125 -1.421875 18.890625 -0.6875 
Q 15.09375 0.046875 10.984375 1.515625 
z
M 30.609375 32.421875 
Q 37.25 32.421875 41.125 36.953125 
Q 45.015625 41.5 45.015625 49.421875 
Q 45.015625 57.28125 41.125 61.84375 
Q 37.25 66.40625 30.609375 66.40625 
Q 23.96875 66.40625 20.09375 61.84375 
Q 16.21875 57.28125 16.21875 49.421875 
Q 16.21875 41.5 20.09375 36.953125 
Q 23.96875 32.421875 30.609375 32.421875 
z
" id="DejaVuSans-57"/>
     </defs>
     <g transform="translate(386.75 118.510937)scale(0.1 -0.1)">
      <use xlink:href="#DejaVuSans-50"/>
      <use x="63.623047" xlink:href="#DejaVuSans-48"/>
      <use x="127.246094" xlink:href="#DejaVuSans-49"/>
      <use x="190.869141" xlink:href="#DejaVuSans-57"/>
     </g>
    </g>
   </g>
  </g>
 </g>
 <defs>
  <clipPath id="pd522d62b32">
   <rect height="271.8" width="362.7" x="58.5" y="43.2"/>
  </clipPath>
 </defs>
</svg>
