<?xml version="1.0" encoding="utf-8" standalone="no"?>
<!DOCTYPE svg PUBLIC "-//W3C//DTD SVG 1.1//EN"
  "http://www.w3.org/Graphics/SVG/1.1/DTD/svg11.dtd">
<!-- Created with matplotlib (https://matplotlib.org/) -->
<svg height="468pt" version="1.1" viewBox="0 0 468 468" width="468pt" xmlns="http://www.w3.org/2000/svg" xmlns:xlink="http://www.w3.org/1999/xlink">
 <defs>
  <style type="text/css">
*{stroke-linecap:butt;stroke-linejoin:round;}
  </style>
 </defs>
 <g id="figure_1">
  <g id="patch_1">
   <path d="M 0 468 
L 468 468 
L 468 0 
L 0 0 
z
" style="fill:#ffffff;"/>
  </g>
  <g id="axes_1">
   <g id="patch_2">
    <path d="M 58.5 216.769091 
L 223.363636 216.769091 
L 223.363636 56.16 
L 58.5 56.16 
z
" style="fill:#ffffff;"/>
   </g>
   <g id="PolyCollection_1">
    <defs>
     <path d="M 58.5 -251.230909 
L 58.5 -251.230909 
L 65.094545 -251.230909 
L 71.689091 -251.230909 
L 78.283636 -251.230909 
L 84.878182 -253.837996 
L 91.472727 -257.313175 
L 98.067273 -257.790184 
L 104.661818 -259.122437 
L 111.256364 -259.991733 
L 117.850909 -263.640371 
L 124.445455 -263.935891 
L 131.04 -265.797351 
L 137.634545 -267.984846 
L 144.229091 -268.393597 
L 150.823636 -271.788873 
L 157.418182 -274.052658 
L 164.012727 -276.280306 
L 170.607273 -280.232896 
L 177.201818 -282.755261 
L 183.796364 -286.84718 
L 190.390909 -293.626891 
L 196.985455 -295.146654 
L 203.58 -295.146654 
L 210.174545 -295.429326 
L 216.769091 -295.429326 
L 223.363636 -296.1079 
L 223.363636 -408.86552 
L 223.363636 -408.86552 
L 216.769091 -400.189818 
L 210.174545 -392.906597 
L 203.58 -384.21885 
L 196.985455 -372.55341 
L 190.390909 -366.548638 
L 183.796364 -352.572435 
L 177.201818 -338.825501 
L 170.607273 -331.230297 
L 164.012727 -327.741065 
L 157.418182 -325.241184 
L 150.823636 -320.824033 
L 144.229091 -313.560487 
L 137.634545 -311.172229 
L 131.04 -308.906838 
L 124.445455 -304.723774 
L 117.850909 -299.802712 
L 111.256364 -293.463471 
L 104.661818 -288.544818 
L 98.067273 -284.746413 
L 91.472727 -281.047585 
L 84.878182 -273.543929 
L 78.283636 -265.066579 
L 71.689091 -261.938316 
L 65.094545 -251.230909 
L 58.5 -251.230909 
z
" id="m12fefe8bb1" style="stroke:#0000ff;stroke-opacity:0.5;"/>
    </defs>
    <g clip-path="url(#p2063c1c9f8)">
     <use style="fill:#0000ff;fill-opacity:0.5;stroke:#0000ff;stroke-opacity:0.5;" x="0" xlink:href="#m12fefe8bb1" y="468"/>
    </g>
   </g>
   <g id="PolyCollection_2">
    <defs>
     <path d="M 58.5 -251.230909 
L 58.5 -251.230909 
L 65.094545 -251.230909 
L 71.689091 -251.230909 
L 78.283636 -251.230909 
L 84.878182 -251.230909 
L 91.472727 -251.230909 
L 98.067273 -251.230909 
L 104.661818 -251.230909 
L 111.256364 -251.230909 
L 117.850909 -251.230909 
L 124.445455 -251.230909 
L 131.04 -251.230909 
L 137.634545 -251.230909 
L 144.229091 -251.230909 
L 150.823636 -251.230909 
L 157.418182 -251.230909 
L 164.012727 -251.230909 
L 170.607273 -251.230909 
L 177.201818 -251.230909 
L 183.796364 -251.230909 
L 190.390909 -251.230909 
L 196.985455 -251.230909 
L 203.58 -251.230909 
L 210.174545 -251.230909 
L 216.769091 -251.230909 
L 223.363636 -251.230909 
L 223.363636 -251.230909 
L 223.363636 -251.230909 
L 216.769091 -251.230909 
L 210.174545 -251.230909 
L 203.58 -251.230909 
L 196.985455 -251.230909 
L 190.390909 -251.230909 
L 183.796364 -251.230909 
L 177.201818 -251.230909 
L 170.607273 -251.230909 
L 164.012727 -251.230909 
L 157.418182 -251.230909 
L 150.823636 -251.230909 
L 144.229091 -251.230909 
L 137.634545 -251.230909 
L 131.04 -251.230909 
L 124.445455 -251.230909 
L 117.850909 -251.230909 
L 111.256364 -251.230909 
L 104.661818 -251.230909 
L 98.067273 -251.230909 
L 91.472727 -251.230909 
L 84.878182 -251.230909 
L 78.283636 -251.230909 
L 71.689091 -251.230909 
L 65.094545 -251.230909 
L 58.5 -251.230909 
z
" id="mc8a05f7c2f" style="stroke:#ff0000;stroke-opacity:0.5;"/>
    </defs>
    <g clip-path="url(#p2063c1c9f8)">
     <use style="fill:#ff0000;fill-opacity:0.5;stroke:#ff0000;stroke-opacity:0.5;" x="0" xlink:href="#mc8a05f7c2f" y="468"/>
    </g>
   </g>
   <g id="matplotlib.axis_1">
    <g id="xtick_1">
     <g id="line2d_1">
      <defs>
       <path d="M 0 0 
L 0 3.5 
" id="mab2ae78a5f" style="stroke:#000000;stroke-width:0.8;"/>
      </defs>
      <g>
       <use style="stroke:#000000;stroke-width:0.8;" x="58.5" xlink:href="#mab2ae78a5f" y="216.769091"/>
      </g>
     </g>
    </g>
    <g id="xtick_2">
     <g id="line2d_2">
      <g>
       <use style="stroke:#000000;stroke-width:0.8;" x="91.472727" xlink:href="#mab2ae78a5f" y="216.769091"/>
      </g>
     </g>
    </g>
    <g id="xtick_3">
     <g id="line2d_3">
      <g>
       <use style="stroke:#000000;stroke-width:0.8;" x="124.445455" xlink:href="#mab2ae78a5f" y="216.769091"/>
      </g>
     </g>
    </g>
    <g id="xtick_4">
     <g id="line2d_4">
      <g>
       <use style="stroke:#000000;stroke-width:0.8;" x="157.418182" xlink:href="#mab2ae78a5f" y="216.769091"/>
      </g>
     </g>
    </g>
    <g id="xtick_5">
     <g id="line2d_5">
      <g>
       <use style="stroke:#000000;stroke-width:0.8;" x="190.390909" xlink:href="#mab2ae78a5f" y="216.769091"/>
      </g>
     </g>
    </g>
    <g id="xtick_6">
     <g id="line2d_6">
      <g>
       <use style="stroke:#000000;stroke-width:0.8;" x="223.363636" xlink:href="#mab2ae78a5f" y="216.769091"/>
      </g>
     </g>
    </g>
   </g>
   <g id="matplotlib.axis_2">
    <g id="ytick_1">
     <g id="line2d_7">
      <defs>
       <path d="M 0 0 
L -3.5 0 
" id="m51f2c8b13b" style="stroke:#000000;stroke-width:0.8;"/>
      </defs>
      <g>
       <use style="stroke:#000000;stroke-width:0.8;" x="58.5" xlink:href="#m51f2c8b13b" y="216.769091"/>
      </g>
     </g>
     <g id="text_1">
      <!-- 0.0 -->
      <defs>
       <path d="M 31.78125 66.40625 
Q 24.171875 66.40625 20.328125 58.90625 
Q 16.5 51.421875 16.5 36.375 
Q 16.5 21.390625 20.328125 13.890625 
Q 24.171875 6.390625 31.78125 6.390625 
Q 39.453125 6.390625 43.28125 13.890625 
Q 47.125 21.390625 47.125 36.375 
Q 47.125 51.421875 43.28125 58.90625 
Q 39.453125 66.40625 31.78125 66.40625 
z
M 31.78125 74.21875 
Q 44.046875 74.21875 50.515625 64.515625 
Q 56.984375 54.828125 56.984375 36.375 
Q 56.984375 17.96875 50.515625 8.265625 
Q 44.046875 -1.421875 31.78125 -1.421875 
Q 19.53125 -1.421875 13.0625 8.265625 
Q 6.59375 17.96875 6.59375 36.375 
Q 6.59375 54.828125 13.0625 64.515625 
Q 19.53125 74.21875 31.78125 74.21875 
z
" id="DejaVuSans-48"/>
       <path d="M 10.6875 12.40625 
L 21 12.40625 
L 21 0 
L 10.6875 0 
z
" id="DejaVuSans-46"/>
      </defs>
      <g transform="translate(35.596875 220.56831)scale(0.1 -0.1)">
       <use xlink:href="#DejaVuSans-48"/>
       <use x="63.623047" xlink:href="#DejaVuSans-46"/>
       <use x="95.410156" xlink:href="#DejaVuSans-48"/>
      </g>
     </g>
    </g>
    <g id="ytick_2">
     <g id="line2d_8">
      <g>
       <use style="stroke:#000000;stroke-width:0.8;" x="58.5" xlink:href="#m51f2c8b13b" y="196.692955"/>
      </g>
     </g>
     <g id="text_2">
      <!-- 2.5 -->
      <defs>
       <path d="M 19.1875 8.296875 
L 53.609375 8.296875 
L 53.609375 0 
L 7.328125 0 
L 7.328125 8.296875 
Q 12.9375 14.109375 22.625 23.890625 
Q 32.328125 33.6875 34.8125 36.53125 
Q 39.546875 41.84375 41.421875 45.53125 
Q 43.3125 49.21875 43.3125 52.78125 
Q 43.3125 58.59375 39.234375 62.25 
Q 35.15625 65.921875 28.609375 65.921875 
Q 23.96875 65.921875 18.8125 64.3125 
Q 13.671875 62.703125 7.8125 59.421875 
L 7.8125 69.390625 
Q 13.765625 71.78125 18.9375 73 
Q 24.125 74.21875 28.421875 74.21875 
Q 39.75 74.21875 46.484375 68.546875 
Q 53.21875 62.890625 53.21875 53.421875 
Q 53.21875 48.921875 51.53125 44.890625 
Q 49.859375 40.875 45.40625 35.40625 
Q 44.1875 33.984375 37.640625 27.21875 
Q 31.109375 20.453125 19.1875 8.296875 
z
" id="DejaVuSans-50"/>
       <path d="M 10.796875 72.90625 
L 49.515625 72.90625 
L 49.515625 64.59375 
L 19.828125 64.59375 
L 19.828125 46.734375 
Q 21.96875 47.46875 24.109375 47.828125 
Q 26.265625 48.1875 28.421875 48.1875 
Q 40.625 48.1875 47.75 41.5 
Q 54.890625 34.8125 54.890625 23.390625 
Q 54.890625 11.625 47.5625 5.09375 
Q 40.234375 -1.421875 26.90625 -1.421875 
Q 22.3125 -1.421875 17.546875 -0.640625 
Q 12.796875 0.140625 7.71875 1.703125 
L 7.71875 11.625 
Q 12.109375 9.234375 16.796875 8.0625 
Q 21.484375 6.890625 26.703125 6.890625 
Q 35.15625 6.890625 40.078125 11.328125 
Q 45.015625 15.765625 45.015625 23.390625 
Q 45.015625 31 40.078125 35.4375 
Q 35.15625 39.890625 26.703125 39.890625 
Q 22.75 39.890625 18.8125 39.015625 
Q 14.890625 38.140625 10.796875 36.28125 
z
" id="DejaVuSans-53"/>
      </defs>
      <g transform="translate(35.596875 200.492173)scale(0.1 -0.1)">
       <use xlink:href="#DejaVuSans-50"/>
       <use x="63.623047" xlink:href="#DejaVuSans-46"/>
       <use x="95.410156" xlink:href="#DejaVuSans-53"/>
      </g>
     </g>
    </g>
    <g id="ytick_3">
     <g id="line2d_9">
      <g>
       <use style="stroke:#000000;stroke-width:0.8;" x="58.5" xlink:href="#m51f2c8b13b" y="176.616818"/>
      </g>
     </g>
     <g id="text_3">
      <!-- 5.0 -->
      <g transform="translate(35.596875 180.416037)scale(0.1 -0.1)">
       <use xlink:href="#DejaVuSans-53"/>
       <use x="63.623047" xlink:href="#DejaVuSans-46"/>
       <use x="95.410156" xlink:href="#DejaVuSans-48"/>
      </g>
     </g>
    </g>
    <g id="ytick_4">
     <g id="line2d_10">
      <g>
       <use style="stroke:#000000;stroke-width:0.8;" x="58.5" xlink:href="#m51f2c8b13b" y="156.540682"/>
      </g>
     </g>
     <g id="text_4">
      <!-- 7.5 -->
      <defs>
       <path d="M 8.203125 72.90625 
L 55.078125 72.90625 
L 55.078125 68.703125 
L 28.609375 0 
L 18.3125 0 
L 43.21875 64.59375 
L 8.203125 64.59375 
z
" id="DejaVuSans-55"/>
      </defs>
      <g transform="translate(35.596875 160.339901)scale(0.1 -0.1)">
       <use xlink:href="#DejaVuSans-55"/>
       <use x="63.623047" xlink:href="#DejaVuSans-46"/>
       <use x="95.410156" xlink:href="#DejaVuSans-53"/>
      </g>
     </g>
    </g>
    <g id="ytick_5">
     <g id="line2d_11">
      <g>
       <use style="stroke:#000000;stroke-width:0.8;" x="58.5" xlink:href="#m51f2c8b13b" y="136.464545"/>
      </g>
     </g>
     <g id="text_5">
      <!-- 10.0 -->
      <defs>
       <path d="M 12.40625 8.296875 
L 28.515625 8.296875 
L 28.515625 63.921875 
L 10.984375 60.40625 
L 10.984375 69.390625 
L 28.421875 72.90625 
L 38.28125 72.90625 
L 38.28125 8.296875 
L 54.390625 8.296875 
L 54.390625 0 
L 12.40625 0 
z
" id="DejaVuSans-49"/>
      </defs>
      <g transform="translate(29.234375 140.263764)scale(0.1 -0.1)">
       <use xlink:href="#DejaVuSans-49"/>
       <use x="63.623047" xlink:href="#DejaVuSans-48"/>
       <use x="127.246094" xlink:href="#DejaVuSans-46"/>
       <use x="159.033203" xlink:href="#DejaVuSans-48"/>
      </g>
     </g>
    </g>
    <g id="ytick_6">
     <g id="line2d_12">
      <g>
       <use style="stroke:#000000;stroke-width:0.8;" x="58.5" xlink:href="#m51f2c8b13b" y="116.388409"/>
      </g>
     </g>
     <g id="text_6">
      <!-- 12.5 -->
      <g transform="translate(29.234375 120.187628)scale(0.1 -0.1)">
       <use xlink:href="#DejaVuSans-49"/>
       <use x="63.623047" xlink:href="#DejaVuSans-50"/>
       <use x="127.246094" xlink:href="#DejaVuSans-46"/>
       <use x="159.033203" xlink:href="#DejaVuSans-53"/>
      </g>
     </g>
    </g>
    <g id="ytick_7">
     <g id="line2d_13">
      <g>
       <use style="stroke:#000000;stroke-width:0.8;" x="58.5" xlink:href="#m51f2c8b13b" y="96.312273"/>
      </g>
     </g>
     <g id="text_7">
      <!-- 15.0 -->
      <g transform="translate(29.234375 100.111491)scale(0.1 -0.1)">
       <use xlink:href="#DejaVuSans-49"/>
       <use x="63.623047" xlink:href="#DejaVuSans-53"/>
       <use x="127.246094" xlink:href="#DejaVuSans-46"/>
       <use x="159.033203" xlink:href="#DejaVuSans-48"/>
      </g>
     </g>
    </g>
    <g id="ytick_8">
     <g id="line2d_14">
      <g>
       <use style="stroke:#000000;stroke-width:0.8;" x="58.5" xlink:href="#m51f2c8b13b" y="76.236136"/>
      </g>
     </g>
     <g id="text_8">
      <!-- 17.5 -->
      <g transform="translate(29.234375 80.035355)scale(0.1 -0.1)">
       <use xlink:href="#DejaVuSans-49"/>
       <use x="63.623047" xlink:href="#DejaVuSans-55"/>
       <use x="127.246094" xlink:href="#DejaVuSans-46"/>
       <use x="159.033203" xlink:href="#DejaVuSans-53"/>
      </g>
     </g>
    </g>
    <g id="ytick_9">
     <g id="line2d_15">
      <g>
       <use style="stroke:#000000;stroke-width:0.8;" x="58.5" xlink:href="#m51f2c8b13b" y="56.16"/>
      </g>
     </g>
     <g id="text_9">
      <!-- 20.0 -->
      <g transform="translate(29.234375 59.959219)scale(0.1 -0.1)">
       <use xlink:href="#DejaVuSans-50"/>
       <use x="63.623047" xlink:href="#DejaVuSans-48"/>
       <use x="127.246094" xlink:href="#DejaVuSans-46"/>
       <use x="159.033203" xlink:href="#DejaVuSans-48"/>
      </g>
     </g>
    </g>
    <g id="text_10">
     <!-- Cumulative installed capacity [MWp] -->
     <defs>
      <path d="M 64.40625 67.28125 
L 64.40625 56.890625 
Q 59.421875 61.53125 53.78125 63.8125 
Q 48.140625 66.109375 41.796875 66.109375 
Q 29.296875 66.109375 22.65625 58.46875 
Q 16.015625 50.828125 16.015625 36.375 
Q 16.015625 21.96875 22.65625 14.328125 
Q 29.296875 6.6875 41.796875 6.6875 
Q 48.140625 6.6875 53.78125 8.984375 
Q 59.421875 11.28125 64.40625 15.921875 
L 64.40625 5.609375 
Q 59.234375 2.09375 53.4375 0.328125 
Q 47.65625 -1.421875 41.21875 -1.421875 
Q 24.65625 -1.421875 15.125 8.703125 
Q 5.609375 18.84375 5.609375 36.375 
Q 5.609375 53.953125 15.125 64.078125 
Q 24.65625 74.21875 41.21875 74.21875 
Q 47.75 74.21875 53.53125 72.484375 
Q 59.328125 70.75 64.40625 67.28125 
z
" id="DejaVuSans-67"/>
      <path d="M 8.5 21.578125 
L 8.5 54.6875 
L 17.484375 54.6875 
L 17.484375 21.921875 
Q 17.484375 14.15625 20.5 10.265625 
Q 23.53125 6.390625 29.59375 6.390625 
Q 36.859375 6.390625 41.078125 11.03125 
Q 45.3125 15.671875 45.3125 23.6875 
L 45.3125 54.6875 
L 54.296875 54.6875 
L 54.296875 0 
L 45.3125 0 
L 45.3125 8.40625 
Q 42.046875 3.421875 37.71875 1 
Q 33.40625 -1.421875 27.6875 -1.421875 
Q 18.265625 -1.421875 13.375 4.4375 
Q 8.5 10.296875 8.5 21.578125 
z
M 31.109375 56 
z
" id="DejaVuSans-117"/>
      <path d="M 52 44.1875 
Q 55.375 50.25 60.0625 53.125 
Q 64.75 56 71.09375 56 
Q 79.640625 56 84.28125 50.015625 
Q 88.921875 44.046875 88.921875 33.015625 
L 88.921875 0 
L 79.890625 0 
L 79.890625 32.71875 
Q 79.890625 40.578125 77.09375 44.375 
Q 74.3125 48.1875 68.609375 48.1875 
Q 61.625 48.1875 57.5625 43.546875 
Q 53.515625 38.921875 53.515625 30.90625 
L 53.515625 0 
L 44.484375 0 
L 44.484375 32.71875 
Q 44.484375 40.625 41.703125 44.40625 
Q 38.921875 48.1875 33.109375 48.1875 
Q 26.21875 48.1875 22.15625 43.53125 
Q 18.109375 38.875 18.109375 30.90625 
L 18.109375 0 
L 9.078125 0 
L 9.078125 54.6875 
L 18.109375 54.6875 
L 18.109375 46.1875 
Q 21.1875 51.21875 25.484375 53.609375 
Q 29.78125 56 35.6875 56 
Q 41.65625 56 45.828125 52.96875 
Q 50 49.953125 52 44.1875 
z
" id="DejaVuSans-109"/>
      <path d="M 9.421875 75.984375 
L 18.40625 75.984375 
L 18.40625 0 
L 9.421875 0 
z
" id="DejaVuSans-108"/>
      <path d="M 34.28125 27.484375 
Q 23.390625 27.484375 19.1875 25 
Q 14.984375 22.515625 14.984375 16.5 
Q 14.984375 11.71875 18.140625 8.90625 
Q 21.296875 6.109375 26.703125 6.109375 
Q 34.1875 6.109375 38.703125 11.40625 
Q 43.21875 16.703125 43.21875 25.484375 
L 43.21875 27.484375 
z
M 52.203125 31.203125 
L 52.203125 0 
L 43.21875 0 
L 43.21875 8.296875 
Q 40.140625 3.328125 35.546875 0.953125 
Q 30.953125 -1.421875 24.3125 -1.421875 
Q 15.921875 -1.421875 10.953125 3.296875 
Q 6 8.015625 6 15.921875 
Q 6 25.140625 12.171875 29.828125 
Q 18.359375 34.515625 30.609375 34.515625 
L 43.21875 34.515625 
L 43.21875 35.40625 
Q 43.21875 41.609375 39.140625 45 
Q 35.0625 48.390625 27.6875 48.390625 
Q 23 48.390625 18.546875 47.265625 
Q 14.109375 46.140625 10.015625 43.890625 
L 10.015625 52.203125 
Q 14.9375 54.109375 19.578125 55.046875 
Q 24.21875 56 28.609375 56 
Q 40.484375 56 46.34375 49.84375 
Q 52.203125 43.703125 52.203125 31.203125 
z
" id="DejaVuSans-97"/>
      <path d="M 18.3125 70.21875 
L 18.3125 54.6875 
L 36.8125 54.6875 
L 36.8125 47.703125 
L 18.3125 47.703125 
L 18.3125 18.015625 
Q 18.3125 11.328125 20.140625 9.421875 
Q 21.96875 7.515625 27.59375 7.515625 
L 36.8125 7.515625 
L 36.8125 0 
L 27.59375 0 
Q 17.1875 0 13.234375 3.875 
Q 9.28125 7.765625 9.28125 18.015625 
L 9.28125 47.703125 
L 2.6875 47.703125 
L 2.6875 54.6875 
L 9.28125 54.6875 
L 9.28125 70.21875 
z
" id="DejaVuSans-116"/>
      <path d="M 9.421875 54.6875 
L 18.40625 54.6875 
L 18.40625 0 
L 9.421875 0 
z
M 9.421875 75.984375 
L 18.40625 75.984375 
L 18.40625 64.59375 
L 9.421875 64.59375 
z
" id="DejaVuSans-105"/>
      <path d="M 2.984375 54.6875 
L 12.5 54.6875 
L 29.59375 8.796875 
L 46.6875 54.6875 
L 56.203125 54.6875 
L 35.6875 0 
L 23.484375 0 
z
" id="DejaVuSans-118"/>
      <path d="M 56.203125 29.59375 
L 56.203125 25.203125 
L 14.890625 25.203125 
Q 15.484375 15.921875 20.484375 11.0625 
Q 25.484375 6.203125 34.421875 6.203125 
Q 39.59375 6.203125 44.453125 7.46875 
Q 49.3125 8.734375 54.109375 11.28125 
L 54.109375 2.78125 
Q 49.265625 0.734375 44.1875 -0.34375 
Q 39.109375 -1.421875 33.890625 -1.421875 
Q 20.796875 -1.421875 13.15625 6.1875 
Q 5.515625 13.8125 5.515625 26.8125 
Q 5.515625 40.234375 12.765625 48.109375 
Q 20.015625 56 32.328125 56 
Q 43.359375 56 49.78125 48.890625 
Q 56.203125 41.796875 56.203125 29.59375 
z
M 47.21875 32.234375 
Q 47.125 39.59375 43.09375 43.984375 
Q 39.0625 48.390625 32.421875 48.390625 
Q 24.90625 48.390625 20.390625 44.140625 
Q 15.875 39.890625 15.1875 32.171875 
z
" id="DejaVuSans-101"/>
      <path id="DejaVuSans-32"/>
      <path d="M 54.890625 33.015625 
L 54.890625 0 
L 45.90625 0 
L 45.90625 32.71875 
Q 45.90625 40.484375 42.875 44.328125 
Q 39.84375 48.1875 33.796875 48.1875 
Q 26.515625 48.1875 22.3125 43.546875 
Q 18.109375 38.921875 18.109375 30.90625 
L 18.109375 0 
L 9.078125 0 
L 9.078125 54.6875 
L 18.109375 54.6875 
L 18.109375 46.1875 
Q 21.34375 51.125 25.703125 53.5625 
Q 30.078125 56 35.796875 56 
Q 45.21875 56 50.046875 50.171875 
Q 54.890625 44.34375 54.890625 33.015625 
z
" id="DejaVuSans-110"/>
      <path d="M 44.28125 53.078125 
L 44.28125 44.578125 
Q 40.484375 46.53125 36.375 47.5 
Q 32.28125 48.484375 27.875 48.484375 
Q 21.1875 48.484375 17.84375 46.4375 
Q 14.5 44.390625 14.5 40.28125 
Q 14.5 37.15625 16.890625 35.375 
Q 19.28125 33.59375 26.515625 31.984375 
L 29.59375 31.296875 
Q 39.15625 29.25 43.1875 25.515625 
Q 47.21875 21.78125 47.21875 15.09375 
Q 47.21875 7.46875 41.1875 3.015625 
Q 35.15625 -1.421875 24.609375 -1.421875 
Q 20.21875 -1.421875 15.453125 -0.5625 
Q 10.6875 0.296875 5.421875 2 
L 5.421875 11.28125 
Q 10.40625 8.6875 15.234375 7.390625 
Q 20.0625 6.109375 24.8125 6.109375 
Q 31.15625 6.109375 34.5625 8.28125 
Q 37.984375 10.453125 37.984375 14.40625 
Q 37.984375 18.0625 35.515625 20.015625 
Q 33.0625 21.96875 24.703125 23.78125 
L 21.578125 24.515625 
Q 13.234375 26.265625 9.515625 29.90625 
Q 5.8125 33.546875 5.8125 39.890625 
Q 5.8125 47.609375 11.28125 51.796875 
Q 16.75 56 26.8125 56 
Q 31.78125 56 36.171875 55.265625 
Q 40.578125 54.546875 44.28125 53.078125 
z
" id="DejaVuSans-115"/>
      <path d="M 45.40625 46.390625 
L 45.40625 75.984375 
L 54.390625 75.984375 
L 54.390625 0 
L 45.40625 0 
L 45.40625 8.203125 
Q 42.578125 3.328125 38.25 0.953125 
Q 33.9375 -1.421875 27.875 -1.421875 
Q 17.96875 -1.421875 11.734375 6.484375 
Q 5.515625 14.40625 5.515625 27.296875 
Q 5.515625 40.1875 11.734375 48.09375 
Q 17.96875 56 27.875 56 
Q 33.9375 56 38.25 53.625 
Q 42.578125 51.265625 45.40625 46.390625 
z
M 14.796875 27.296875 
Q 14.796875 17.390625 18.875 11.75 
Q 22.953125 6.109375 30.078125 6.109375 
Q 37.203125 6.109375 41.296875 11.75 
Q 45.40625 17.390625 45.40625 27.296875 
Q 45.40625 37.203125 41.296875 42.84375 
Q 37.203125 48.484375 30.078125 48.484375 
Q 22.953125 48.484375 18.875 42.84375 
Q 14.796875 37.203125 14.796875 27.296875 
z
" id="DejaVuSans-100"/>
      <path d="M 48.78125 52.59375 
L 48.78125 44.1875 
Q 44.96875 46.296875 41.140625 47.34375 
Q 37.3125 48.390625 33.40625 48.390625 
Q 24.65625 48.390625 19.8125 42.84375 
Q 14.984375 37.3125 14.984375 27.296875 
Q 14.984375 17.28125 19.8125 11.734375 
Q 24.65625 6.203125 33.40625 6.203125 
Q 37.3125 6.203125 41.140625 7.25 
Q 44.96875 8.296875 48.78125 10.40625 
L 48.78125 2.09375 
Q 45.015625 0.34375 40.984375 -0.53125 
Q 36.96875 -1.421875 32.421875 -1.421875 
Q 20.0625 -1.421875 12.78125 6.34375 
Q 5.515625 14.109375 5.515625 27.296875 
Q 5.515625 40.671875 12.859375 48.328125 
Q 20.21875 56 33.015625 56 
Q 37.15625 56 41.109375 55.140625 
Q 45.0625 54.296875 48.78125 52.59375 
z
" id="DejaVuSans-99"/>
      <path d="M 18.109375 8.203125 
L 18.109375 -20.796875 
L 9.078125 -20.796875 
L 9.078125 54.6875 
L 18.109375 54.6875 
L 18.109375 46.390625 
Q 20.953125 51.265625 25.265625 53.625 
Q 29.59375 56 35.59375 56 
Q 45.5625 56 51.78125 48.09375 
Q 58.015625 40.1875 58.015625 27.296875 
Q 58.015625 14.40625 51.78125 6.484375 
Q 45.5625 -1.421875 35.59375 -1.421875 
Q 29.59375 -1.421875 25.265625 0.953125 
Q 20.953125 3.328125 18.109375 8.203125 
z
M 48.6875 27.296875 
Q 48.6875 37.203125 44.609375 42.84375 
Q 40.53125 48.484375 33.40625 48.484375 
Q 26.265625 48.484375 22.1875 42.84375 
Q 18.109375 37.203125 18.109375 27.296875 
Q 18.109375 17.390625 22.1875 11.75 
Q 26.265625 6.109375 33.40625 6.109375 
Q 40.53125 6.109375 44.609375 11.75 
Q 48.6875 17.390625 48.6875 27.296875 
z
" id="DejaVuSans-112"/>
      <path d="M 32.171875 -5.078125 
Q 28.375 -14.84375 24.75 -17.8125 
Q 21.140625 -20.796875 15.09375 -20.796875 
L 7.90625 -20.796875 
L 7.90625 -13.28125 
L 13.1875 -13.28125 
Q 16.890625 -13.28125 18.9375 -11.515625 
Q 21 -9.765625 23.484375 -3.21875 
L 25.09375 0.875 
L 2.984375 54.6875 
L 12.5 54.6875 
L 29.59375 11.921875 
L 46.6875 54.6875 
L 56.203125 54.6875 
z
" id="DejaVuSans-121"/>
      <path d="M 8.59375 75.984375 
L 29.296875 75.984375 
L 29.296875 69 
L 17.578125 69 
L 17.578125 -6.203125 
L 29.296875 -6.203125 
L 29.296875 -13.1875 
L 8.59375 -13.1875 
z
" id="DejaVuSans-91"/>
      <path d="M 9.8125 72.90625 
L 24.515625 72.90625 
L 43.109375 23.296875 
L 61.8125 72.90625 
L 76.515625 72.90625 
L 76.515625 0 
L 66.890625 0 
L 66.890625 64.015625 
L 48.09375 14.015625 
L 38.1875 14.015625 
L 19.390625 64.015625 
L 19.390625 0 
L 9.8125 0 
z
" id="DejaVuSans-77"/>
      <path d="M 3.328125 72.90625 
L 13.28125 72.90625 
L 28.609375 11.28125 
L 43.890625 72.90625 
L 54.984375 72.90625 
L 70.3125 11.28125 
L 85.59375 72.90625 
L 95.609375 72.90625 
L 77.296875 0 
L 64.890625 0 
L 49.515625 63.28125 
L 33.984375 0 
L 21.578125 0 
z
" id="DejaVuSans-87"/>
      <path d="M 30.421875 75.984375 
L 30.421875 -13.1875 
L 9.71875 -13.1875 
L 9.71875 -6.203125 
L 21.390625 -6.203125 
L 21.390625 69 
L 9.71875 69 
L 9.71875 75.984375 
z
" id="DejaVuSans-93"/>
     </defs>
     <g transform="translate(23.154687 228.427827)rotate(-90)scale(0.1 -0.1)">
      <use xlink:href="#DejaVuSans-67"/>
      <use x="69.824219" xlink:href="#DejaVuSans-117"/>
      <use x="133.203125" xlink:href="#DejaVuSans-109"/>
      <use x="230.615234" xlink:href="#DejaVuSans-117"/>
      <use x="293.994141" xlink:href="#DejaVuSans-108"/>
      <use x="321.777344" xlink:href="#DejaVuSans-97"/>
      <use x="383.056641" xlink:href="#DejaVuSans-116"/>
      <use x="422.265625" xlink:href="#DejaVuSans-105"/>
      <use x="450.048828" xlink:href="#DejaVuSans-118"/>
      <use x="509.228516" xlink:href="#DejaVuSans-101"/>
      <use x="570.751953" xlink:href="#DejaVuSans-32"/>
      <use x="602.539062" xlink:href="#DejaVuSans-105"/>
      <use x="630.322266" xlink:href="#DejaVuSans-110"/>
      <use x="693.701172" xlink:href="#DejaVuSans-115"/>
      <use x="745.800781" xlink:href="#DejaVuSans-116"/>
      <use x="785.009766" xlink:href="#DejaVuSans-97"/>
      <use x="846.289062" xlink:href="#DejaVuSans-108"/>
      <use x="874.072266" xlink:href="#DejaVuSans-108"/>
      <use x="901.855469" xlink:href="#DejaVuSans-101"/>
      <use x="963.378906" xlink:href="#DejaVuSans-100"/>
      <use x="1026.855469" xlink:href="#DejaVuSans-32"/>
      <use x="1058.642578" xlink:href="#DejaVuSans-99"/>
      <use x="1113.623047" xlink:href="#DejaVuSans-97"/>
      <use x="1174.902344" xlink:href="#DejaVuSans-112"/>
      <use x="1238.378906" xlink:href="#DejaVuSans-97"/>
      <use x="1299.658203" xlink:href="#DejaVuSans-99"/>
      <use x="1354.638672" xlink:href="#DejaVuSans-105"/>
      <use x="1382.421875" xlink:href="#DejaVuSans-116"/>
      <use x="1421.630859" xlink:href="#DejaVuSans-121"/>
      <use x="1480.810547" xlink:href="#DejaVuSans-32"/>
      <use x="1512.597656" xlink:href="#DejaVuSans-91"/>
      <use x="1551.611328" xlink:href="#DejaVuSans-77"/>
      <use x="1637.890625" xlink:href="#DejaVuSans-87"/>
      <use x="1736.767578" xlink:href="#DejaVuSans-112"/>
      <use x="1800.244141" xlink:href="#DejaVuSans-93"/>
     </g>
    </g>
   </g>
   <g id="line2d_16">
    <path clip-path="url(#p2063c1c9f8)" d="M 58.5 216.769091 
L 65.094545 216.769091 
L 71.689091 216.769091 
L 78.283636 213.544863 
L 84.878182 206.213058 
L 91.472727 201.964948 
L 98.067273 200.748334 
L 104.661818 200.50742 
L 111.256364 197.05834 
L 117.850909 190.003586 
L 124.445455 186.233287 
L 131.04 184.687425 
L 137.634545 183.005045 
L 144.229091 180.776594 
L 150.823636 175.982412 
L 157.418182 171.26452 
L 164.012727 169.441607 
L 170.607273 165.60305 
L 177.201818 160.776747 
L 183.796364 150.774815 
L 190.390909 142.82065 
L 196.985455 140.367346 
L 203.58 138.12685 
L 210.174545 135.613317 
L 216.769091 135.187703 
L 223.363636 134.352536 
" style="fill:none;stroke:#0000ff;stroke-linecap:square;stroke-width:1.5;"/>
   </g>
   <g id="line2d_17">
    <path clip-path="url(#p2063c1c9f8)" d="M 58.5 216.769091 
L 65.094545 216.769091 
L 71.689091 216.769091 
L 78.283636 216.769091 
L 84.878182 216.769091 
L 91.472727 216.769091 
L 98.067273 216.769091 
L 104.661818 216.769091 
L 111.256364 216.769091 
L 117.850909 216.769091 
L 124.445455 216.769091 
L 131.04 216.769091 
L 137.634545 216.769091 
L 144.229091 216.769091 
L 150.823636 216.769091 
L 157.418182 216.769091 
L 164.012727 216.769091 
L 170.607273 216.769091 
L 177.201818 216.769091 
L 183.796364 216.769091 
L 190.390909 216.769091 
L 196.985455 216.769091 
L 203.58 216.769091 
L 210.174545 216.769091 
L 216.769091 216.769091 
L 223.363636 216.769091 
" style="fill:none;stroke:#ff0000;stroke-linecap:square;stroke-width:1.5;"/>
   </g>
   <g id="patch_3">
    <path d="M 58.5 216.769091 
L 58.5 56.16 
" style="fill:none;stroke:#000000;stroke-linecap:square;stroke-linejoin:miter;stroke-width:0.8;"/>
   </g>
   <g id="patch_4">
    <path d="M 223.363636 216.769091 
L 223.363636 56.16 
" style="fill:none;stroke:#000000;stroke-linecap:square;stroke-linejoin:miter;stroke-width:0.8;"/>
   </g>
   <g id="patch_5">
    <path d="M 58.5 216.769091 
L 223.363636 216.769091 
" style="fill:none;stroke:#000000;stroke-linecap:square;stroke-linejoin:miter;stroke-width:0.8;"/>
   </g>
   <g id="patch_6">
    <path d="M 58.5 56.16 
L 223.363636 56.16 
" style="fill:none;stroke:#000000;stroke-linecap:square;stroke-linejoin:miter;stroke-width:0.8;"/>
   </g>
   <g id="text_11">
    <!-- IND -->
    <defs>
     <path d="M 9.8125 72.90625 
L 19.671875 72.90625 
L 19.671875 0 
L 9.8125 0 
z
" id="DejaVuSans-73"/>
     <path d="M 9.8125 72.90625 
L 23.09375 72.90625 
L 55.421875 11.921875 
L 55.421875 72.90625 
L 64.984375 72.90625 
L 64.984375 0 
L 51.703125 0 
L 19.390625 60.984375 
L 19.390625 0 
L 9.8125 0 
z
" id="DejaVuSans-78"/>
     <path d="M 19.671875 64.796875 
L 19.671875 8.109375 
L 31.59375 8.109375 
Q 46.6875 8.109375 53.6875 14.9375 
Q 60.6875 21.78125 60.6875 36.53125 
Q 60.6875 51.171875 53.6875 57.984375 
Q 46.6875 64.796875 31.59375 64.796875 
z
M 9.8125 72.90625 
L 30.078125 72.90625 
Q 51.265625 72.90625 61.171875 64.09375 
Q 71.09375 55.28125 71.09375 36.53125 
Q 71.09375 17.671875 61.125 8.828125 
Q 51.171875 0 30.078125 0 
L 9.8125 0 
z
" id="DejaVuSans-68"/>
    </defs>
    <g transform="translate(130.053068 50.16)scale(0.12 -0.12)">
     <use xlink:href="#DejaVuSans-73"/>
     <use x="29.492188" xlink:href="#DejaVuSans-78"/>
     <use x="104.296875" xlink:href="#DejaVuSans-68"/>
    </g>
   </g>
  </g>
  <g id="axes_2">
   <g id="patch_7">
    <path d="M 256.336364 216.769091 
L 421.2 216.769091 
L 421.2 56.16 
L 256.336364 56.16 
z
" style="fill:#ffffff;"/>
   </g>
   <g id="PolyCollection_3">
    <defs>
     <path d="M 256.336364 -251.230909 
L 256.336364 -251.230909 
L 262.930909 -251.230909 
L 269.525455 -251.230909 
L 276.12 -251.230909 
L 282.714545 -253.837996 
L 289.309091 -257.313175 
L 295.903636 -257.790184 
L 302.498182 -259.122437 
L 309.092727 -259.991733 
L 315.687273 -263.470526 
L 322.281818 -263.909391 
L 328.876364 -264.090076 
L 335.470909 -266.17157 
L 342.065455 -267.089852 
L 348.66 -268.985441 
L 355.254545 -270.420082 
L 361.849091 -270.811165 
L 368.443636 -274.518826 
L 375.038182 -275.632248 
L 381.632727 -278.031748 
L 388.227273 -281.46798 
L 394.821818 -283.630179 
L 401.416364 -283.79641 
L 408.010909 -283.695226 
L 414.605455 -284.945568 
L 421.2 -285.252733 
L 421.2 -404.947461 
L 421.2 -404.947461 
L 414.605455 -381.051639 
L 408.010909 -369.778888 
L 401.416364 -354.840637 
L 394.821818 -336.090328 
L 388.227273 -327.060082 
L 381.632727 -323.090227 
L 375.038182 -313.552055 
L 368.443636 -315.067401 
L 361.849091 -314.153536 
L 355.254545 -313.713467 
L 348.66 -309.269815 
L 342.065455 -304.846239 
L 335.470909 -304.401753 
L 328.876364 -303.910691 
L 322.281818 -300.169302 
L 315.687273 -299.564207 
L 309.092727 -293.463471 
L 302.498182 -288.544818 
L 295.903636 -284.746413 
L 289.309091 -281.047585 
L 282.714545 -273.543929 
L 276.12 -265.066579 
L 269.525455 -261.938316 
L 262.930909 -251.230909 
L 256.336364 -251.230909 
z
" id="m09cd664785" style="stroke:#0000ff;stroke-opacity:0.5;"/>
    </defs>
    <g clip-path="url(#pa0f4a31097)">
     <use style="fill:#0000ff;fill-opacity:0.5;stroke:#0000ff;stroke-opacity:0.5;" x="0" xlink:href="#m09cd664785" y="468"/>
    </g>
   </g>
   <g id="PolyCollection_4">
    <defs>
     <path d="M 256.336364 -251.230909 
L 256.336364 -251.230909 
L 262.930909 -251.230909 
L 269.525455 -251.230909 
L 276.12 -251.230909 
L 282.714545 -251.230909 
L 289.309091 -251.230909 
L 295.903636 -251.230909 
L 302.498182 -251.230909 
L 309.092727 -251.230909 
L 315.687273 -251.230909 
L 322.281818 -251.230909 
L 328.876364 -251.230909 
L 335.470909 -251.230909 
L 342.065455 -251.230909 
L 348.66 -251.230909 
L 355.254545 -251.230909 
L 361.849091 -251.230909 
L 368.443636 -251.230909 
L 375.038182 -252.013477 
L 381.632727 -252.251981 
L 388.227273 -254.363188 
L 394.821818 -254.363188 
L 401.416364 -255.603893 
L 408.010909 -255.954422 
L 414.605455 -256.791999 
L 421.2 -256.791999 
L 421.2 -342.757212 
L 421.2 -342.757212 
L 414.605455 -336.211588 
L 408.010909 -322.865374 
L 401.416364 -314.124225 
L 394.821818 -306.477224 
L 388.227273 -296.955514 
L 381.632727 -286.197114 
L 375.038182 -280.081923 
L 368.443636 -273.755933 
L 361.849091 -268.037446 
L 355.254545 -266.553819 
L 348.66 -264.716451 
L 342.065455 -262.852181 
L 335.470909 -262.62251 
L 328.876364 -262.62251 
L 322.281818 -259.947968 
L 315.687273 -255.405139 
L 309.092727 -251.230909 
L 302.498182 -251.230909 
L 295.903636 -251.230909 
L 289.309091 -251.230909 
L 282.714545 -251.230909 
L 276.12 -251.230909 
L 269.525455 -251.230909 
L 262.930909 -251.230909 
L 256.336364 -251.230909 
z
" id="m8ac80976d7" style="stroke:#ff0000;stroke-opacity:0.5;"/>
    </defs>
    <g clip-path="url(#pa0f4a31097)">
     <use style="fill:#ff0000;fill-opacity:0.5;stroke:#ff0000;stroke-opacity:0.5;" x="0" xlink:href="#m8ac80976d7" y="468"/>
    </g>
   </g>
   <g id="matplotlib.axis_3">
    <g id="xtick_7">
     <g id="line2d_18">
      <g>
       <use style="stroke:#000000;stroke-width:0.8;" x="256.336364" xlink:href="#mab2ae78a5f" y="216.769091"/>
      </g>
     </g>
    </g>
    <g id="xtick_8">
     <g id="line2d_19">
      <g>
       <use style="stroke:#000000;stroke-width:0.8;" x="289.309091" xlink:href="#mab2ae78a5f" y="216.769091"/>
      </g>
     </g>
    </g>
    <g id="xtick_9">
     <g id="line2d_20">
      <g>
       <use style="stroke:#000000;stroke-width:0.8;" x="322.281818" xlink:href="#mab2ae78a5f" y="216.769091"/>
      </g>
     </g>
    </g>
    <g id="xtick_10">
     <g id="line2d_21">
      <g>
       <use style="stroke:#000000;stroke-width:0.8;" x="355.254545" xlink:href="#mab2ae78a5f" y="216.769091"/>
      </g>
     </g>
    </g>
    <g id="xtick_11">
     <g id="line2d_22">
      <g>
       <use style="stroke:#000000;stroke-width:0.8;" x="388.227273" xlink:href="#mab2ae78a5f" y="216.769091"/>
      </g>
     </g>
    </g>
    <g id="xtick_12">
     <g id="line2d_23">
      <g>
       <use style="stroke:#000000;stroke-width:0.8;" x="421.2" xlink:href="#mab2ae78a5f" y="216.769091"/>
      </g>
     </g>
    </g>
   </g>
   <g id="matplotlib.axis_4">
    <g id="ytick_10">
     <g id="line2d_24">
      <g>
       <use style="stroke:#000000;stroke-width:0.8;" x="256.336364" xlink:href="#m51f2c8b13b" y="216.769091"/>
      </g>
     </g>
    </g>
    <g id="ytick_11">
     <g id="line2d_25">
      <g>
       <use style="stroke:#000000;stroke-width:0.8;" x="256.336364" xlink:href="#m51f2c8b13b" y="196.692955"/>
      </g>
     </g>
    </g>
    <g id="ytick_12">
     <g id="line2d_26">
      <g>
       <use style="stroke:#000000;stroke-width:0.8;" x="256.336364" xlink:href="#m51f2c8b13b" y="176.616818"/>
      </g>
     </g>
    </g>
    <g id="ytick_13">
     <g id="line2d_27">
      <g>
       <use style="stroke:#000000;stroke-width:0.8;" x="256.336364" xlink:href="#m51f2c8b13b" y="156.540682"/>
      </g>
     </g>
    </g>
    <g id="ytick_14">
     <g id="line2d_28">
      <g>
       <use style="stroke:#000000;stroke-width:0.8;" x="256.336364" xlink:href="#m51f2c8b13b" y="136.464545"/>
      </g>
     </g>
    </g>
    <g id="ytick_15">
     <g id="line2d_29">
      <g>
       <use style="stroke:#000000;stroke-width:0.8;" x="256.336364" xlink:href="#m51f2c8b13b" y="116.388409"/>
      </g>
     </g>
    </g>
    <g id="ytick_16">
     <g id="line2d_30">
      <g>
       <use style="stroke:#000000;stroke-width:0.8;" x="256.336364" xlink:href="#m51f2c8b13b" y="96.312273"/>
      </g>
     </g>
    </g>
    <g id="ytick_17">
     <g id="line2d_31">
      <g>
       <use style="stroke:#000000;stroke-width:0.8;" x="256.336364" xlink:href="#m51f2c8b13b" y="76.236136"/>
      </g>
     </g>
    </g>
    <g id="ytick_18">
     <g id="line2d_32">
      <g>
       <use style="stroke:#000000;stroke-width:0.8;" x="256.336364" xlink:href="#m51f2c8b13b" y="56.16"/>
      </g>
     </g>
    </g>
   </g>
   <g id="line2d_33">
    <path clip-path="url(#pa0f4a31097)" d="M 256.336364 216.769091 
L 262.930909 216.769091 
L 269.525455 216.769091 
L 276.12 213.544863 
L 282.714545 206.213058 
L 289.309091 201.964948 
L 295.903636 200.748334 
L 302.498182 200.50742 
L 309.092727 197.05834 
L 315.687273 193.187661 
L 322.281818 190.25253 
L 328.876364 189.296906 
L 335.470909 188.232871 
L 342.065455 186.992165 
L 348.66 184.579014 
L 355.254545 182.868527 
L 361.849091 180.407193 
L 368.443636 178.427686 
L 375.038182 173.982829 
L 381.632727 171.61786 
L 388.227273 165.101146 
L 394.821818 164.342268 
L 401.416364 164.241888 
L 408.010909 160.768716 
L 414.605455 159.198762 
L 421.2 157.905859 
" style="fill:none;stroke:#0000ff;stroke-linecap:square;stroke-width:1.5;"/>
   </g>
   <g id="line2d_34">
    <path clip-path="url(#pa0f4a31097)" d="M 256.336364 216.769091 
L 262.930909 216.769091 
L 269.525455 216.769091 
L 276.12 216.769091 
L 282.714545 216.769091 
L 289.309091 216.769091 
L 295.903636 216.769091 
L 302.498182 216.769091 
L 309.092727 216.769091 
L 315.687273 216.769091 
L 322.281818 216.769091 
L 328.876364 216.769091 
L 335.470909 216.769091 
L 342.065455 216.769091 
L 348.66 214.761477 
L 355.254545 212.705681 
L 361.849091 211.689828 
L 368.443636 209.091976 
L 375.038182 207.578236 
L 381.632727 204.089003 
L 388.227273 199.483537 
L 394.821818 197.267132 
L 401.416364 194.207529 
L 408.010909 194.207529 
L 414.605455 192.428783 
L 421.2 185.526607 
" style="fill:none;stroke:#ff0000;stroke-linecap:square;stroke-width:1.5;"/>
   </g>
   <g id="patch_8">
    <path d="M 256.336364 216.769091 
L 256.336364 56.16 
" style="fill:none;stroke:#000000;stroke-linecap:square;stroke-linejoin:miter;stroke-width:0.8;"/>
   </g>
   <g id="patch_9">
    <path d="M 421.2 216.769091 
L 421.2 56.16 
" style="fill:none;stroke:#000000;stroke-linecap:square;stroke-linejoin:miter;stroke-width:0.8;"/>
   </g>
   <g id="patch_10">
    <path d="M 256.336364 216.769091 
L 421.2 216.769091 
" style="fill:none;stroke:#000000;stroke-linecap:square;stroke-linejoin:miter;stroke-width:0.8;"/>
   </g>
   <g id="patch_11">
    <path d="M 256.336364 56.16 
L 421.2 56.16 
" style="fill:none;stroke:#000000;stroke-linecap:square;stroke-linejoin:miter;stroke-width:0.8;"/>
   </g>
   <g id="text_12">
    <!-- COM -->
    <defs>
     <path d="M 39.40625 66.21875 
Q 28.65625 66.21875 22.328125 58.203125 
Q 16.015625 50.203125 16.015625 36.375 
Q 16.015625 22.609375 22.328125 14.59375 
Q 28.65625 6.59375 39.40625 6.59375 
Q 50.140625 6.59375 56.421875 14.59375 
Q 62.703125 22.609375 62.703125 36.375 
Q 62.703125 50.203125 56.421875 58.203125 
Q 50.140625 66.21875 39.40625 66.21875 
z
M 39.40625 74.21875 
Q 54.734375 74.21875 63.90625 63.9375 
Q 73.09375 53.65625 73.09375 36.375 
Q 73.09375 19.140625 63.90625 8.859375 
Q 54.734375 -1.421875 39.40625 -1.421875 
Q 24.03125 -1.421875 14.8125 8.828125 
Q 5.609375 19.09375 5.609375 36.375 
Q 5.609375 53.65625 14.8125 63.9375 
Q 24.03125 74.21875 39.40625 74.21875 
z
" id="DejaVuSans-79"/>
    </defs>
    <g transform="translate(324.678494 50.16)scale(0.12 -0.12)">
     <use xlink:href="#DejaVuSans-67"/>
     <use x="69.824219" xlink:href="#DejaVuSans-79"/>
     <use x="148.535156" xlink:href="#DejaVuSans-77"/>
    </g>
   </g>
  </g>
  <g id="axes_3">
   <g id="patch_12">
    <path d="M 58.5 409.5 
L 223.363636 409.5 
L 223.363636 248.890909 
L 58.5 248.890909 
z
" style="fill:#ffffff;"/>
   </g>
   <g id="PolyCollection_5">
    <defs>
     <path d="M 58.5 -58.5 
L 58.5 -58.5 
L 65.094545 -58.5 
L 71.689091 -58.5 
L 78.283636 -58.5 
L 84.878182 -61.107087 
L 91.472727 -64.582266 
L 98.067273 -65.059275 
L 104.661818 -66.391528 
L 111.256364 -67.260824 
L 117.850909 -70.739617 
L 124.445455 -71.178482 
L 131.04 -71.359167 
L 137.634545 -73.440661 
L 144.229091 -74.358943 
L 150.823636 -76.254532 
L 157.418182 -77.927677 
L 164.012727 -77.693991 
L 170.607273 -81.037069 
L 177.201818 -82.150492 
L 183.796364 -84.98725 
L 190.390909 -89.091615 
L 196.985455 -90.998447 
L 203.58 -91.164677 
L 210.174545 -91.063493 
L 216.769091 -92.342745 
L 223.363636 -93.054644 
L 223.363636 -218.777032 
L 223.363636 -218.777032 
L 216.769091 -192.796504 
L 210.174545 -173.677196 
L 203.58 -158.615275 
L 196.985455 -142.445554 
L 190.390909 -138.214709 
L 183.796364 -135.22216 
L 177.201818 -125.926106 
L 170.607273 -124.226861 
L 164.012727 -123.078908 
L 157.418182 -121.874741 
L 150.823636 -116.538906 
L 144.229091 -112.11533 
L 137.634545 -111.670844 
L 131.04 -111.179782 
L 124.445455 -107.438393 
L 117.850909 -106.833298 
L 111.256364 -100.732562 
L 104.661818 -95.813909 
L 98.067273 -92.015504 
L 91.472727 -88.316676 
L 84.878182 -80.813019 
L 78.283636 -72.33567 
L 71.689091 -69.207407 
L 65.094545 -58.5 
L 58.5 -58.5 
z
" id="md1ff9bef93" style="stroke:#0000ff;stroke-opacity:0.5;"/>
    </defs>
    <g clip-path="url(#pa94c924175)">
     <use style="fill:#0000ff;fill-opacity:0.5;stroke:#0000ff;stroke-opacity:0.5;" x="0" xlink:href="#md1ff9bef93" y="468"/>
    </g>
   </g>
   <g id="PolyCollection_6">
    <defs>
     <path d="M 58.5 -58.5 
L 58.5 -58.5 
L 65.094545 -58.5 
L 71.689091 -58.5 
L 78.283636 -58.5 
L 84.878182 -58.5 
L 91.472727 -58.5 
L 98.067273 -58.5 
L 104.661818 -58.5 
L 111.256364 -58.5 
L 117.850909 -58.5 
L 124.445455 -58.5 
L 131.04 -58.5 
L 137.634545 -58.5 
L 144.229091 -58.5 
L 150.823636 -58.5 
L 157.418182 -58.5 
L 164.012727 -58.5 
L 170.607273 -58.5 
L 177.201818 -59.417078 
L 183.796364 -60.26148 
L 190.390909 -61.921375 
L 196.985455 -61.921375 
L 203.58 -63.488518 
L 210.174545 -63.488518 
L 216.769091 -64.06109 
L 223.363636 -64.06109 
L 223.363636 -160.740937 
L 223.363636 -160.740937 
L 216.769091 -153.46936 
L 210.174545 -140.571245 
L 203.58 -129.509294 
L 196.985455 -119.889211 
L 190.390909 -108.400843 
L 183.796364 -93.634443 
L 177.201818 -87.351014 
L 170.607273 -81.4406 
L 164.012727 -75.581178 
L 157.418182 -74.238486 
L 150.823636 -71.985542 
L 144.229091 -70.121272 
L 137.634545 -69.891601 
L 131.04 -69.891601 
L 124.445455 -67.217058 
L 117.850909 -62.67423 
L 111.256364 -58.5 
L 104.661818 -58.5 
L 98.067273 -58.5 
L 91.472727 -58.5 
L 84.878182 -58.5 
L 78.283636 -58.5 
L 71.689091 -58.5 
L 65.094545 -58.5 
L 58.5 -58.5 
z
" id="m54425121dc" style="stroke:#ff0000;stroke-opacity:0.5;"/>
    </defs>
    <g clip-path="url(#pa94c924175)">
     <use style="fill:#ff0000;fill-opacity:0.5;stroke:#ff0000;stroke-opacity:0.5;" x="0" xlink:href="#m54425121dc" y="468"/>
    </g>
   </g>
   <g id="matplotlib.axis_5">
    <g id="xtick_13">
     <g id="line2d_35">
      <g>
       <use style="stroke:#000000;stroke-width:0.8;" x="58.5" xlink:href="#mab2ae78a5f" y="409.5"/>
      </g>
     </g>
     <g id="text_13">
      <!-- 2010 -->
      <g transform="translate(45.775 424.098437)scale(0.1 -0.1)">
       <use xlink:href="#DejaVuSans-50"/>
       <use x="63.623047" xlink:href="#DejaVuSans-48"/>
       <use x="127.246094" xlink:href="#DejaVuSans-49"/>
       <use x="190.869141" xlink:href="#DejaVuSans-48"/>
      </g>
     </g>
    </g>
    <g id="xtick_14">
     <g id="line2d_36">
      <g>
       <use style="stroke:#000000;stroke-width:0.8;" x="91.472727" xlink:href="#mab2ae78a5f" y="409.5"/>
      </g>
     </g>
     <g id="text_14">
      <!-- 2015 -->
      <g transform="translate(78.747727 424.098437)scale(0.1 -0.1)">
       <use xlink:href="#DejaVuSans-50"/>
       <use x="63.623047" xlink:href="#DejaVuSans-48"/>
       <use x="127.246094" xlink:href="#DejaVuSans-49"/>
       <use x="190.869141" xlink:href="#DejaVuSans-53"/>
      </g>
     </g>
    </g>
    <g id="xtick_15">
     <g id="line2d_37">
      <g>
       <use style="stroke:#000000;stroke-width:0.8;" x="124.445455" xlink:href="#mab2ae78a5f" y="409.5"/>
      </g>
     </g>
     <g id="text_15">
      <!-- 2020 -->
      <g transform="translate(111.720455 424.098437)scale(0.1 -0.1)">
       <use xlink:href="#DejaVuSans-50"/>
       <use x="63.623047" xlink:href="#DejaVuSans-48"/>
       <use x="127.246094" xlink:href="#DejaVuSans-50"/>
       <use x="190.869141" xlink:href="#DejaVuSans-48"/>
      </g>
     </g>
    </g>
    <g id="xtick_16">
     <g id="line2d_38">
      <g>
       <use style="stroke:#000000;stroke-width:0.8;" x="157.418182" xlink:href="#mab2ae78a5f" y="409.5"/>
      </g>
     </g>
     <g id="text_16">
      <!-- 2025 -->
      <g transform="translate(144.693182 424.098437)scale(0.1 -0.1)">
       <use xlink:href="#DejaVuSans-50"/>
       <use x="63.623047" xlink:href="#DejaVuSans-48"/>
       <use x="127.246094" xlink:href="#DejaVuSans-50"/>
       <use x="190.869141" xlink:href="#DejaVuSans-53"/>
      </g>
     </g>
    </g>
    <g id="xtick_17">
     <g id="line2d_39">
      <g>
       <use style="stroke:#000000;stroke-width:0.8;" x="190.390909" xlink:href="#mab2ae78a5f" y="409.5"/>
      </g>
     </g>
     <g id="text_17">
      <!-- 2030 -->
      <defs>
       <path d="M 40.578125 39.3125 
Q 47.65625 37.796875 51.625 33 
Q 55.609375 28.21875 55.609375 21.1875 
Q 55.609375 10.40625 48.1875 4.484375 
Q 40.765625 -1.421875 27.09375 -1.421875 
Q 22.515625 -1.421875 17.65625 -0.515625 
Q 12.796875 0.390625 7.625 2.203125 
L 7.625 11.71875 
Q 11.71875 9.328125 16.59375 8.109375 
Q 21.484375 6.890625 26.8125 6.890625 
Q 36.078125 6.890625 40.9375 10.546875 
Q 45.796875 14.203125 45.796875 21.1875 
Q 45.796875 27.640625 41.28125 31.265625 
Q 36.765625 34.90625 28.71875 34.90625 
L 20.21875 34.90625 
L 20.21875 43.015625 
L 29.109375 43.015625 
Q 36.375 43.015625 40.234375 45.921875 
Q 44.09375 48.828125 44.09375 54.296875 
Q 44.09375 59.90625 40.109375 62.90625 
Q 36.140625 65.921875 28.71875 65.921875 
Q 24.65625 65.921875 20.015625 65.03125 
Q 15.375 64.15625 9.8125 62.3125 
L 9.8125 71.09375 
Q 15.4375 72.65625 20.34375 73.4375 
Q 25.25 74.21875 29.59375 74.21875 
Q 40.828125 74.21875 47.359375 69.109375 
Q 53.90625 64.015625 53.90625 55.328125 
Q 53.90625 49.265625 50.4375 45.09375 
Q 46.96875 40.921875 40.578125 39.3125 
z
" id="DejaVuSans-51"/>
      </defs>
      <g transform="translate(177.665909 424.098437)scale(0.1 -0.1)">
       <use xlink:href="#DejaVuSans-50"/>
       <use x="63.623047" xlink:href="#DejaVuSans-48"/>
       <use x="127.246094" xlink:href="#DejaVuSans-51"/>
       <use x="190.869141" xlink:href="#DejaVuSans-48"/>
      </g>
     </g>
    </g>
    <g id="xtick_18">
     <g id="line2d_40">
      <g>
       <use style="stroke:#000000;stroke-width:0.8;" x="223.363636" xlink:href="#mab2ae78a5f" y="409.5"/>
      </g>
     </g>
     <g id="text_18">
      <!-- 2035 -->
      <g transform="translate(210.638636 424.098437)scale(0.1 -0.1)">
       <use xlink:href="#DejaVuSans-50"/>
       <use x="63.623047" xlink:href="#DejaVuSans-48"/>
       <use x="127.246094" xlink:href="#DejaVuSans-51"/>
       <use x="190.869141" xlink:href="#DejaVuSans-53"/>
      </g>
     </g>
    </g>
   </g>
   <g id="matplotlib.axis_6">
    <g id="ytick_19">
     <g id="line2d_41">
      <g>
       <use style="stroke:#000000;stroke-width:0.8;" x="58.5" xlink:href="#m51f2c8b13b" y="409.5"/>
      </g>
     </g>
     <g id="text_19">
      <!-- 0.0 -->
      <g transform="translate(35.596875 413.299219)scale(0.1 -0.1)">
       <use xlink:href="#DejaVuSans-48"/>
       <use x="63.623047" xlink:href="#DejaVuSans-46"/>
       <use x="95.410156" xlink:href="#DejaVuSans-48"/>
      </g>
     </g>
    </g>
    <g id="ytick_20">
     <g id="line2d_42">
      <g>
       <use style="stroke:#000000;stroke-width:0.8;" x="58.5" xlink:href="#m51f2c8b13b" y="389.423864"/>
      </g>
     </g>
     <g id="text_20">
      <!-- 2.5 -->
      <g transform="translate(35.596875 393.223082)scale(0.1 -0.1)">
       <use xlink:href="#DejaVuSans-50"/>
       <use x="63.623047" xlink:href="#DejaVuSans-46"/>
       <use x="95.410156" xlink:href="#DejaVuSans-53"/>
      </g>
     </g>
    </g>
    <g id="ytick_21">
     <g id="line2d_43">
      <g>
       <use style="stroke:#000000;stroke-width:0.8;" x="58.5" xlink:href="#m51f2c8b13b" y="369.347727"/>
      </g>
     </g>
     <g id="text_21">
      <!-- 5.0 -->
      <g transform="translate(35.596875 373.146946)scale(0.1 -0.1)">
       <use xlink:href="#DejaVuSans-53"/>
       <use x="63.623047" xlink:href="#DejaVuSans-46"/>
       <use x="95.410156" xlink:href="#DejaVuSans-48"/>
      </g>
     </g>
    </g>
    <g id="ytick_22">
     <g id="line2d_44">
      <g>
       <use style="stroke:#000000;stroke-width:0.8;" x="58.5" xlink:href="#m51f2c8b13b" y="349.271591"/>
      </g>
     </g>
     <g id="text_22">
      <!-- 7.5 -->
      <g transform="translate(35.596875 353.07081)scale(0.1 -0.1)">
       <use xlink:href="#DejaVuSans-55"/>
       <use x="63.623047" xlink:href="#DejaVuSans-46"/>
       <use x="95.410156" xlink:href="#DejaVuSans-53"/>
      </g>
     </g>
    </g>
    <g id="ytick_23">
     <g id="line2d_45">
      <g>
       <use style="stroke:#000000;stroke-width:0.8;" x="58.5" xlink:href="#m51f2c8b13b" y="329.195455"/>
      </g>
     </g>
     <g id="text_23">
      <!-- 10.0 -->
      <g transform="translate(29.234375 332.994673)scale(0.1 -0.1)">
       <use xlink:href="#DejaVuSans-49"/>
       <use x="63.623047" xlink:href="#DejaVuSans-48"/>
       <use x="127.246094" xlink:href="#DejaVuSans-46"/>
       <use x="159.033203" xlink:href="#DejaVuSans-48"/>
      </g>
     </g>
    </g>
    <g id="ytick_24">
     <g id="line2d_46">
      <g>
       <use style="stroke:#000000;stroke-width:0.8;" x="58.5" xlink:href="#m51f2c8b13b" y="309.119318"/>
      </g>
     </g>
     <g id="text_24">
      <!-- 12.5 -->
      <g transform="translate(29.234375 312.918537)scale(0.1 -0.1)">
       <use xlink:href="#DejaVuSans-49"/>
       <use x="63.623047" xlink:href="#DejaVuSans-50"/>
       <use x="127.246094" xlink:href="#DejaVuSans-46"/>
       <use x="159.033203" xlink:href="#DejaVuSans-53"/>
      </g>
     </g>
    </g>
    <g id="ytick_25">
     <g id="line2d_47">
      <g>
       <use style="stroke:#000000;stroke-width:0.8;" x="58.5" xlink:href="#m51f2c8b13b" y="289.043182"/>
      </g>
     </g>
     <g id="text_25">
      <!-- 15.0 -->
      <g transform="translate(29.234375 292.842401)scale(0.1 -0.1)">
       <use xlink:href="#DejaVuSans-49"/>
       <use x="63.623047" xlink:href="#DejaVuSans-53"/>
       <use x="127.246094" xlink:href="#DejaVuSans-46"/>
       <use x="159.033203" xlink:href="#DejaVuSans-48"/>
      </g>
     </g>
    </g>
    <g id="ytick_26">
     <g id="line2d_48">
      <g>
       <use style="stroke:#000000;stroke-width:0.8;" x="58.5" xlink:href="#m51f2c8b13b" y="268.967045"/>
      </g>
     </g>
     <g id="text_26">
      <!-- 17.5 -->
      <g transform="translate(29.234375 272.766264)scale(0.1 -0.1)">
       <use xlink:href="#DejaVuSans-49"/>
       <use x="63.623047" xlink:href="#DejaVuSans-55"/>
       <use x="127.246094" xlink:href="#DejaVuSans-46"/>
       <use x="159.033203" xlink:href="#DejaVuSans-53"/>
      </g>
     </g>
    </g>
    <g id="ytick_27">
     <g id="line2d_49">
      <g>
       <use style="stroke:#000000;stroke-width:0.8;" x="58.5" xlink:href="#m51f2c8b13b" y="248.890909"/>
      </g>
     </g>
     <g id="text_27">
      <!-- 20.0 -->
      <g transform="translate(29.234375 252.690128)scale(0.1 -0.1)">
       <use xlink:href="#DejaVuSans-50"/>
       <use x="63.623047" xlink:href="#DejaVuSans-48"/>
       <use x="127.246094" xlink:href="#DejaVuSans-46"/>
       <use x="159.033203" xlink:href="#DejaVuSans-48"/>
      </g>
     </g>
    </g>
    <g id="text_28">
     <!-- Cumulative installed capacity [MWp] -->
     <g transform="translate(23.154687 421.158736)rotate(-90)scale(0.1 -0.1)">
      <use xlink:href="#DejaVuSans-67"/>
      <use x="69.824219" xlink:href="#DejaVuSans-117"/>
      <use x="133.203125" xlink:href="#DejaVuSans-109"/>
      <use x="230.615234" xlink:href="#DejaVuSans-117"/>
      <use x="293.994141" xlink:href="#DejaVuSans-108"/>
      <use x="321.777344" xlink:href="#DejaVuSans-97"/>
      <use x="383.056641" xlink:href="#DejaVuSans-116"/>
      <use x="422.265625" xlink:href="#DejaVuSans-105"/>
      <use x="450.048828" xlink:href="#DejaVuSans-118"/>
      <use x="509.228516" xlink:href="#DejaVuSans-101"/>
      <use x="570.751953" xlink:href="#DejaVuSans-32"/>
      <use x="602.539062" xlink:href="#DejaVuSans-105"/>
      <use x="630.322266" xlink:href="#DejaVuSans-110"/>
      <use x="693.701172" xlink:href="#DejaVuSans-115"/>
      <use x="745.800781" xlink:href="#DejaVuSans-116"/>
      <use x="785.009766" xlink:href="#DejaVuSans-97"/>
      <use x="846.289062" xlink:href="#DejaVuSans-108"/>
      <use x="874.072266" xlink:href="#DejaVuSans-108"/>
      <use x="901.855469" xlink:href="#DejaVuSans-101"/>
      <use x="963.378906" xlink:href="#DejaVuSans-100"/>
      <use x="1026.855469" xlink:href="#DejaVuSans-32"/>
      <use x="1058.642578" xlink:href="#DejaVuSans-99"/>
      <use x="1113.623047" xlink:href="#DejaVuSans-97"/>
      <use x="1174.902344" xlink:href="#DejaVuSans-112"/>
      <use x="1238.378906" xlink:href="#DejaVuSans-97"/>
      <use x="1299.658203" xlink:href="#DejaVuSans-99"/>
      <use x="1354.638672" xlink:href="#DejaVuSans-105"/>
      <use x="1382.421875" xlink:href="#DejaVuSans-116"/>
      <use x="1421.630859" xlink:href="#DejaVuSans-121"/>
      <use x="1480.810547" xlink:href="#DejaVuSans-32"/>
      <use x="1512.597656" xlink:href="#DejaVuSans-91"/>
      <use x="1551.611328" xlink:href="#DejaVuSans-77"/>
      <use x="1637.890625" xlink:href="#DejaVuSans-87"/>
      <use x="1736.767578" xlink:href="#DejaVuSans-112"/>
      <use x="1800.244141" xlink:href="#DejaVuSans-93"/>
     </g>
    </g>
   </g>
   <g id="line2d_50">
    <path clip-path="url(#pa94c924175)" d="M 58.5 409.5 
L 65.094545 409.5 
L 71.689091 409.5 
L 78.283636 406.275772 
L 84.878182 398.943967 
L 91.472727 394.695857 
L 98.067273 393.479243 
L 104.661818 393.23833 
L 111.256364 389.789249 
L 117.850909 385.91857 
L 124.445455 382.983439 
L 131.04 382.027815 
L 137.634545 380.96378 
L 144.229091 379.723075 
L 150.823636 377.309923 
L 157.418182 375.599436 
L 164.012727 373.740386 
L 170.607273 371.96164 
L 177.201818 366.713738 
L 183.796364 364.63385 
L 190.390909 357.832055 
L 196.985455 357.073177 
L 203.58 356.703777 
L 210.174545 351.492012 
L 216.769091 349.825692 
L 223.363636 348.584987 
" style="fill:none;stroke:#0000ff;stroke-linecap:square;stroke-width:1.5;"/>
   </g>
   <g id="line2d_51">
    <path clip-path="url(#pa94c924175)" d="M 58.5 409.5 
L 65.094545 409.5 
L 71.689091 409.5 
L 78.283636 409.5 
L 84.878182 409.5 
L 91.472727 409.5 
L 98.067273 409.5 
L 104.661818 409.5 
L 111.256364 409.5 
L 117.850909 409.5 
L 124.445455 409.5 
L 131.04 409.5 
L 137.634545 409.5 
L 144.229091 409.5 
L 150.823636 406.773661 
L 157.418182 405.348255 
L 164.012727 404.011184 
L 170.607273 401.762657 
L 177.201818 400.309145 
L 183.796364 396.819912 
L 190.390909 391.592086 
L 196.985455 389.122722 
L 203.58 386.452595 
L 210.174545 385.561215 
L 216.769091 381.810993 
L 223.363636 376.659456 
" style="fill:none;stroke:#ff0000;stroke-linecap:square;stroke-width:1.5;"/>
   </g>
   <g id="patch_13">
    <path d="M 58.5 409.5 
L 58.5 248.890909 
" style="fill:none;stroke:#000000;stroke-linecap:square;stroke-linejoin:miter;stroke-width:0.8;"/>
   </g>
   <g id="patch_14">
    <path d="M 223.363636 409.5 
L 223.363636 248.890909 
" style="fill:none;stroke:#000000;stroke-linecap:square;stroke-linejoin:miter;stroke-width:0.8;"/>
   </g>
   <g id="patch_15">
    <path d="M 58.5 409.5 
L 223.363636 409.5 
" style="fill:none;stroke:#000000;stroke-linecap:square;stroke-linejoin:miter;stroke-width:0.8;"/>
   </g>
   <g id="patch_16">
    <path d="M 58.5 248.890909 
L 223.363636 248.890909 
" style="fill:none;stroke:#000000;stroke-linecap:square;stroke-linejoin:miter;stroke-width:0.8;"/>
   </g>
   <g id="text_29">
    <!-- ZEV -->
    <defs>
     <path d="M 5.609375 72.90625 
L 62.890625 72.90625 
L 62.890625 65.375 
L 16.796875 8.296875 
L 64.015625 8.296875 
L 64.015625 0 
L 4.5 0 
L 4.5 7.515625 
L 50.59375 64.59375 
L 5.609375 64.59375 
z
" id="DejaVuSans-90"/>
     <path d="M 9.8125 72.90625 
L 55.90625 72.90625 
L 55.90625 64.59375 
L 19.671875 64.59375 
L 19.671875 43.015625 
L 54.390625 43.015625 
L 54.390625 34.71875 
L 19.671875 34.71875 
L 19.671875 8.296875 
L 56.78125 8.296875 
L 56.78125 0 
L 9.8125 0 
z
" id="DejaVuSans-69"/>
     <path d="M 28.609375 0 
L 0.78125 72.90625 
L 11.078125 72.90625 
L 34.1875 11.53125 
L 57.328125 72.90625 
L 67.578125 72.90625 
L 39.796875 0 
z
" id="DejaVuSans-86"/>
    </defs>
    <g transform="translate(128.926193 242.890909)scale(0.12 -0.12)">
     <use xlink:href="#DejaVuSans-90"/>
     <use x="68.505859" xlink:href="#DejaVuSans-69"/>
     <use x="131.689453" xlink:href="#DejaVuSans-86"/>
    </g>
   </g>
   <g id="legend_1">
    <g id="patch_17">
     <path d="M 100.653125 450.460881 
L 379.046875 450.460881 
Q 381.046875 450.460881 381.046875 448.460881 
L 381.046875 434.782756 
Q 381.046875 432.782756 379.046875 432.782756 
L 100.653125 432.782756 
Q 98.653125 432.782756 98.653125 434.782756 
L 98.653125 448.460881 
Q 98.653125 450.460881 100.653125 450.460881 
z
" style="fill:#ffffff;opacity:0.8;stroke:#cccccc;stroke-linejoin:miter;"/>
    </g>
    <g id="line2d_52">
     <path d="M 102.653125 440.881193 
L 122.653125 440.881193 
" style="fill:none;stroke:#0000ff;stroke-linecap:square;stroke-width:1.5;"/>
    </g>
    <g id="line2d_53"/>
    <g id="text_30">
     <!-- Individual adoption -->
     <defs>
      <path d="M 30.609375 48.390625 
Q 23.390625 48.390625 19.1875 42.75 
Q 14.984375 37.109375 14.984375 27.296875 
Q 14.984375 17.484375 19.15625 11.84375 
Q 23.34375 6.203125 30.609375 6.203125 
Q 37.796875 6.203125 41.984375 11.859375 
Q 46.1875 17.53125 46.1875 27.296875 
Q 46.1875 37.015625 41.984375 42.703125 
Q 37.796875 48.390625 30.609375 48.390625 
z
M 30.609375 56 
Q 42.328125 56 49.015625 48.375 
Q 55.71875 40.765625 55.71875 27.296875 
Q 55.71875 13.875 49.015625 6.21875 
Q 42.328125 -1.421875 30.609375 -1.421875 
Q 18.84375 -1.421875 12.171875 6.21875 
Q 5.515625 13.875 5.515625 27.296875 
Q 5.515625 40.765625 12.171875 48.375 
Q 18.84375 56 30.609375 56 
z
" id="DejaVuSans-111"/>
     </defs>
     <g transform="translate(130.653125 444.381193)scale(0.1 -0.1)">
      <use xlink:href="#DejaVuSans-73"/>
      <use x="29.492188" xlink:href="#DejaVuSans-110"/>
      <use x="92.871094" xlink:href="#DejaVuSans-100"/>
      <use x="156.347656" xlink:href="#DejaVuSans-105"/>
      <use x="184.130859" xlink:href="#DejaVuSans-118"/>
      <use x="243.310547" xlink:href="#DejaVuSans-105"/>
      <use x="271.09375" xlink:href="#DejaVuSans-100"/>
      <use x="334.570312" xlink:href="#DejaVuSans-117"/>
      <use x="397.949219" xlink:href="#DejaVuSans-97"/>
      <use x="459.228516" xlink:href="#DejaVuSans-108"/>
      <use x="487.011719" xlink:href="#DejaVuSans-32"/>
      <use x="518.798828" xlink:href="#DejaVuSans-97"/>
      <use x="580.078125" xlink:href="#DejaVuSans-100"/>
      <use x="643.554688" xlink:href="#DejaVuSans-111"/>
      <use x="704.736328" xlink:href="#DejaVuSans-112"/>
      <use x="768.212891" xlink:href="#DejaVuSans-116"/>
      <use x="807.421875" xlink:href="#DejaVuSans-105"/>
      <use x="835.205078" xlink:href="#DejaVuSans-111"/>
      <use x="896.386719" xlink:href="#DejaVuSans-110"/>
     </g>
    </g>
    <g id="line2d_54">
     <path d="M 246.632812 440.881193 
L 266.632812 440.881193 
" style="fill:none;stroke:#ff0000;stroke-linecap:square;stroke-width:1.5;"/>
    </g>
    <g id="line2d_55"/>
    <g id="text_31">
     <!-- Community systems -->
     <g transform="translate(274.632812 444.381193)scale(0.1 -0.1)">
      <use xlink:href="#DejaVuSans-67"/>
      <use x="69.824219" xlink:href="#DejaVuSans-111"/>
      <use x="131.005859" xlink:href="#DejaVuSans-109"/>
      <use x="228.417969" xlink:href="#DejaVuSans-109"/>
      <use x="325.830078" xlink:href="#DejaVuSans-117"/>
      <use x="389.208984" xlink:href="#DejaVuSans-110"/>
      <use x="452.587891" xlink:href="#DejaVuSans-105"/>
      <use x="480.371094" xlink:href="#DejaVuSans-116"/>
      <use x="519.580078" xlink:href="#DejaVuSans-121"/>
      <use x="578.759766" xlink:href="#DejaVuSans-32"/>
      <use x="610.546875" xlink:href="#DejaVuSans-115"/>
      <use x="662.646484" xlink:href="#DejaVuSans-121"/>
      <use x="721.826172" xlink:href="#DejaVuSans-115"/>
      <use x="773.925781" xlink:href="#DejaVuSans-116"/>
      <use x="813.134766" xlink:href="#DejaVuSans-101"/>
      <use x="874.658203" xlink:href="#DejaVuSans-109"/>
      <use x="972.070312" xlink:href="#DejaVuSans-115"/>
     </g>
    </g>
   </g>
  </g>
  <g id="axes_4">
   <g id="patch_18">
    <path d="M 256.336364 409.5 
L 421.2 409.5 
L 421.2 248.890909 
L 256.336364 248.890909 
z
" style="fill:#ffffff;"/>
   </g>
   <g id="PolyCollection_7">
    <defs>
     <path d="M 256.336364 -58.5 
L 256.336364 -58.5 
L 262.930909 -58.5 
L 269.525455 -58.5 
L 276.12 -58.5 
L 282.714545 -61.107087 
L 289.309091 -64.582266 
L 295.903636 -65.059275 
L 302.498182 -66.391528 
L 309.092727 -67.260824 
L 315.687273 -70.739617 
L 322.281818 -71.178482 
L 328.876364 -71.359167 
L 335.470909 -73.440661 
L 342.065455 -74.358943 
L 348.66 -76.254532 
L 355.254545 -77.927677 
L 361.849091 -77.693991 
L 368.443636 -81.037069 
L 375.038182 -82.150492 
L 381.632727 -84.98725 
L 388.227273 -89.091615 
L 394.821818 -90.73826 
L 401.416364 -90.90449 
L 408.010909 -90.947855 
L 414.605455 -91.786234 
L 421.2 -93.054644 
L 421.2 -217.327535 
L 421.2 -217.327535 
L 414.605455 -192.250031 
L 408.010909 -176.571372 
L 401.416364 -160.081636 
L 394.821818 -142.445554 
L 388.227273 -137.914771 
L 381.632727 -135.22216 
L 375.038182 -125.926106 
L 368.443636 -124.226861 
L 361.849091 -123.078908 
L 355.254545 -121.874741 
L 348.66 -116.538906 
L 342.065455 -112.11533 
L 335.470909 -111.670844 
L 328.876364 -111.179782 
L 322.281818 -107.438393 
L 315.687273 -106.833298 
L 309.092727 -100.732562 
L 302.498182 -95.813909 
L 295.903636 -92.015504 
L 289.309091 -88.316676 
L 282.714545 -80.813019 
L 276.12 -72.33567 
L 269.525455 -69.207407 
L 262.930909 -58.5 
L 256.336364 -58.5 
z
" id="m09c9fdf0e5" style="stroke:#0000ff;stroke-opacity:0.5;"/>
    </defs>
    <g clip-path="url(#pce84adb1c7)">
     <use style="fill:#0000ff;fill-opacity:0.5;stroke:#0000ff;stroke-opacity:0.5;" x="0" xlink:href="#m09c9fdf0e5" y="468"/>
    </g>
   </g>
   <g id="PolyCollection_8">
    <defs>
     <path d="M 256.336364 -58.5 
L 256.336364 -58.5 
L 262.930909 -58.5 
L 269.525455 -58.5 
L 276.12 -58.5 
L 282.714545 -58.5 
L 289.309091 -58.5 
L 295.903636 -58.5 
L 302.498182 -58.5 
L 309.092727 -58.5 
L 315.687273 -58.5 
L 322.281818 -58.5 
L 328.876364 -58.5 
L 335.470909 -58.5 
L 342.065455 -58.5 
L 348.66 -58.5 
L 355.254545 -58.5 
L 361.849091 -58.5 
L 368.443636 -58.5 
L 375.038182 -59.417078 
L 381.632727 -60.26148 
L 388.227273 -61.921375 
L 394.821818 -61.921375 
L 401.416364 -63.488518 
L 408.010909 -63.488518 
L 414.605455 -64.06109 
L 421.2 -64.06109 
L 421.2 -163.046882 
L 421.2 -163.046882 
L 414.605455 -153.531596 
L 408.010909 -140.908525 
L 401.416364 -129.524151 
L 394.821818 -120.054237 
L 388.227273 -108.469503 
L 381.632727 -93.634443 
L 375.038182 -87.351014 
L 368.443636 -81.4406 
L 361.849091 -75.581178 
L 355.254545 -74.238486 
L 348.66 -71.985542 
L 342.065455 -70.121272 
L 335.470909 -69.891601 
L 328.876364 -69.891601 
L 322.281818 -67.217058 
L 315.687273 -62.67423 
L 309.092727 -58.5 
L 302.498182 -58.5 
L 295.903636 -58.5 
L 289.309091 -58.5 
L 282.714545 -58.5 
L 276.12 -58.5 
L 269.525455 -58.5 
L 262.930909 -58.5 
L 256.336364 -58.5 
z
" id="mc2e8b8cd6f" style="stroke:#ff0000;stroke-opacity:0.5;"/>
    </defs>
    <g clip-path="url(#pce84adb1c7)">
     <use style="fill:#ff0000;fill-opacity:0.5;stroke:#ff0000;stroke-opacity:0.5;" x="0" xlink:href="#mc2e8b8cd6f" y="468"/>
    </g>
   </g>
   <g id="matplotlib.axis_7">
    <g id="xtick_19">
     <g id="line2d_56">
      <g>
       <use style="stroke:#000000;stroke-width:0.8;" x="256.336364" xlink:href="#mab2ae78a5f" y="409.5"/>
      </g>
     </g>
     <g id="text_32">
      <!-- 2010 -->
      <g transform="translate(243.611364 424.098437)scale(0.1 -0.1)">
       <use xlink:href="#DejaVuSans-50"/>
       <use x="63.623047" xlink:href="#DejaVuSans-48"/>
       <use x="127.246094" xlink:href="#DejaVuSans-49"/>
       <use x="190.869141" xlink:href="#DejaVuSans-48"/>
      </g>
     </g>
    </g>
    <g id="xtick_20">
     <g id="line2d_57">
      <g>
       <use style="stroke:#000000;stroke-width:0.8;" x="289.309091" xlink:href="#mab2ae78a5f" y="409.5"/>
      </g>
     </g>
     <g id="text_33">
      <!-- 2015 -->
      <g transform="translate(276.584091 424.098437)scale(0.1 -0.1)">
       <use xlink:href="#DejaVuSans-50"/>
       <use x="63.623047" xlink:href="#DejaVuSans-48"/>
       <use x="127.246094" xlink:href="#DejaVuSans-49"/>
       <use x="190.869141" xlink:href="#DejaVuSans-53"/>
      </g>
     </g>
    </g>
    <g id="xtick_21">
     <g id="line2d_58">
      <g>
       <use style="stroke:#000000;stroke-width:0.8;" x="322.281818" xlink:href="#mab2ae78a5f" y="409.5"/>
      </g>
     </g>
     <g id="text_34">
      <!-- 2020 -->
      <g transform="translate(309.556818 424.098437)scale(0.1 -0.1)">
       <use xlink:href="#DejaVuSans-50"/>
       <use x="63.623047" xlink:href="#DejaVuSans-48"/>
       <use x="127.246094" xlink:href="#DejaVuSans-50"/>
       <use x="190.869141" xlink:href="#DejaVuSans-48"/>
      </g>
     </g>
    </g>
    <g id="xtick_22">
     <g id="line2d_59">
      <g>
       <use style="stroke:#000000;stroke-width:0.8;" x="355.254545" xlink:href="#mab2ae78a5f" y="409.5"/>
      </g>
     </g>
     <g id="text_35">
      <!-- 2025 -->
      <g transform="translate(342.529545 424.098437)scale(0.1 -0.1)">
       <use xlink:href="#DejaVuSans-50"/>
       <use x="63.623047" xlink:href="#DejaVuSans-48"/>
       <use x="127.246094" xlink:href="#DejaVuSans-50"/>
       <use x="190.869141" xlink:href="#DejaVuSans-53"/>
      </g>
     </g>
    </g>
    <g id="xtick_23">
     <g id="line2d_60">
      <g>
       <use style="stroke:#000000;stroke-width:0.8;" x="388.227273" xlink:href="#mab2ae78a5f" y="409.5"/>
      </g>
     </g>
     <g id="text_36">
      <!-- 2030 -->
      <g transform="translate(375.502273 424.098437)scale(0.1 -0.1)">
       <use xlink:href="#DejaVuSans-50"/>
       <use x="63.623047" xlink:href="#DejaVuSans-48"/>
       <use x="127.246094" xlink:href="#DejaVuSans-51"/>
       <use x="190.869141" xlink:href="#DejaVuSans-48"/>
      </g>
     </g>
    </g>
    <g id="xtick_24">
     <g id="line2d_61">
      <g>
       <use style="stroke:#000000;stroke-width:0.8;" x="421.2" xlink:href="#mab2ae78a5f" y="409.5"/>
      </g>
     </g>
     <g id="text_37">
      <!-- 2035 -->
      <g transform="translate(408.475 424.098437)scale(0.1 -0.1)">
       <use xlink:href="#DejaVuSans-50"/>
       <use x="63.623047" xlink:href="#DejaVuSans-48"/>
       <use x="127.246094" xlink:href="#DejaVuSans-51"/>
       <use x="190.869141" xlink:href="#DejaVuSans-53"/>
      </g>
     </g>
    </g>
   </g>
   <g id="matplotlib.axis_8">
    <g id="ytick_28">
     <g id="line2d_62">
      <g>
       <use style="stroke:#000000;stroke-width:0.8;" x="256.336364" xlink:href="#m51f2c8b13b" y="409.5"/>
      </g>
     </g>
    </g>
    <g id="ytick_29">
     <g id="line2d_63">
      <g>
       <use style="stroke:#000000;stroke-width:0.8;" x="256.336364" xlink:href="#m51f2c8b13b" y="389.423864"/>
      </g>
     </g>
    </g>
    <g id="ytick_30">
     <g id="line2d_64">
      <g>
       <use style="stroke:#000000;stroke-width:0.8;" x="256.336364" xlink:href="#m51f2c8b13b" y="369.347727"/>
      </g>
     </g>
    </g>
    <g id="ytick_31">
     <g id="line2d_65">
      <g>
       <use style="stroke:#000000;stroke-width:0.8;" x="256.336364" xlink:href="#m51f2c8b13b" y="349.271591"/>
      </g>
     </g>
    </g>
    <g id="ytick_32">
     <g id="line2d_66">
      <g>
       <use style="stroke:#000000;stroke-width:0.8;" x="256.336364" xlink:href="#m51f2c8b13b" y="329.195455"/>
      </g>
     </g>
    </g>
    <g id="ytick_33">
     <g id="line2d_67">
      <g>
       <use style="stroke:#000000;stroke-width:0.8;" x="256.336364" xlink:href="#m51f2c8b13b" y="309.119318"/>
      </g>
     </g>
    </g>
    <g id="ytick_34">
     <g id="line2d_68">
      <g>
       <use style="stroke:#000000;stroke-width:0.8;" x="256.336364" xlink:href="#m51f2c8b13b" y="289.043182"/>
      </g>
     </g>
    </g>
    <g id="ytick_35">
     <g id="line2d_69">
      <g>
       <use style="stroke:#000000;stroke-width:0.8;" x="256.336364" xlink:href="#m51f2c8b13b" y="268.967045"/>
      </g>
     </g>
    </g>
    <g id="ytick_36">
     <g id="line2d_70">
      <g>
       <use style="stroke:#000000;stroke-width:0.8;" x="256.336364" xlink:href="#m51f2c8b13b" y="248.890909"/>
      </g>
     </g>
    </g>
   </g>
   <g id="line2d_71">
    <path clip-path="url(#pce84adb1c7)" d="M 256.336364 409.5 
L 262.930909 409.5 
L 269.525455 409.5 
L 276.12 406.275772 
L 282.714545 398.943967 
L 289.309091 394.695857 
L 295.903636 393.479243 
L 302.498182 393.23833 
L 309.092727 389.789249 
L 315.687273 385.91857 
L 322.281818 382.983439 
L 328.876364 382.027815 
L 335.470909 380.96378 
L 342.065455 379.723075 
L 348.66 377.309923 
L 355.254545 375.599436 
L 361.849091 373.740386 
L 368.443636 371.96164 
L 375.038182 366.713738 
L 381.632727 364.63385 
L 388.227273 357.832055 
L 394.821818 357.20568 
L 401.416364 356.784081 
L 408.010909 351.688758 
L 414.605455 349.905997 
L 421.2 348.584987 
" style="fill:none;stroke:#0000ff;stroke-linecap:square;stroke-width:1.5;"/>
   </g>
   <g id="line2d_72">
    <path clip-path="url(#pce84adb1c7)" d="M 256.336364 409.5 
L 262.930909 409.5 
L 269.525455 409.5 
L 276.12 409.5 
L 282.714545 409.5 
L 289.309091 409.5 
L 295.903636 409.5 
L 302.498182 409.5 
L 309.092727 409.5 
L 315.687273 409.5 
L 322.281818 409.5 
L 328.876364 409.5 
L 335.470909 409.5 
L 342.065455 409.5 
L 348.66 406.773661 
L 355.254545 405.348255 
L 361.849091 404.011184 
L 368.443636 401.762657 
L 375.038182 400.309145 
L 381.632727 396.819912 
L 388.227273 391.592086 
L 394.821818 389.122722 
L 401.416364 386.452595 
L 408.010909 385.561215 
L 414.605455 381.810993 
L 421.2 376.659456 
" style="fill:none;stroke:#ff0000;stroke-linecap:square;stroke-width:1.5;"/>
   </g>
   <g id="patch_19">
    <path d="M 256.336364 409.5 
L 256.336364 248.890909 
" style="fill:none;stroke:#000000;stroke-linecap:square;stroke-linejoin:miter;stroke-width:0.8;"/>
   </g>
   <g id="patch_20">
    <path d="M 421.2 409.5 
L 421.2 248.890909 
" style="fill:none;stroke:#000000;stroke-linecap:square;stroke-linejoin:miter;stroke-width:0.8;"/>
   </g>
   <g id="patch_21">
    <path d="M 256.336364 409.5 
L 421.2 409.5 
" style="fill:none;stroke:#000000;stroke-linecap:square;stroke-linejoin:miter;stroke-width:0.8;"/>
   </g>
   <g id="patch_22">
    <path d="M 256.336364 248.890909 
L 421.2 248.890909 
" style="fill:none;stroke:#000000;stroke-linecap:square;stroke-linejoin:miter;stroke-width:0.8;"/>
   </g>
   <g id="text_38">
    <!-- ZEV+ -->
    <defs>
     <path d="M 46 62.703125 
L 46 35.5 
L 73.1875 35.5 
L 73.1875 27.203125 
L 46 27.203125 
L 46 0 
L 37.796875 0 
L 37.796875 27.203125 
L 10.59375 27.203125 
L 10.59375 35.5 
L 37.796875 35.5 
L 37.796875 62.703125 
z
" id="DejaVuSans-43"/>
    </defs>
    <g transform="translate(321.734744 242.890909)scale(0.12 -0.12)">
     <use xlink:href="#DejaVuSans-90"/>
     <use x="68.505859" xlink:href="#DejaVuSans-69"/>
     <use x="131.689453" xlink:href="#DejaVuSans-86"/>
     <use x="200.097656" xlink:href="#DejaVuSans-43"/>
    </g>
   </g>
  </g>
 </g>
 <defs>
  <clipPath id="p2063c1c9f8">
   <rect height="160.609091" width="164.863636" x="58.5" y="56.16"/>
  </clipPath>
  <clipPath id="pa0f4a31097">
   <rect height="160.609091" width="164.863636" x="256.336364" y="56.16"/>
  </clipPath>
  <clipPath id="pa94c924175">
   <rect height="160.609091" width="164.863636" x="58.5" y="248.890909"/>
  </clipPath>
  <clipPath id="pce84adb1c7">
   <rect height="160.609091" width="164.863636" x="256.336364" y="248.890909"/>
  </clipPath>
 </defs>
</svg>
