<?xml version="1.0" encoding="utf-8" standalone="no"?>
<!DOCTYPE svg PUBLIC "-//W3C//DTD SVG 1.1//EN"
  "http://www.w3.org/Graphics/SVG/1.1/DTD/svg11.dtd">
<!-- Created with matplotlib (https://matplotlib.org/) -->
<svg height="864pt" version="1.1" viewBox="0 0 720 864" width="720pt" xmlns="http://www.w3.org/2000/svg" xmlns:xlink="http://www.w3.org/1999/xlink">
 <defs>
  <style type="text/css">
*{stroke-linecap:butt;stroke-linejoin:round;}
  </style>
 </defs>
 <g id="figure_1">
  <g id="patch_1">
   <path d="M 0 864 
L 720 864 
L 720 0 
L 0 0 
z
" style="fill:#ffffff;"/>
  </g>
  <g id="axes_1">
   <g id="patch_2">
    <path d="M 90 321.12 
L 276 321.12 
L 276 103.68 
L 90 103.68 
z
" style="fill:#ffffff;"/>
   </g>
   <g id="PolyCollection_1">
    <defs>
     <path d="M 148.736842 -585.218589 
L 148.736842 -585.218589 
L 168.315789 -572.961979 
L 178.105263 -568.97132 
L 187.894737 -563.204101 
L 197.684211 -564.176165 
L 207.473684 -564.06727 
L 217.263158 -565.385969 
L 227.052632 -566.042949 
L 236.842105 -565.319612 
L 246.631579 -563.001072 
L 256.421053 -563.177784 
L 256.421053 -574.91877 
L 256.421053 -574.91877 
L 246.631579 -573.200017 
L 236.842105 -575.278161 
L 227.052632 -576.541419 
L 217.263158 -574.631974 
L 207.473684 -580.124481 
L 197.684211 -580.124481 
L 187.894737 -570.420876 
L 178.105263 -575.659902 
L 168.315789 -583.449495 
L 148.736842 -585.218589 
z
" id="mf25836a079" style="stroke:#0000ff;stroke-opacity:0.5;"/>
    </defs>
    <g clip-path="url(#p19d0dbaaac)">
     <use style="fill:#0000ff;fill-opacity:0.5;stroke:#0000ff;stroke-opacity:0.5;" x="0" xlink:href="#mf25836a079" y="864"/>
    </g>
   </g>
   <g id="matplotlib.axis_1">
    <g id="xtick_1">
     <g id="line2d_1">
      <defs>
       <path d="M 0 0 
L 0 3.5 
" id="m488a0cdb0e" style="stroke:#000000;stroke-width:0.8;"/>
      </defs>
      <g>
       <use style="stroke:#000000;stroke-width:0.8;" x="90" xlink:href="#m488a0cdb0e" y="321.12"/>
      </g>
     </g>
    </g>
    <g id="xtick_2">
     <g id="line2d_2">
      <g>
       <use style="stroke:#000000;stroke-width:0.8;" x="138.947368" xlink:href="#m488a0cdb0e" y="321.12"/>
      </g>
     </g>
    </g>
    <g id="xtick_3">
     <g id="line2d_3">
      <g>
       <use style="stroke:#000000;stroke-width:0.8;" x="187.894737" xlink:href="#m488a0cdb0e" y="321.12"/>
      </g>
     </g>
    </g>
    <g id="xtick_4">
     <g id="line2d_4">
      <g>
       <use style="stroke:#000000;stroke-width:0.8;" x="236.842105" xlink:href="#m488a0cdb0e" y="321.12"/>
      </g>
     </g>
    </g>
   </g>
   <g id="matplotlib.axis_2">
    <g id="ytick_1">
     <g id="line2d_5">
      <defs>
       <path d="M 0 0 
L -3.5 0 
" id="m5bba010faa" style="stroke:#000000;stroke-width:0.8;"/>
      </defs>
      <g>
       <use style="stroke:#000000;stroke-width:0.8;" x="90" xlink:href="#m5bba010faa" y="321.12"/>
      </g>
     </g>
     <g id="text_1">
      <!-- 0.0 -->
      <defs>
       <path d="M 31.78125 66.40625 
Q 24.171875 66.40625 20.328125 58.90625 
Q 16.5 51.421875 16.5 36.375 
Q 16.5 21.390625 20.328125 13.890625 
Q 24.171875 6.390625 31.78125 6.390625 
Q 39.453125 6.390625 43.28125 13.890625 
Q 47.125 21.390625 47.125 36.375 
Q 47.125 51.421875 43.28125 58.90625 
Q 39.453125 66.40625 31.78125 66.40625 
z
M 31.78125 74.21875 
Q 44.046875 74.21875 50.515625 64.515625 
Q 56.984375 54.828125 56.984375 36.375 
Q 56.984375 17.96875 50.515625 8.265625 
Q 44.046875 -1.421875 31.78125 -1.421875 
Q 19.53125 -1.421875 13.0625 8.265625 
Q 6.59375 17.96875 6.59375 36.375 
Q 6.59375 54.828125 13.0625 64.515625 
Q 19.53125 74.21875 31.78125 74.21875 
z
" id="DejaVuSans-48"/>
       <path d="M 10.6875 12.40625 
L 21 12.40625 
L 21 0 
L 10.6875 0 
z
" id="DejaVuSans-46"/>
      </defs>
      <g transform="translate(67.096875 324.919219)scale(0.1 -0.1)">
       <use xlink:href="#DejaVuSans-48"/>
       <use x="63.623047" xlink:href="#DejaVuSans-46"/>
       <use x="95.410156" xlink:href="#DejaVuSans-48"/>
      </g>
     </g>
    </g>
    <g id="ytick_2">
     <g id="line2d_6">
      <g>
       <use style="stroke:#000000;stroke-width:0.8;" x="90" xlink:href="#m5bba010faa" y="281.585455"/>
      </g>
     </g>
     <g id="text_2">
      <!-- 0.2 -->
      <defs>
       <path d="M 19.1875 8.296875 
L 53.609375 8.296875 
L 53.609375 0 
L 7.328125 0 
L 7.328125 8.296875 
Q 12.9375 14.109375 22.625 23.890625 
Q 32.328125 33.6875 34.8125 36.53125 
Q 39.546875 41.84375 41.421875 45.53125 
Q 43.3125 49.21875 43.3125 52.78125 
Q 43.3125 58.59375 39.234375 62.25 
Q 35.15625 65.921875 28.609375 65.921875 
Q 23.96875 65.921875 18.8125 64.3125 
Q 13.671875 62.703125 7.8125 59.421875 
L 7.8125 69.390625 
Q 13.765625 71.78125 18.9375 73 
Q 24.125 74.21875 28.421875 74.21875 
Q 39.75 74.21875 46.484375 68.546875 
Q 53.21875 62.890625 53.21875 53.421875 
Q 53.21875 48.921875 51.53125 44.890625 
Q 49.859375 40.875 45.40625 35.40625 
Q 44.1875 33.984375 37.640625 27.21875 
Q 31.109375 20.453125 19.1875 8.296875 
z
" id="DejaVuSans-50"/>
      </defs>
      <g transform="translate(67.096875 285.384673)scale(0.1 -0.1)">
       <use xlink:href="#DejaVuSans-48"/>
       <use x="63.623047" xlink:href="#DejaVuSans-46"/>
       <use x="95.410156" xlink:href="#DejaVuSans-50"/>
      </g>
     </g>
    </g>
    <g id="ytick_3">
     <g id="line2d_7">
      <g>
       <use style="stroke:#000000;stroke-width:0.8;" x="90" xlink:href="#m5bba010faa" y="242.050909"/>
      </g>
     </g>
     <g id="text_3">
      <!-- 0.4 -->
      <defs>
       <path d="M 37.796875 64.3125 
L 12.890625 25.390625 
L 37.796875 25.390625 
z
M 35.203125 72.90625 
L 47.609375 72.90625 
L 47.609375 25.390625 
L 58.015625 25.390625 
L 58.015625 17.1875 
L 47.609375 17.1875 
L 47.609375 0 
L 37.796875 0 
L 37.796875 17.1875 
L 4.890625 17.1875 
L 4.890625 26.703125 
z
" id="DejaVuSans-52"/>
      </defs>
      <g transform="translate(67.096875 245.850128)scale(0.1 -0.1)">
       <use xlink:href="#DejaVuSans-48"/>
       <use x="63.623047" xlink:href="#DejaVuSans-46"/>
       <use x="95.410156" xlink:href="#DejaVuSans-52"/>
      </g>
     </g>
    </g>
    <g id="ytick_4">
     <g id="line2d_8">
      <g>
       <use style="stroke:#000000;stroke-width:0.8;" x="90" xlink:href="#m5bba010faa" y="202.516364"/>
      </g>
     </g>
     <g id="text_4">
      <!-- 0.6 -->
      <defs>
       <path d="M 33.015625 40.375 
Q 26.375 40.375 22.484375 35.828125 
Q 18.609375 31.296875 18.609375 23.390625 
Q 18.609375 15.53125 22.484375 10.953125 
Q 26.375 6.390625 33.015625 6.390625 
Q 39.65625 6.390625 43.53125 10.953125 
Q 47.40625 15.53125 47.40625 23.390625 
Q 47.40625 31.296875 43.53125 35.828125 
Q 39.65625 40.375 33.015625 40.375 
z
M 52.59375 71.296875 
L 52.59375 62.3125 
Q 48.875 64.0625 45.09375 64.984375 
Q 41.3125 65.921875 37.59375 65.921875 
Q 27.828125 65.921875 22.671875 59.328125 
Q 17.53125 52.734375 16.796875 39.40625 
Q 19.671875 43.65625 24.015625 45.921875 
Q 28.375 48.1875 33.59375 48.1875 
Q 44.578125 48.1875 50.953125 41.515625 
Q 57.328125 34.859375 57.328125 23.390625 
Q 57.328125 12.15625 50.6875 5.359375 
Q 44.046875 -1.421875 33.015625 -1.421875 
Q 20.359375 -1.421875 13.671875 8.265625 
Q 6.984375 17.96875 6.984375 36.375 
Q 6.984375 53.65625 15.1875 63.9375 
Q 23.390625 74.21875 37.203125 74.21875 
Q 40.921875 74.21875 44.703125 73.484375 
Q 48.484375 72.75 52.59375 71.296875 
z
" id="DejaVuSans-54"/>
      </defs>
      <g transform="translate(67.096875 206.315582)scale(0.1 -0.1)">
       <use xlink:href="#DejaVuSans-48"/>
       <use x="63.623047" xlink:href="#DejaVuSans-46"/>
       <use x="95.410156" xlink:href="#DejaVuSans-54"/>
      </g>
     </g>
    </g>
    <g id="ytick_5">
     <g id="line2d_9">
      <g>
       <use style="stroke:#000000;stroke-width:0.8;" x="90" xlink:href="#m5bba010faa" y="162.981818"/>
      </g>
     </g>
     <g id="text_5">
      <!-- 0.8 -->
      <defs>
       <path d="M 31.78125 34.625 
Q 24.75 34.625 20.71875 30.859375 
Q 16.703125 27.09375 16.703125 20.515625 
Q 16.703125 13.921875 20.71875 10.15625 
Q 24.75 6.390625 31.78125 6.390625 
Q 38.8125 6.390625 42.859375 10.171875 
Q 46.921875 13.96875 46.921875 20.515625 
Q 46.921875 27.09375 42.890625 30.859375 
Q 38.875 34.625 31.78125 34.625 
z
M 21.921875 38.8125 
Q 15.578125 40.375 12.03125 44.71875 
Q 8.5 49.078125 8.5 55.328125 
Q 8.5 64.0625 14.71875 69.140625 
Q 20.953125 74.21875 31.78125 74.21875 
Q 42.671875 74.21875 48.875 69.140625 
Q 55.078125 64.0625 55.078125 55.328125 
Q 55.078125 49.078125 51.53125 44.71875 
Q 48 40.375 41.703125 38.8125 
Q 48.828125 37.15625 52.796875 32.3125 
Q 56.78125 27.484375 56.78125 20.515625 
Q 56.78125 9.90625 50.3125 4.234375 
Q 43.84375 -1.421875 31.78125 -1.421875 
Q 19.734375 -1.421875 13.25 4.234375 
Q 6.78125 9.90625 6.78125 20.515625 
Q 6.78125 27.484375 10.78125 32.3125 
Q 14.796875 37.15625 21.921875 38.8125 
z
M 18.3125 54.390625 
Q 18.3125 48.734375 21.84375 45.5625 
Q 25.390625 42.390625 31.78125 42.390625 
Q 38.140625 42.390625 41.71875 45.5625 
Q 45.3125 48.734375 45.3125 54.390625 
Q 45.3125 60.0625 41.71875 63.234375 
Q 38.140625 66.40625 31.78125 66.40625 
Q 25.390625 66.40625 21.84375 63.234375 
Q 18.3125 60.0625 18.3125 54.390625 
z
" id="DejaVuSans-56"/>
      </defs>
      <g transform="translate(67.096875 166.781037)scale(0.1 -0.1)">
       <use xlink:href="#DejaVuSans-48"/>
       <use x="63.623047" xlink:href="#DejaVuSans-46"/>
       <use x="95.410156" xlink:href="#DejaVuSans-56"/>
      </g>
     </g>
    </g>
    <g id="ytick_6">
     <g id="line2d_10">
      <g>
       <use style="stroke:#000000;stroke-width:0.8;" x="90" xlink:href="#m5bba010faa" y="123.447273"/>
      </g>
     </g>
     <g id="text_6">
      <!-- 1.0 -->
      <defs>
       <path d="M 12.40625 8.296875 
L 28.515625 8.296875 
L 28.515625 63.921875 
L 10.984375 60.40625 
L 10.984375 69.390625 
L 28.421875 72.90625 
L 38.28125 72.90625 
L 38.28125 8.296875 
L 54.390625 8.296875 
L 54.390625 0 
L 12.40625 0 
z
" id="DejaVuSans-49"/>
      </defs>
      <g transform="translate(67.096875 127.246491)scale(0.1 -0.1)">
       <use xlink:href="#DejaVuSans-49"/>
       <use x="63.623047" xlink:href="#DejaVuSans-46"/>
       <use x="95.410156" xlink:href="#DejaVuSans-48"/>
      </g>
     </g>
    </g>
    <g id="text_7">
     <!-- Self-consumption rate  -->
     <defs>
      <path d="M 53.515625 70.515625 
L 53.515625 60.890625 
Q 47.90625 63.578125 42.921875 64.890625 
Q 37.9375 66.21875 33.296875 66.21875 
Q 25.25 66.21875 20.875 63.09375 
Q 16.5 59.96875 16.5 54.203125 
Q 16.5 49.359375 19.40625 46.890625 
Q 22.3125 44.4375 30.421875 42.921875 
L 36.375 41.703125 
Q 47.40625 39.59375 52.65625 34.296875 
Q 57.90625 29 57.90625 20.125 
Q 57.90625 9.515625 50.796875 4.046875 
Q 43.703125 -1.421875 29.984375 -1.421875 
Q 24.8125 -1.421875 18.96875 -0.25 
Q 13.140625 0.921875 6.890625 3.21875 
L 6.890625 13.375 
Q 12.890625 10.015625 18.65625 8.296875 
Q 24.421875 6.59375 29.984375 6.59375 
Q 38.421875 6.59375 43.015625 9.90625 
Q 47.609375 13.234375 47.609375 19.390625 
Q 47.609375 24.75 44.3125 27.78125 
Q 41.015625 30.8125 33.5 32.328125 
L 27.484375 33.5 
Q 16.453125 35.6875 11.515625 40.375 
Q 6.59375 45.0625 6.59375 53.421875 
Q 6.59375 63.09375 13.40625 68.65625 
Q 20.21875 74.21875 32.171875 74.21875 
Q 37.3125 74.21875 42.625 73.28125 
Q 47.953125 72.359375 53.515625 70.515625 
z
" id="DejaVuSans-83"/>
      <path d="M 56.203125 29.59375 
L 56.203125 25.203125 
L 14.890625 25.203125 
Q 15.484375 15.921875 20.484375 11.0625 
Q 25.484375 6.203125 34.421875 6.203125 
Q 39.59375 6.203125 44.453125 7.46875 
Q 49.3125 8.734375 54.109375 11.28125 
L 54.109375 2.78125 
Q 49.265625 0.734375 44.1875 -0.34375 
Q 39.109375 -1.421875 33.890625 -1.421875 
Q 20.796875 -1.421875 13.15625 6.1875 
Q 5.515625 13.8125 5.515625 26.8125 
Q 5.515625 40.234375 12.765625 48.109375 
Q 20.015625 56 32.328125 56 
Q 43.359375 56 49.78125 48.890625 
Q 56.203125 41.796875 56.203125 29.59375 
z
M 47.21875 32.234375 
Q 47.125 39.59375 43.09375 43.984375 
Q 39.0625 48.390625 32.421875 48.390625 
Q 24.90625 48.390625 20.390625 44.140625 
Q 15.875 39.890625 15.1875 32.171875 
z
" id="DejaVuSans-101"/>
      <path d="M 9.421875 75.984375 
L 18.40625 75.984375 
L 18.40625 0 
L 9.421875 0 
z
" id="DejaVuSans-108"/>
      <path d="M 37.109375 75.984375 
L 37.109375 68.5 
L 28.515625 68.5 
Q 23.6875 68.5 21.796875 66.546875 
Q 19.921875 64.59375 19.921875 59.515625 
L 19.921875 54.6875 
L 34.71875 54.6875 
L 34.71875 47.703125 
L 19.921875 47.703125 
L 19.921875 0 
L 10.890625 0 
L 10.890625 47.703125 
L 2.296875 47.703125 
L 2.296875 54.6875 
L 10.890625 54.6875 
L 10.890625 58.5 
Q 10.890625 67.625 15.140625 71.796875 
Q 19.390625 75.984375 28.609375 75.984375 
z
" id="DejaVuSans-102"/>
      <path d="M 4.890625 31.390625 
L 31.203125 31.390625 
L 31.203125 23.390625 
L 4.890625 23.390625 
z
" id="DejaVuSans-45"/>
      <path d="M 48.78125 52.59375 
L 48.78125 44.1875 
Q 44.96875 46.296875 41.140625 47.34375 
Q 37.3125 48.390625 33.40625 48.390625 
Q 24.65625 48.390625 19.8125 42.84375 
Q 14.984375 37.3125 14.984375 27.296875 
Q 14.984375 17.28125 19.8125 11.734375 
Q 24.65625 6.203125 33.40625 6.203125 
Q 37.3125 6.203125 41.140625 7.25 
Q 44.96875 8.296875 48.78125 10.40625 
L 48.78125 2.09375 
Q 45.015625 0.34375 40.984375 -0.53125 
Q 36.96875 -1.421875 32.421875 -1.421875 
Q 20.0625 -1.421875 12.78125 6.34375 
Q 5.515625 14.109375 5.515625 27.296875 
Q 5.515625 40.671875 12.859375 48.328125 
Q 20.21875 56 33.015625 56 
Q 37.15625 56 41.109375 55.140625 
Q 45.0625 54.296875 48.78125 52.59375 
z
" id="DejaVuSans-99"/>
      <path d="M 30.609375 48.390625 
Q 23.390625 48.390625 19.1875 42.75 
Q 14.984375 37.109375 14.984375 27.296875 
Q 14.984375 17.484375 19.15625 11.84375 
Q 23.34375 6.203125 30.609375 6.203125 
Q 37.796875 6.203125 41.984375 11.859375 
Q 46.1875 17.53125 46.1875 27.296875 
Q 46.1875 37.015625 41.984375 42.703125 
Q 37.796875 48.390625 30.609375 48.390625 
z
M 30.609375 56 
Q 42.328125 56 49.015625 48.375 
Q 55.71875 40.765625 55.71875 27.296875 
Q 55.71875 13.875 49.015625 6.21875 
Q 42.328125 -1.421875 30.609375 -1.421875 
Q 18.84375 -1.421875 12.171875 6.21875 
Q 5.515625 13.875 5.515625 27.296875 
Q 5.515625 40.765625 12.171875 48.375 
Q 18.84375 56 30.609375 56 
z
" id="DejaVuSans-111"/>
      <path d="M 54.890625 33.015625 
L 54.890625 0 
L 45.90625 0 
L 45.90625 32.71875 
Q 45.90625 40.484375 42.875 44.328125 
Q 39.84375 48.1875 33.796875 48.1875 
Q 26.515625 48.1875 22.3125 43.546875 
Q 18.109375 38.921875 18.109375 30.90625 
L 18.109375 0 
L 9.078125 0 
L 9.078125 54.6875 
L 18.109375 54.6875 
L 18.109375 46.1875 
Q 21.34375 51.125 25.703125 53.5625 
Q 30.078125 56 35.796875 56 
Q 45.21875 56 50.046875 50.171875 
Q 54.890625 44.34375 54.890625 33.015625 
z
" id="DejaVuSans-110"/>
      <path d="M 44.28125 53.078125 
L 44.28125 44.578125 
Q 40.484375 46.53125 36.375 47.5 
Q 32.28125 48.484375 27.875 48.484375 
Q 21.1875 48.484375 17.84375 46.4375 
Q 14.5 44.390625 14.5 40.28125 
Q 14.5 37.15625 16.890625 35.375 
Q 19.28125 33.59375 26.515625 31.984375 
L 29.59375 31.296875 
Q 39.15625 29.25 43.1875 25.515625 
Q 47.21875 21.78125 47.21875 15.09375 
Q 47.21875 7.46875 41.1875 3.015625 
Q 35.15625 -1.421875 24.609375 -1.421875 
Q 20.21875 -1.421875 15.453125 -0.5625 
Q 10.6875 0.296875 5.421875 2 
L 5.421875 11.28125 
Q 10.40625 8.6875 15.234375 7.390625 
Q 20.0625 6.109375 24.8125 6.109375 
Q 31.15625 6.109375 34.5625 8.28125 
Q 37.984375 10.453125 37.984375 14.40625 
Q 37.984375 18.0625 35.515625 20.015625 
Q 33.0625 21.96875 24.703125 23.78125 
L 21.578125 24.515625 
Q 13.234375 26.265625 9.515625 29.90625 
Q 5.8125 33.546875 5.8125 39.890625 
Q 5.8125 47.609375 11.28125 51.796875 
Q 16.75 56 26.8125 56 
Q 31.78125 56 36.171875 55.265625 
Q 40.578125 54.546875 44.28125 53.078125 
z
" id="DejaVuSans-115"/>
      <path d="M 8.5 21.578125 
L 8.5 54.6875 
L 17.484375 54.6875 
L 17.484375 21.921875 
Q 17.484375 14.15625 20.5 10.265625 
Q 23.53125 6.390625 29.59375 6.390625 
Q 36.859375 6.390625 41.078125 11.03125 
Q 45.3125 15.671875 45.3125 23.6875 
L 45.3125 54.6875 
L 54.296875 54.6875 
L 54.296875 0 
L 45.3125 0 
L 45.3125 8.40625 
Q 42.046875 3.421875 37.71875 1 
Q 33.40625 -1.421875 27.6875 -1.421875 
Q 18.265625 -1.421875 13.375 4.4375 
Q 8.5 10.296875 8.5 21.578125 
z
M 31.109375 56 
z
" id="DejaVuSans-117"/>
      <path d="M 52 44.1875 
Q 55.375 50.25 60.0625 53.125 
Q 64.75 56 71.09375 56 
Q 79.640625 56 84.28125 50.015625 
Q 88.921875 44.046875 88.921875 33.015625 
L 88.921875 0 
L 79.890625 0 
L 79.890625 32.71875 
Q 79.890625 40.578125 77.09375 44.375 
Q 74.3125 48.1875 68.609375 48.1875 
Q 61.625 48.1875 57.5625 43.546875 
Q 53.515625 38.921875 53.515625 30.90625 
L 53.515625 0 
L 44.484375 0 
L 44.484375 32.71875 
Q 44.484375 40.625 41.703125 44.40625 
Q 38.921875 48.1875 33.109375 48.1875 
Q 26.21875 48.1875 22.15625 43.53125 
Q 18.109375 38.875 18.109375 30.90625 
L 18.109375 0 
L 9.078125 0 
L 9.078125 54.6875 
L 18.109375 54.6875 
L 18.109375 46.1875 
Q 21.1875 51.21875 25.484375 53.609375 
Q 29.78125 56 35.6875 56 
Q 41.65625 56 45.828125 52.96875 
Q 50 49.953125 52 44.1875 
z
" id="DejaVuSans-109"/>
      <path d="M 18.109375 8.203125 
L 18.109375 -20.796875 
L 9.078125 -20.796875 
L 9.078125 54.6875 
L 18.109375 54.6875 
L 18.109375 46.390625 
Q 20.953125 51.265625 25.265625 53.625 
Q 29.59375 56 35.59375 56 
Q 45.5625 56 51.78125 48.09375 
Q 58.015625 40.1875 58.015625 27.296875 
Q 58.015625 14.40625 51.78125 6.484375 
Q 45.5625 -1.421875 35.59375 -1.421875 
Q 29.59375 -1.421875 25.265625 0.953125 
Q 20.953125 3.328125 18.109375 8.203125 
z
M 48.6875 27.296875 
Q 48.6875 37.203125 44.609375 42.84375 
Q 40.53125 48.484375 33.40625 48.484375 
Q 26.265625 48.484375 22.1875 42.84375 
Q 18.109375 37.203125 18.109375 27.296875 
Q 18.109375 17.390625 22.1875 11.75 
Q 26.265625 6.109375 33.40625 6.109375 
Q 40.53125 6.109375 44.609375 11.75 
Q 48.6875 17.390625 48.6875 27.296875 
z
" id="DejaVuSans-112"/>
      <path d="M 18.3125 70.21875 
L 18.3125 54.6875 
L 36.8125 54.6875 
L 36.8125 47.703125 
L 18.3125 47.703125 
L 18.3125 18.015625 
Q 18.3125 11.328125 20.140625 9.421875 
Q 21.96875 7.515625 27.59375 7.515625 
L 36.8125 7.515625 
L 36.8125 0 
L 27.59375 0 
Q 17.1875 0 13.234375 3.875 
Q 9.28125 7.765625 9.28125 18.015625 
L 9.28125 47.703125 
L 2.6875 47.703125 
L 2.6875 54.6875 
L 9.28125 54.6875 
L 9.28125 70.21875 
z
" id="DejaVuSans-116"/>
      <path d="M 9.421875 54.6875 
L 18.40625 54.6875 
L 18.40625 0 
L 9.421875 0 
z
M 9.421875 75.984375 
L 18.40625 75.984375 
L 18.40625 64.59375 
L 9.421875 64.59375 
z
" id="DejaVuSans-105"/>
      <path id="DejaVuSans-32"/>
      <path d="M 41.109375 46.296875 
Q 39.59375 47.171875 37.8125 47.578125 
Q 36.03125 48 33.890625 48 
Q 26.265625 48 22.1875 43.046875 
Q 18.109375 38.09375 18.109375 28.8125 
L 18.109375 0 
L 9.078125 0 
L 9.078125 54.6875 
L 18.109375 54.6875 
L 18.109375 46.1875 
Q 20.953125 51.171875 25.484375 53.578125 
Q 30.03125 56 36.53125 56 
Q 37.453125 56 38.578125 55.875 
Q 39.703125 55.765625 41.0625 55.515625 
z
" id="DejaVuSans-114"/>
      <path d="M 34.28125 27.484375 
Q 23.390625 27.484375 19.1875 25 
Q 14.984375 22.515625 14.984375 16.5 
Q 14.984375 11.71875 18.140625 8.90625 
Q 21.296875 6.109375 26.703125 6.109375 
Q 34.1875 6.109375 38.703125 11.40625 
Q 43.21875 16.703125 43.21875 25.484375 
L 43.21875 27.484375 
z
M 52.203125 31.203125 
L 52.203125 0 
L 43.21875 0 
L 43.21875 8.296875 
Q 40.140625 3.328125 35.546875 0.953125 
Q 30.953125 -1.421875 24.3125 -1.421875 
Q 15.921875 -1.421875 10.953125 3.296875 
Q 6 8.015625 6 15.921875 
Q 6 25.140625 12.171875 29.828125 
Q 18.359375 34.515625 30.609375 34.515625 
L 43.21875 34.515625 
L 43.21875 35.40625 
Q 43.21875 41.609375 39.140625 45 
Q 35.0625 48.390625 27.6875 48.390625 
Q 23 48.390625 18.546875 47.265625 
Q 14.109375 46.140625 10.015625 43.890625 
L 10.015625 52.203125 
Q 14.9375 54.109375 19.578125 55.046875 
Q 24.21875 56 28.609375 56 
Q 40.484375 56 46.34375 49.84375 
Q 52.203125 43.703125 52.203125 31.203125 
z
" id="DejaVuSans-97"/>
     </defs>
     <g transform="translate(49.819375 269.307031)rotate(-90)scale(0.1 -0.1)">
      <use xlink:href="#DejaVuSans-83"/>
      <use x="63.476562" xlink:href="#DejaVuSans-101"/>
      <use x="125" xlink:href="#DejaVuSans-108"/>
      <use x="152.783203" xlink:href="#DejaVuSans-102"/>
      <use x="187.910156" xlink:href="#DejaVuSans-45"/>
      <use x="223.994141" xlink:href="#DejaVuSans-99"/>
      <use x="278.974609" xlink:href="#DejaVuSans-111"/>
      <use x="340.15625" xlink:href="#DejaVuSans-110"/>
      <use x="403.535156" xlink:href="#DejaVuSans-115"/>
      <use x="455.634766" xlink:href="#DejaVuSans-117"/>
      <use x="519.013672" xlink:href="#DejaVuSans-109"/>
      <use x="616.425781" xlink:href="#DejaVuSans-112"/>
      <use x="679.902344" xlink:href="#DejaVuSans-116"/>
      <use x="719.111328" xlink:href="#DejaVuSans-105"/>
      <use x="746.894531" xlink:href="#DejaVuSans-111"/>
      <use x="808.076172" xlink:href="#DejaVuSans-110"/>
      <use x="871.455078" xlink:href="#DejaVuSans-32"/>
      <use x="903.242188" xlink:href="#DejaVuSans-114"/>
      <use x="944.355469" xlink:href="#DejaVuSans-97"/>
      <use x="1005.634766" xlink:href="#DejaVuSans-116"/>
      <use x="1044.84375" xlink:href="#DejaVuSans-101"/>
      <use x="1106.367188" xlink:href="#DejaVuSans-32"/>
     </g>
     <!-- [% solar generation consumed on site] -->
     <defs>
      <path d="M 8.59375 75.984375 
L 29.296875 75.984375 
L 29.296875 69 
L 17.578125 69 
L 17.578125 -6.203125 
L 29.296875 -6.203125 
L 29.296875 -13.1875 
L 8.59375 -13.1875 
z
" id="DejaVuSans-91"/>
      <path d="M 72.703125 32.078125 
Q 68.453125 32.078125 66.03125 28.46875 
Q 63.625 24.859375 63.625 18.40625 
Q 63.625 12.0625 66.03125 8.421875 
Q 68.453125 4.78125 72.703125 4.78125 
Q 76.859375 4.78125 79.265625 8.421875 
Q 81.6875 12.0625 81.6875 18.40625 
Q 81.6875 24.8125 79.265625 28.4375 
Q 76.859375 32.078125 72.703125 32.078125 
z
M 72.703125 38.28125 
Q 80.421875 38.28125 84.953125 32.90625 
Q 89.5 27.546875 89.5 18.40625 
Q 89.5 9.28125 84.9375 3.921875 
Q 80.375 -1.421875 72.703125 -1.421875 
Q 64.890625 -1.421875 60.34375 3.921875 
Q 55.8125 9.28125 55.8125 18.40625 
Q 55.8125 27.59375 60.375 32.9375 
Q 64.9375 38.28125 72.703125 38.28125 
z
M 22.3125 68.015625 
Q 18.109375 68.015625 15.6875 64.375 
Q 13.28125 60.75 13.28125 54.390625 
Q 13.28125 47.953125 15.671875 44.328125 
Q 18.0625 40.71875 22.3125 40.71875 
Q 26.5625 40.71875 28.96875 44.328125 
Q 31.390625 47.953125 31.390625 54.390625 
Q 31.390625 60.6875 28.953125 64.34375 
Q 26.515625 68.015625 22.3125 68.015625 
z
M 66.40625 74.21875 
L 74.21875 74.21875 
L 28.609375 -1.421875 
L 20.796875 -1.421875 
z
M 22.3125 74.21875 
Q 30.03125 74.21875 34.609375 68.875 
Q 39.203125 63.53125 39.203125 54.390625 
Q 39.203125 45.171875 34.640625 39.84375 
Q 30.078125 34.515625 22.3125 34.515625 
Q 14.546875 34.515625 10.03125 39.859375 
Q 5.515625 45.21875 5.515625 54.390625 
Q 5.515625 63.484375 10.046875 68.84375 
Q 14.59375 74.21875 22.3125 74.21875 
z
" id="DejaVuSans-37"/>
      <path d="M 45.40625 27.984375 
Q 45.40625 37.75 41.375 43.109375 
Q 37.359375 48.484375 30.078125 48.484375 
Q 22.859375 48.484375 18.828125 43.109375 
Q 14.796875 37.75 14.796875 27.984375 
Q 14.796875 18.265625 18.828125 12.890625 
Q 22.859375 7.515625 30.078125 7.515625 
Q 37.359375 7.515625 41.375 12.890625 
Q 45.40625 18.265625 45.40625 27.984375 
z
M 54.390625 6.78125 
Q 54.390625 -7.171875 48.1875 -13.984375 
Q 42 -20.796875 29.203125 -20.796875 
Q 24.46875 -20.796875 20.265625 -20.09375 
Q 16.0625 -19.390625 12.109375 -17.921875 
L 12.109375 -9.1875 
Q 16.0625 -11.328125 19.921875 -12.34375 
Q 23.78125 -13.375 27.78125 -13.375 
Q 36.625 -13.375 41.015625 -8.765625 
Q 45.40625 -4.15625 45.40625 5.171875 
L 45.40625 9.625 
Q 42.625 4.78125 38.28125 2.390625 
Q 33.9375 0 27.875 0 
Q 17.828125 0 11.671875 7.65625 
Q 5.515625 15.328125 5.515625 27.984375 
Q 5.515625 40.671875 11.671875 48.328125 
Q 17.828125 56 27.875 56 
Q 33.9375 56 38.28125 53.609375 
Q 42.625 51.21875 45.40625 46.390625 
L 45.40625 54.6875 
L 54.390625 54.6875 
z
" id="DejaVuSans-103"/>
      <path d="M 45.40625 46.390625 
L 45.40625 75.984375 
L 54.390625 75.984375 
L 54.390625 0 
L 45.40625 0 
L 45.40625 8.203125 
Q 42.578125 3.328125 38.25 0.953125 
Q 33.9375 -1.421875 27.875 -1.421875 
Q 17.96875 -1.421875 11.734375 6.484375 
Q 5.515625 14.40625 5.515625 27.296875 
Q 5.515625 40.1875 11.734375 48.09375 
Q 17.96875 56 27.875 56 
Q 33.9375 56 38.25 53.625 
Q 42.578125 51.265625 45.40625 46.390625 
z
M 14.796875 27.296875 
Q 14.796875 17.390625 18.875 11.75 
Q 22.953125 6.109375 30.078125 6.109375 
Q 37.203125 6.109375 41.296875 11.75 
Q 45.40625 17.390625 45.40625 27.296875 
Q 45.40625 37.203125 41.296875 42.84375 
Q 37.203125 48.484375 30.078125 48.484375 
Q 22.953125 48.484375 18.875 42.84375 
Q 14.796875 37.203125 14.796875 27.296875 
z
" id="DejaVuSans-100"/>
      <path d="M 30.421875 75.984375 
L 30.421875 -13.1875 
L 9.71875 -13.1875 
L 9.71875 -6.203125 
L 21.390625 -6.203125 
L 21.390625 69 
L 9.71875 69 
L 9.71875 75.984375 
z
" id="DejaVuSans-93"/>
     </defs>
     <g transform="translate(61.017187 309.49375)rotate(-90)scale(0.1 -0.1)">
      <use xlink:href="#DejaVuSans-91"/>
      <use x="39.013672" xlink:href="#DejaVuSans-37"/>
      <use x="134.033203" xlink:href="#DejaVuSans-32"/>
      <use x="165.820312" xlink:href="#DejaVuSans-115"/>
      <use x="217.919922" xlink:href="#DejaVuSans-111"/>
      <use x="279.101562" xlink:href="#DejaVuSans-108"/>
      <use x="306.884766" xlink:href="#DejaVuSans-97"/>
      <use x="368.164062" xlink:href="#DejaVuSans-114"/>
      <use x="409.277344" xlink:href="#DejaVuSans-32"/>
      <use x="441.064453" xlink:href="#DejaVuSans-103"/>
      <use x="504.541016" xlink:href="#DejaVuSans-101"/>
      <use x="566.064453" xlink:href="#DejaVuSans-110"/>
      <use x="629.443359" xlink:href="#DejaVuSans-101"/>
      <use x="690.966797" xlink:href="#DejaVuSans-114"/>
      <use x="732.080078" xlink:href="#DejaVuSans-97"/>
      <use x="793.359375" xlink:href="#DejaVuSans-116"/>
      <use x="832.568359" xlink:href="#DejaVuSans-105"/>
      <use x="860.351562" xlink:href="#DejaVuSans-111"/>
      <use x="921.533203" xlink:href="#DejaVuSans-110"/>
      <use x="984.912109" xlink:href="#DejaVuSans-32"/>
      <use x="1016.699219" xlink:href="#DejaVuSans-99"/>
      <use x="1071.679688" xlink:href="#DejaVuSans-111"/>
      <use x="1132.861328" xlink:href="#DejaVuSans-110"/>
      <use x="1196.240234" xlink:href="#DejaVuSans-115"/>
      <use x="1248.339844" xlink:href="#DejaVuSans-117"/>
      <use x="1311.71875" xlink:href="#DejaVuSans-109"/>
      <use x="1409.130859" xlink:href="#DejaVuSans-101"/>
      <use x="1470.654297" xlink:href="#DejaVuSans-100"/>
      <use x="1534.130859" xlink:href="#DejaVuSans-32"/>
      <use x="1565.917969" xlink:href="#DejaVuSans-111"/>
      <use x="1627.099609" xlink:href="#DejaVuSans-110"/>
      <use x="1690.478516" xlink:href="#DejaVuSans-32"/>
      <use x="1722.265625" xlink:href="#DejaVuSans-115"/>
      <use x="1774.365234" xlink:href="#DejaVuSans-105"/>
      <use x="1802.148438" xlink:href="#DejaVuSans-116"/>
      <use x="1841.357422" xlink:href="#DejaVuSans-101"/>
      <use x="1902.880859" xlink:href="#DejaVuSans-93"/>
     </g>
    </g>
   </g>
   <g id="line2d_11">
    <path clip-path="url(#p19d0dbaaac)" d="M 148.736842 278.781411 
L 168.315789 283.940144 
L 178.105263 291.539723 
L 187.894737 299.34264 
L 197.684211 295.255582 
L 207.473684 293.327545 
L 217.263158 294.158314 
L 227.052632 293.829268 
L 236.842105 294.064261 
L 246.631579 295.709668 
L 256.421053 296.147773 
" style="fill:none;stroke:#0000ff;stroke-linecap:square;stroke-width:1.5;"/>
   </g>
   <g id="patch_3">
    <path d="M 90 321.12 
L 90 103.68 
" style="fill:none;stroke:#000000;stroke-linecap:square;stroke-linejoin:miter;stroke-width:0.8;"/>
   </g>
   <g id="patch_4">
    <path d="M 276 321.12 
L 276 103.68 
" style="fill:none;stroke:#000000;stroke-linecap:square;stroke-linejoin:miter;stroke-width:0.8;"/>
   </g>
   <g id="patch_5">
    <path d="M 90 321.12 
L 276 321.12 
" style="fill:none;stroke:#000000;stroke-linecap:square;stroke-linejoin:miter;stroke-width:0.8;"/>
   </g>
   <g id="patch_6">
    <path d="M 90 103.68 
L 276 103.68 
" style="fill:none;stroke:#000000;stroke-linecap:square;stroke-linejoin:miter;stroke-width:0.8;"/>
   </g>
   <g id="text_8">
    <!-- COM -->
    <defs>
     <path d="M 64.40625 67.28125 
L 64.40625 56.890625 
Q 59.421875 61.53125 53.78125 63.8125 
Q 48.140625 66.109375 41.796875 66.109375 
Q 29.296875 66.109375 22.65625 58.46875 
Q 16.015625 50.828125 16.015625 36.375 
Q 16.015625 21.96875 22.65625 14.328125 
Q 29.296875 6.6875 41.796875 6.6875 
Q 48.140625 6.6875 53.78125 8.984375 
Q 59.421875 11.28125 64.40625 15.921875 
L 64.40625 5.609375 
Q 59.234375 2.09375 53.4375 0.328125 
Q 47.65625 -1.421875 41.21875 -1.421875 
Q 24.65625 -1.421875 15.125 8.703125 
Q 5.609375 18.84375 5.609375 36.375 
Q 5.609375 53.953125 15.125 64.078125 
Q 24.65625 74.21875 41.21875 74.21875 
Q 47.75 74.21875 53.53125 72.484375 
Q 59.328125 70.75 64.40625 67.28125 
z
" id="DejaVuSans-67"/>
     <path d="M 39.40625 66.21875 
Q 28.65625 66.21875 22.328125 58.203125 
Q 16.015625 50.203125 16.015625 36.375 
Q 16.015625 22.609375 22.328125 14.59375 
Q 28.65625 6.59375 39.40625 6.59375 
Q 50.140625 6.59375 56.421875 14.59375 
Q 62.703125 22.609375 62.703125 36.375 
Q 62.703125 50.203125 56.421875 58.203125 
Q 50.140625 66.21875 39.40625 66.21875 
z
M 39.40625 74.21875 
Q 54.734375 74.21875 63.90625 63.9375 
Q 73.09375 53.65625 73.09375 36.375 
Q 73.09375 19.140625 63.90625 8.859375 
Q 54.734375 -1.421875 39.40625 -1.421875 
Q 24.03125 -1.421875 14.8125 8.828125 
Q 5.609375 19.09375 5.609375 36.375 
Q 5.609375 53.65625 14.8125 63.9375 
Q 24.03125 74.21875 39.40625 74.21875 
z
" id="DejaVuSans-79"/>
     <path d="M 9.8125 72.90625 
L 24.515625 72.90625 
L 43.109375 23.296875 
L 61.8125 72.90625 
L 76.515625 72.90625 
L 76.515625 0 
L 66.890625 0 
L 66.890625 64.015625 
L 48.09375 14.015625 
L 38.1875 14.015625 
L 19.390625 64.015625 
L 19.390625 0 
L 9.8125 0 
z
" id="DejaVuSans-77"/>
    </defs>
    <g transform="translate(183 121.0752)scale(0.1 -0.1)">
     <use xlink:href="#DejaVuSans-67"/>
     <use x="69.824219" xlink:href="#DejaVuSans-79"/>
     <use x="148.535156" xlink:href="#DejaVuSans-77"/>
    </g>
   </g>
  </g>
  <g id="axes_2">
   <g id="patch_7">
    <path d="M 276 321.12 
L 462 321.12 
L 462 103.68 
L 276 103.68 
z
" style="fill:#ffffff;"/>
   </g>
   <g id="PolyCollection_2">
    <defs>
     <path d="M 285.789474 -715.829674 
L 285.789474 -697.433505 
L 305.368421 -656.163552 
L 315.157895 -695.939879 
L 324.947368 -712.526116 
L 344.526316 -656.788632 
L 354.315789 -718.933412 
L 364.105263 -613.230127 
L 373.894737 -674.830907 
L 383.684211 -697.089556 
L 393.473684 -595.492608 
L 403.263158 -697.86497 
L 413.052632 -675.048595 
L 422.842105 -710.876136 
L 432.631579 -699.147109 
L 442.421053 -621.485772 
L 442.421053 -717.377207 
L 442.421053 -717.377207 
L 432.631579 -717.564222 
L 422.842105 -714.75806 
L 413.052632 -716.024265 
L 403.263158 -717.213156 
L 393.473684 -717.566226 
L 383.684211 -717.783735 
L 373.894737 -706.87087 
L 364.105263 -705.736873 
L 354.315789 -718.933412 
L 344.526316 -704.8414 
L 324.947368 -712.526116 
L 315.157895 -712.069397 
L 305.368421 -714.898005 
L 285.789474 -715.829674 
z
" id="m2d02784471" style="stroke:#ff8c00;stroke-opacity:0.5;"/>
    </defs>
    <g clip-path="url(#p10dbdace72)">
     <use style="fill:#ff8c00;fill-opacity:0.5;stroke:#ff8c00;stroke-opacity:0.5;" x="0" xlink:href="#m2d02784471" y="864"/>
    </g>
   </g>
   <g id="matplotlib.axis_3">
    <g id="xtick_5">
     <g id="line2d_12">
      <g>
       <use style="stroke:#000000;stroke-width:0.8;" x="276" xlink:href="#m488a0cdb0e" y="321.12"/>
      </g>
     </g>
    </g>
    <g id="xtick_6">
     <g id="line2d_13">
      <g>
       <use style="stroke:#000000;stroke-width:0.8;" x="324.947368" xlink:href="#m488a0cdb0e" y="321.12"/>
      </g>
     </g>
    </g>
    <g id="xtick_7">
     <g id="line2d_14">
      <g>
       <use style="stroke:#000000;stroke-width:0.8;" x="373.894737" xlink:href="#m488a0cdb0e" y="321.12"/>
      </g>
     </g>
    </g>
    <g id="xtick_8">
     <g id="line2d_15">
      <g>
       <use style="stroke:#000000;stroke-width:0.8;" x="422.842105" xlink:href="#m488a0cdb0e" y="321.12"/>
      </g>
     </g>
    </g>
   </g>
   <g id="matplotlib.axis_4">
    <g id="ytick_7">
     <g id="line2d_16">
      <g>
       <use style="stroke:#000000;stroke-width:0.8;" x="276" xlink:href="#m5bba010faa" y="321.12"/>
      </g>
     </g>
    </g>
    <g id="ytick_8">
     <g id="line2d_17">
      <g>
       <use style="stroke:#000000;stroke-width:0.8;" x="276" xlink:href="#m5bba010faa" y="281.585455"/>
      </g>
     </g>
    </g>
    <g id="ytick_9">
     <g id="line2d_18">
      <g>
       <use style="stroke:#000000;stroke-width:0.8;" x="276" xlink:href="#m5bba010faa" y="242.050909"/>
      </g>
     </g>
    </g>
    <g id="ytick_10">
     <g id="line2d_19">
      <g>
       <use style="stroke:#000000;stroke-width:0.8;" x="276" xlink:href="#m5bba010faa" y="202.516364"/>
      </g>
     </g>
    </g>
    <g id="ytick_11">
     <g id="line2d_20">
      <g>
       <use style="stroke:#000000;stroke-width:0.8;" x="276" xlink:href="#m5bba010faa" y="162.981818"/>
      </g>
     </g>
    </g>
    <g id="ytick_12">
     <g id="line2d_21">
      <g>
       <use style="stroke:#000000;stroke-width:0.8;" x="276" xlink:href="#m5bba010faa" y="123.447273"/>
      </g>
     </g>
    </g>
   </g>
   <g id="line2d_22">
    <path clip-path="url(#p10dbdace72)" d="M 285.789474 153.123864 
L 305.368421 178.469222 
L 315.157895 168.060121 
L 324.947368 151.473884 
L 344.526316 183.184984 
L 354.315789 145.066588 
L 364.105263 204.5165 
L 373.894737 173.149111 
L 383.684211 156.563354 
L 393.473684 150.806098 
L 403.263158 153.123864 
L 413.052632 153.123864 
L 422.842105 153.123864 
L 432.631579 150.549864 
L 442.421053 148.214079 
" style="fill:none;stroke:#ff8c00;stroke-linecap:square;stroke-width:1.5;"/>
   </g>
   <g id="patch_8">
    <path d="M 276 321.12 
L 276 103.68 
" style="fill:none;stroke:#000000;stroke-linecap:square;stroke-linejoin:miter;stroke-width:0.8;"/>
   </g>
   <g id="patch_9">
    <path d="M 462 321.12 
L 462 103.68 
" style="fill:none;stroke:#000000;stroke-linecap:square;stroke-linejoin:miter;stroke-width:0.8;"/>
   </g>
   <g id="patch_10">
    <path d="M 276 321.12 
L 462 321.12 
" style="fill:none;stroke:#000000;stroke-linecap:square;stroke-linejoin:miter;stroke-width:0.8;"/>
   </g>
   <g id="patch_11">
    <path d="M 276 103.68 
L 462 103.68 
" style="fill:none;stroke:#000000;stroke-linecap:square;stroke-linejoin:miter;stroke-width:0.8;"/>
   </g>
   <g id="text_9">
    <!-- COM -->
    <g transform="translate(369 121.0752)scale(0.1 -0.1)">
     <use xlink:href="#DejaVuSans-67"/>
     <use x="69.824219" xlink:href="#DejaVuSans-79"/>
     <use x="148.535156" xlink:href="#DejaVuSans-77"/>
    </g>
   </g>
  </g>
  <g id="axes_3">
   <g id="patch_12">
    <path d="M 462 321.12 
L 648 321.12 
L 648 103.68 
L 462 103.68 
z
" style="fill:#ffffff;"/>
   </g>
   <g id="PolyCollection_3">
    <defs>
     <path d="M 471.789474 -716.976132 
L 471.789474 -667.146587 
L 481.578947 -693.529945 
L 491.368421 -677.697151 
L 501.157895 -623.533575 
L 510.947368 -673.886514 
L 520.736842 -605.359333 
L 530.526316 -591.087459 
L 540.315789 -596.605043 
L 550.105263 -596.134583 
L 559.894737 -577.687852 
L 569.684211 -591.308898 
L 579.473684 -576.790146 
L 589.263158 -580.870496 
L 599.052632 -577.693745 
L 608.842105 -578.016655 
L 618.631579 -574.349587 
L 628.421053 -571.82172 
L 628.421053 -711.02583 
L 628.421053 -711.02583 
L 618.631579 -712.902798 
L 608.842105 -711.938148 
L 599.052632 -709.094548 
L 589.263158 -708.90493 
L 579.473684 -712.636742 
L 569.684211 -713.245848 
L 559.894737 -716.355673 
L 550.105263 -716.976132 
L 540.315789 -707.69778 
L 530.526316 -714.143156 
L 520.736842 -716.855524 
L 510.947368 -716.903934 
L 501.157895 -716.141974 
L 491.368421 -717.442901 
L 481.578947 -718.367643 
L 471.789474 -716.976132 
z
" id="mecaa18f82b" style="stroke:#008000;stroke-opacity:0.5;"/>
    </defs>
    <g clip-path="url(#p9775da5efe)">
     <use style="fill:#008000;fill-opacity:0.5;stroke:#008000;stroke-opacity:0.5;" x="0" xlink:href="#mecaa18f82b" y="864"/>
    </g>
   </g>
   <g id="matplotlib.axis_5">
    <g id="xtick_9">
     <g id="line2d_23">
      <g>
       <use style="stroke:#000000;stroke-width:0.8;" x="462" xlink:href="#m488a0cdb0e" y="321.12"/>
      </g>
     </g>
    </g>
    <g id="xtick_10">
     <g id="line2d_24">
      <g>
       <use style="stroke:#000000;stroke-width:0.8;" x="510.947368" xlink:href="#m488a0cdb0e" y="321.12"/>
      </g>
     </g>
    </g>
    <g id="xtick_11">
     <g id="line2d_25">
      <g>
       <use style="stroke:#000000;stroke-width:0.8;" x="559.894737" xlink:href="#m488a0cdb0e" y="321.12"/>
      </g>
     </g>
    </g>
    <g id="xtick_12">
     <g id="line2d_26">
      <g>
       <use style="stroke:#000000;stroke-width:0.8;" x="608.842105" xlink:href="#m488a0cdb0e" y="321.12"/>
      </g>
     </g>
    </g>
   </g>
   <g id="matplotlib.axis_6">
    <g id="ytick_13">
     <g id="line2d_27">
      <g>
       <use style="stroke:#000000;stroke-width:0.8;" x="462" xlink:href="#m5bba010faa" y="321.12"/>
      </g>
     </g>
    </g>
    <g id="ytick_14">
     <g id="line2d_28">
      <g>
       <use style="stroke:#000000;stroke-width:0.8;" x="462" xlink:href="#m5bba010faa" y="281.585455"/>
      </g>
     </g>
    </g>
    <g id="ytick_15">
     <g id="line2d_29">
      <g>
       <use style="stroke:#000000;stroke-width:0.8;" x="462" xlink:href="#m5bba010faa" y="242.050909"/>
      </g>
     </g>
    </g>
    <g id="ytick_16">
     <g id="line2d_30">
      <g>
       <use style="stroke:#000000;stroke-width:0.8;" x="462" xlink:href="#m5bba010faa" y="202.516364"/>
      </g>
     </g>
    </g>
    <g id="ytick_17">
     <g id="line2d_31">
      <g>
       <use style="stroke:#000000;stroke-width:0.8;" x="462" xlink:href="#m5bba010faa" y="162.981818"/>
      </g>
     </g>
    </g>
    <g id="ytick_18">
     <g id="line2d_32">
      <g>
       <use style="stroke:#000000;stroke-width:0.8;" x="462" xlink:href="#m5bba010faa" y="123.447273"/>
      </g>
     </g>
    </g>
   </g>
   <g id="line2d_33">
    <path clip-path="url(#p9775da5efe)" d="M 471.789474 159.924097 
L 481.578947 160.198601 
L 491.368421 147.023868 
L 501.157895 164.068643 
L 510.947368 154.910082 
L 520.736842 152.749222 
L 530.526316 186.819472 
L 540.315789 222.82754 
L 550.105263 179.652893 
L 559.894737 200.214108 
L 569.684211 205.375311 
L 579.473684 204.685488 
L 589.263158 216.085414 
L 599.052632 207.533782 
L 608.842105 218.609429 
L 618.631579 209.163267 
L 628.421053 215.26177 
" style="fill:none;stroke:#008000;stroke-linecap:square;stroke-width:1.5;"/>
   </g>
   <g id="patch_13">
    <path d="M 462 321.12 
L 462 103.68 
" style="fill:none;stroke:#000000;stroke-linecap:square;stroke-linejoin:miter;stroke-width:0.8;"/>
   </g>
   <g id="patch_14">
    <path d="M 648 321.12 
L 648 103.68 
" style="fill:none;stroke:#000000;stroke-linecap:square;stroke-linejoin:miter;stroke-width:0.8;"/>
   </g>
   <g id="patch_15">
    <path d="M 462 321.12 
L 648 321.12 
" style="fill:none;stroke:#000000;stroke-linecap:square;stroke-linejoin:miter;stroke-width:0.8;"/>
   </g>
   <g id="patch_16">
    <path d="M 462 103.68 
L 648 103.68 
" style="fill:none;stroke:#000000;stroke-linecap:square;stroke-linejoin:miter;stroke-width:0.8;"/>
   </g>
   <g id="text_10">
    <!-- COM -->
    <g transform="translate(555 121.0752)scale(0.1 -0.1)">
     <use xlink:href="#DejaVuSans-67"/>
     <use x="69.824219" xlink:href="#DejaVuSans-79"/>
     <use x="148.535156" xlink:href="#DejaVuSans-77"/>
    </g>
   </g>
  </g>
  <g id="axes_4">
   <g id="patch_17">
    <path d="M 90 538.56 
L 276 538.56 
L 276 321.12 
L 90 321.12 
z
" style="fill:#ffffff;"/>
   </g>
   <g id="PolyCollection_4">
    <defs>
     <path d="M 148.736842 -367.778589 
L 148.736842 -367.778589 
L 168.315789 -355.521979 
L 178.105263 -351.53132 
L 187.894737 -345.764101 
L 197.684211 -346.645591 
L 207.473684 -346.367218 
L 217.263158 -348.268599 
L 227.052632 -347.674053 
L 236.842105 -347.879612 
L 246.631579 -347.068112 
L 256.421053 -345.750124 
L 256.421053 -357.134466 
L 256.421053 -357.134466 
L 246.631579 -355.884721 
L 236.842105 -357.838161 
L 227.052632 -358.922727 
L 217.263158 -356.845736 
L 207.473684 -362.684481 
L 197.684211 -362.684481 
L 187.894737 -352.980876 
L 178.105263 -358.219902 
L 168.315789 -366.009495 
L 148.736842 -367.778589 
z
" id="m242302d8e6" style="stroke:#0000ff;stroke-opacity:0.5;"/>
    </defs>
    <g clip-path="url(#pf62ec2dbe1)">
     <use style="fill:#0000ff;fill-opacity:0.5;stroke:#0000ff;stroke-opacity:0.5;" x="0" xlink:href="#m242302d8e6" y="864"/>
    </g>
   </g>
   <g id="matplotlib.axis_7">
    <g id="xtick_13">
     <g id="line2d_34">
      <g>
       <use style="stroke:#000000;stroke-width:0.8;" x="90" xlink:href="#m488a0cdb0e" y="538.56"/>
      </g>
     </g>
    </g>
    <g id="xtick_14">
     <g id="line2d_35">
      <g>
       <use style="stroke:#000000;stroke-width:0.8;" x="138.947368" xlink:href="#m488a0cdb0e" y="538.56"/>
      </g>
     </g>
    </g>
    <g id="xtick_15">
     <g id="line2d_36">
      <g>
       <use style="stroke:#000000;stroke-width:0.8;" x="187.894737" xlink:href="#m488a0cdb0e" y="538.56"/>
      </g>
     </g>
    </g>
    <g id="xtick_16">
     <g id="line2d_37">
      <g>
       <use style="stroke:#000000;stroke-width:0.8;" x="236.842105" xlink:href="#m488a0cdb0e" y="538.56"/>
      </g>
     </g>
    </g>
   </g>
   <g id="matplotlib.axis_8">
    <g id="ytick_19">
     <g id="line2d_38">
      <g>
       <use style="stroke:#000000;stroke-width:0.8;" x="90" xlink:href="#m5bba010faa" y="538.56"/>
      </g>
     </g>
     <g id="text_11">
      <!-- 0.0 -->
      <g transform="translate(67.096875 542.359219)scale(0.1 -0.1)">
       <use xlink:href="#DejaVuSans-48"/>
       <use x="63.623047" xlink:href="#DejaVuSans-46"/>
       <use x="95.410156" xlink:href="#DejaVuSans-48"/>
      </g>
     </g>
    </g>
    <g id="ytick_20">
     <g id="line2d_39">
      <g>
       <use style="stroke:#000000;stroke-width:0.8;" x="90" xlink:href="#m5bba010faa" y="499.025455"/>
      </g>
     </g>
     <g id="text_12">
      <!-- 0.2 -->
      <g transform="translate(67.096875 502.824673)scale(0.1 -0.1)">
       <use xlink:href="#DejaVuSans-48"/>
       <use x="63.623047" xlink:href="#DejaVuSans-46"/>
       <use x="95.410156" xlink:href="#DejaVuSans-50"/>
      </g>
     </g>
    </g>
    <g id="ytick_21">
     <g id="line2d_40">
      <g>
       <use style="stroke:#000000;stroke-width:0.8;" x="90" xlink:href="#m5bba010faa" y="459.490909"/>
      </g>
     </g>
     <g id="text_13">
      <!-- 0.4 -->
      <g transform="translate(67.096875 463.290128)scale(0.1 -0.1)">
       <use xlink:href="#DejaVuSans-48"/>
       <use x="63.623047" xlink:href="#DejaVuSans-46"/>
       <use x="95.410156" xlink:href="#DejaVuSans-52"/>
      </g>
     </g>
    </g>
    <g id="ytick_22">
     <g id="line2d_41">
      <g>
       <use style="stroke:#000000;stroke-width:0.8;" x="90" xlink:href="#m5bba010faa" y="419.956364"/>
      </g>
     </g>
     <g id="text_14">
      <!-- 0.6 -->
      <g transform="translate(67.096875 423.755582)scale(0.1 -0.1)">
       <use xlink:href="#DejaVuSans-48"/>
       <use x="63.623047" xlink:href="#DejaVuSans-46"/>
       <use x="95.410156" xlink:href="#DejaVuSans-54"/>
      </g>
     </g>
    </g>
    <g id="ytick_23">
     <g id="line2d_42">
      <g>
       <use style="stroke:#000000;stroke-width:0.8;" x="90" xlink:href="#m5bba010faa" y="380.421818"/>
      </g>
     </g>
     <g id="text_15">
      <!-- 0.8 -->
      <g transform="translate(67.096875 384.221037)scale(0.1 -0.1)">
       <use xlink:href="#DejaVuSans-48"/>
       <use x="63.623047" xlink:href="#DejaVuSans-46"/>
       <use x="95.410156" xlink:href="#DejaVuSans-56"/>
      </g>
     </g>
    </g>
    <g id="ytick_24">
     <g id="line2d_43">
      <g>
       <use style="stroke:#000000;stroke-width:0.8;" x="90" xlink:href="#m5bba010faa" y="340.887273"/>
      </g>
     </g>
     <g id="text_16">
      <!-- 1.0 -->
      <g transform="translate(67.096875 344.686491)scale(0.1 -0.1)">
       <use xlink:href="#DejaVuSans-49"/>
       <use x="63.623047" xlink:href="#DejaVuSans-46"/>
       <use x="95.410156" xlink:href="#DejaVuSans-48"/>
      </g>
     </g>
    </g>
    <g id="text_17">
     <!-- Self-consumption rate  -->
     <g transform="translate(49.819375 486.747031)rotate(-90)scale(0.1 -0.1)">
      <use xlink:href="#DejaVuSans-83"/>
      <use x="63.476562" xlink:href="#DejaVuSans-101"/>
      <use x="125" xlink:href="#DejaVuSans-108"/>
      <use x="152.783203" xlink:href="#DejaVuSans-102"/>
      <use x="187.910156" xlink:href="#DejaVuSans-45"/>
      <use x="223.994141" xlink:href="#DejaVuSans-99"/>
      <use x="278.974609" xlink:href="#DejaVuSans-111"/>
      <use x="340.15625" xlink:href="#DejaVuSans-110"/>
      <use x="403.535156" xlink:href="#DejaVuSans-115"/>
      <use x="455.634766" xlink:href="#DejaVuSans-117"/>
      <use x="519.013672" xlink:href="#DejaVuSans-109"/>
      <use x="616.425781" xlink:href="#DejaVuSans-112"/>
      <use x="679.902344" xlink:href="#DejaVuSans-116"/>
      <use x="719.111328" xlink:href="#DejaVuSans-105"/>
      <use x="746.894531" xlink:href="#DejaVuSans-111"/>
      <use x="808.076172" xlink:href="#DejaVuSans-110"/>
      <use x="871.455078" xlink:href="#DejaVuSans-32"/>
      <use x="903.242188" xlink:href="#DejaVuSans-114"/>
      <use x="944.355469" xlink:href="#DejaVuSans-97"/>
      <use x="1005.634766" xlink:href="#DejaVuSans-116"/>
      <use x="1044.84375" xlink:href="#DejaVuSans-101"/>
      <use x="1106.367188" xlink:href="#DejaVuSans-32"/>
     </g>
     <!-- [% solar generation consumed on site] -->
     <g transform="translate(61.017187 526.93375)rotate(-90)scale(0.1 -0.1)">
      <use xlink:href="#DejaVuSans-91"/>
      <use x="39.013672" xlink:href="#DejaVuSans-37"/>
      <use x="134.033203" xlink:href="#DejaVuSans-32"/>
      <use x="165.820312" xlink:href="#DejaVuSans-115"/>
      <use x="217.919922" xlink:href="#DejaVuSans-111"/>
      <use x="279.101562" xlink:href="#DejaVuSans-108"/>
      <use x="306.884766" xlink:href="#DejaVuSans-97"/>
      <use x="368.164062" xlink:href="#DejaVuSans-114"/>
      <use x="409.277344" xlink:href="#DejaVuSans-32"/>
      <use x="441.064453" xlink:href="#DejaVuSans-103"/>
      <use x="504.541016" xlink:href="#DejaVuSans-101"/>
      <use x="566.064453" xlink:href="#DejaVuSans-110"/>
      <use x="629.443359" xlink:href="#DejaVuSans-101"/>
      <use x="690.966797" xlink:href="#DejaVuSans-114"/>
      <use x="732.080078" xlink:href="#DejaVuSans-97"/>
      <use x="793.359375" xlink:href="#DejaVuSans-116"/>
      <use x="832.568359" xlink:href="#DejaVuSans-105"/>
      <use x="860.351562" xlink:href="#DejaVuSans-111"/>
      <use x="921.533203" xlink:href="#DejaVuSans-110"/>
      <use x="984.912109" xlink:href="#DejaVuSans-32"/>
      <use x="1016.699219" xlink:href="#DejaVuSans-99"/>
      <use x="1071.679688" xlink:href="#DejaVuSans-111"/>
      <use x="1132.861328" xlink:href="#DejaVuSans-110"/>
      <use x="1196.240234" xlink:href="#DejaVuSans-115"/>
      <use x="1248.339844" xlink:href="#DejaVuSans-117"/>
      <use x="1311.71875" xlink:href="#DejaVuSans-109"/>
      <use x="1409.130859" xlink:href="#DejaVuSans-101"/>
      <use x="1470.654297" xlink:href="#DejaVuSans-100"/>
      <use x="1534.130859" xlink:href="#DejaVuSans-32"/>
      <use x="1565.917969" xlink:href="#DejaVuSans-111"/>
      <use x="1627.099609" xlink:href="#DejaVuSans-110"/>
      <use x="1690.478516" xlink:href="#DejaVuSans-32"/>
      <use x="1722.265625" xlink:href="#DejaVuSans-115"/>
      <use x="1774.365234" xlink:href="#DejaVuSans-105"/>
      <use x="1802.148438" xlink:href="#DejaVuSans-116"/>
      <use x="1841.357422" xlink:href="#DejaVuSans-101"/>
      <use x="1902.880859" xlink:href="#DejaVuSans-93"/>
     </g>
    </g>
   </g>
   <g id="line2d_44">
    <path clip-path="url(#pf62ec2dbe1)" d="M 148.736842 496.221411 
L 168.315789 501.380144 
L 178.105263 508.979723 
L 187.894737 516.78264 
L 197.684211 511.269268 
L 207.473684 510.985003 
L 217.263158 511.433791 
L 227.052632 511.613143 
L 236.842105 512.462698 
L 246.631579 512.867752 
L 256.421053 513.756229 
" style="fill:none;stroke:#0000ff;stroke-linecap:square;stroke-width:1.5;"/>
   </g>
   <g id="patch_18">
    <path d="M 90 538.56 
L 90 321.12 
" style="fill:none;stroke:#000000;stroke-linecap:square;stroke-linejoin:miter;stroke-width:0.8;"/>
   </g>
   <g id="patch_19">
    <path d="M 276 538.56 
L 276 321.12 
" style="fill:none;stroke:#000000;stroke-linecap:square;stroke-linejoin:miter;stroke-width:0.8;"/>
   </g>
   <g id="patch_20">
    <path d="M 90 538.56 
L 276 538.56 
" style="fill:none;stroke:#000000;stroke-linecap:square;stroke-linejoin:miter;stroke-width:0.8;"/>
   </g>
   <g id="patch_21">
    <path d="M 90 321.12 
L 276 321.12 
" style="fill:none;stroke:#000000;stroke-linecap:square;stroke-linejoin:miter;stroke-width:0.8;"/>
   </g>
   <g id="text_18">
    <!-- ZEV -->
    <defs>
     <path d="M 5.609375 72.90625 
L 62.890625 72.90625 
L 62.890625 65.375 
L 16.796875 8.296875 
L 64.015625 8.296875 
L 64.015625 0 
L 4.5 0 
L 4.5 7.515625 
L 50.59375 64.59375 
L 5.609375 64.59375 
z
" id="DejaVuSans-90"/>
     <path d="M 9.8125 72.90625 
L 55.90625 72.90625 
L 55.90625 64.59375 
L 19.671875 64.59375 
L 19.671875 43.015625 
L 54.390625 43.015625 
L 54.390625 34.71875 
L 19.671875 34.71875 
L 19.671875 8.296875 
L 56.78125 8.296875 
L 56.78125 0 
L 9.8125 0 
z
" id="DejaVuSans-69"/>
     <path d="M 28.609375 0 
L 0.78125 72.90625 
L 11.078125 72.90625 
L 34.1875 11.53125 
L 57.328125 72.90625 
L 67.578125 72.90625 
L 39.796875 0 
z
" id="DejaVuSans-86"/>
    </defs>
    <g transform="translate(183 338.5152)scale(0.1 -0.1)">
     <use xlink:href="#DejaVuSans-90"/>
     <use x="68.505859" xlink:href="#DejaVuSans-69"/>
     <use x="131.689453" xlink:href="#DejaVuSans-86"/>
    </g>
   </g>
  </g>
  <g id="axes_5">
   <g id="patch_22">
    <path d="M 276 538.56 
L 462 538.56 
L 462 321.12 
L 276 321.12 
z
" style="fill:#ffffff;"/>
   </g>
   <g id="PolyCollection_5">
    <defs>
     <path d="M 285.789474 -498.389674 
L 285.789474 -479.993505 
L 305.368421 -438.723552 
L 315.157895 -478.499879 
L 324.947368 -483.986133 
L 334.736842 -495.565869 
L 344.526316 -437.972302 
L 354.315789 -500.093938 
L 364.105263 -395.790127 
L 373.894737 -457.390907 
L 383.684211 -479.726584 
L 393.473684 -384.352139 
L 403.263158 -481.188082 
L 413.052632 -430.323626 
L 422.842105 -493.436136 
L 432.631579 -481.707109 
L 442.421053 -406.198661 
L 442.421053 -499.772974 
L 442.421053 -499.772974 
L 432.631579 -500.124222 
L 422.842105 -497.197194 
L 413.052632 -499.114418 
L 403.263158 -500.546731 
L 393.473684 -500.435254 
L 383.684211 -500.420763 
L 373.894737 -489.43087 
L 364.105263 -488.296873 
L 354.315789 -501.419755 
L 344.526316 -486.02507 
L 334.736842 -495.565869 
L 324.947368 -484.487156 
L 315.157895 -494.629397 
L 305.368421 -497.458005 
L 285.789474 -498.389674 
z
" id="mda7009dacd" style="stroke:#ff8c00;stroke-opacity:0.5;"/>
    </defs>
    <g clip-path="url(#p729daaaf26)">
     <use style="fill:#ff8c00;fill-opacity:0.5;stroke:#ff8c00;stroke-opacity:0.5;" x="0" xlink:href="#mda7009dacd" y="864"/>
    </g>
   </g>
   <g id="matplotlib.axis_9">
    <g id="xtick_17">
     <g id="line2d_45">
      <g>
       <use style="stroke:#000000;stroke-width:0.8;" x="276" xlink:href="#m488a0cdb0e" y="538.56"/>
      </g>
     </g>
    </g>
    <g id="xtick_18">
     <g id="line2d_46">
      <g>
       <use style="stroke:#000000;stroke-width:0.8;" x="324.947368" xlink:href="#m488a0cdb0e" y="538.56"/>
      </g>
     </g>
    </g>
    <g id="xtick_19">
     <g id="line2d_47">
      <g>
       <use style="stroke:#000000;stroke-width:0.8;" x="373.894737" xlink:href="#m488a0cdb0e" y="538.56"/>
      </g>
     </g>
    </g>
    <g id="xtick_20">
     <g id="line2d_48">
      <g>
       <use style="stroke:#000000;stroke-width:0.8;" x="422.842105" xlink:href="#m488a0cdb0e" y="538.56"/>
      </g>
     </g>
    </g>
   </g>
   <g id="matplotlib.axis_10">
    <g id="ytick_25">
     <g id="line2d_49">
      <g>
       <use style="stroke:#000000;stroke-width:0.8;" x="276" xlink:href="#m5bba010faa" y="538.56"/>
      </g>
     </g>
    </g>
    <g id="ytick_26">
     <g id="line2d_50">
      <g>
       <use style="stroke:#000000;stroke-width:0.8;" x="276" xlink:href="#m5bba010faa" y="499.025455"/>
      </g>
     </g>
    </g>
    <g id="ytick_27">
     <g id="line2d_51">
      <g>
       <use style="stroke:#000000;stroke-width:0.8;" x="276" xlink:href="#m5bba010faa" y="459.490909"/>
      </g>
     </g>
    </g>
    <g id="ytick_28">
     <g id="line2d_52">
      <g>
       <use style="stroke:#000000;stroke-width:0.8;" x="276" xlink:href="#m5bba010faa" y="419.956364"/>
      </g>
     </g>
    </g>
    <g id="ytick_29">
     <g id="line2d_53">
      <g>
       <use style="stroke:#000000;stroke-width:0.8;" x="276" xlink:href="#m5bba010faa" y="380.421818"/>
      </g>
     </g>
    </g>
    <g id="ytick_30">
     <g id="line2d_54">
      <g>
       <use style="stroke:#000000;stroke-width:0.8;" x="276" xlink:href="#m5bba010faa" y="340.887273"/>
      </g>
     </g>
    </g>
   </g>
   <g id="line2d_55">
    <path clip-path="url(#p729daaaf26)" d="M 285.789474 370.563864 
L 305.368421 395.909222 
L 315.157895 385.500121 
L 324.947368 379.763356 
L 334.736842 368.434131 
L 344.526316 414.388288 
L 354.315789 363.243153 
L 364.105263 421.9565 
L 373.894737 390.589111 
L 383.684211 373.233076 
L 393.473684 365.928332 
L 403.263158 368.555857 
L 413.052632 370.563864 
L 422.842105 370.563864 
L 432.631579 367.989864 
L 442.421053 373.01482 
" style="fill:none;stroke:#ff8c00;stroke-linecap:square;stroke-width:1.5;"/>
   </g>
   <g id="patch_23">
    <path d="M 276 538.56 
L 276 321.12 
" style="fill:none;stroke:#000000;stroke-linecap:square;stroke-linejoin:miter;stroke-width:0.8;"/>
   </g>
   <g id="patch_24">
    <path d="M 462 538.56 
L 462 321.12 
" style="fill:none;stroke:#000000;stroke-linecap:square;stroke-linejoin:miter;stroke-width:0.8;"/>
   </g>
   <g id="patch_25">
    <path d="M 276 538.56 
L 462 538.56 
" style="fill:none;stroke:#000000;stroke-linecap:square;stroke-linejoin:miter;stroke-width:0.8;"/>
   </g>
   <g id="patch_26">
    <path d="M 276 321.12 
L 462 321.12 
" style="fill:none;stroke:#000000;stroke-linecap:square;stroke-linejoin:miter;stroke-width:0.8;"/>
   </g>
   <g id="text_19">
    <!-- ZEV -->
    <g transform="translate(369 338.5152)scale(0.1 -0.1)">
     <use xlink:href="#DejaVuSans-90"/>
     <use x="68.505859" xlink:href="#DejaVuSans-69"/>
     <use x="131.689453" xlink:href="#DejaVuSans-86"/>
    </g>
   </g>
  </g>
  <g id="axes_6">
   <g id="patch_27">
    <path d="M 462 538.56 
L 648 538.56 
L 648 321.12 
L 462 321.12 
z
" style="fill:#ffffff;"/>
   </g>
   <g id="PolyCollection_6">
    <defs>
     <path d="M 471.789474 -499.536132 
L 471.789474 -449.706587 
L 481.578947 -476.089945 
L 491.368421 -460.257151 
L 501.157895 -406.093575 
L 510.947368 -457.791055 
L 520.736842 -387.919333 
L 530.526316 -375.017002 
L 540.315789 -381.202971 
L 550.105263 -380.022156 
L 559.894737 -360.706791 
L 569.684211 -369.730057 
L 579.473684 -359.225458 
L 589.263158 -364.597243 
L 599.052632 -365.349114 
L 608.842105 -360.467848 
L 618.631579 -357.893686 
L 628.421053 -356.417011 
L 628.421053 -493.069595 
L 628.421053 -493.069595 
L 618.631579 -493.914073 
L 608.842105 -497.036391 
L 599.052632 -492.969779 
L 589.263158 -495.16448 
L 579.473684 -493.459903 
L 569.684211 -495.740076 
L 559.894737 -498.694081 
L 550.105263 -499.536132 
L 540.315789 -494.067314 
L 530.526316 -498.412063 
L 520.736842 -498.664482 
L 510.947368 -499.361306 
L 501.157895 -498.701974 
L 491.368421 -500.002901 
L 481.578947 -500.927643 
L 471.789474 -499.536132 
z
" id="m84811a78aa" style="stroke:#008000;stroke-opacity:0.5;"/>
    </defs>
    <g clip-path="url(#pb06c4d9b15)">
     <use style="fill:#008000;fill-opacity:0.5;stroke:#008000;stroke-opacity:0.5;" x="0" xlink:href="#m84811a78aa" y="864"/>
    </g>
   </g>
   <g id="matplotlib.axis_11">
    <g id="xtick_21">
     <g id="line2d_56">
      <g>
       <use style="stroke:#000000;stroke-width:0.8;" x="462" xlink:href="#m488a0cdb0e" y="538.56"/>
      </g>
     </g>
    </g>
    <g id="xtick_22">
     <g id="line2d_57">
      <g>
       <use style="stroke:#000000;stroke-width:0.8;" x="510.947368" xlink:href="#m488a0cdb0e" y="538.56"/>
      </g>
     </g>
    </g>
    <g id="xtick_23">
     <g id="line2d_58">
      <g>
       <use style="stroke:#000000;stroke-width:0.8;" x="559.894737" xlink:href="#m488a0cdb0e" y="538.56"/>
      </g>
     </g>
    </g>
    <g id="xtick_24">
     <g id="line2d_59">
      <g>
       <use style="stroke:#000000;stroke-width:0.8;" x="608.842105" xlink:href="#m488a0cdb0e" y="538.56"/>
      </g>
     </g>
    </g>
   </g>
   <g id="matplotlib.axis_12">
    <g id="ytick_31">
     <g id="line2d_60">
      <g>
       <use style="stroke:#000000;stroke-width:0.8;" x="462" xlink:href="#m5bba010faa" y="538.56"/>
      </g>
     </g>
    </g>
    <g id="ytick_32">
     <g id="line2d_61">
      <g>
       <use style="stroke:#000000;stroke-width:0.8;" x="462" xlink:href="#m5bba010faa" y="499.025455"/>
      </g>
     </g>
    </g>
    <g id="ytick_33">
     <g id="line2d_62">
      <g>
       <use style="stroke:#000000;stroke-width:0.8;" x="462" xlink:href="#m5bba010faa" y="459.490909"/>
      </g>
     </g>
    </g>
    <g id="ytick_34">
     <g id="line2d_63">
      <g>
       <use style="stroke:#000000;stroke-width:0.8;" x="462" xlink:href="#m5bba010faa" y="419.956364"/>
      </g>
     </g>
    </g>
    <g id="ytick_35">
     <g id="line2d_64">
      <g>
       <use style="stroke:#000000;stroke-width:0.8;" x="462" xlink:href="#m5bba010faa" y="380.421818"/>
      </g>
     </g>
    </g>
    <g id="ytick_36">
     <g id="line2d_65">
      <g>
       <use style="stroke:#000000;stroke-width:0.8;" x="462" xlink:href="#m5bba010faa" y="340.887273"/>
      </g>
     </g>
    </g>
   </g>
   <g id="line2d_66">
    <path clip-path="url(#pb06c4d9b15)" d="M 471.789474 377.364097 
L 481.578947 377.638601 
L 491.368421 364.463868 
L 501.157895 381.508643 
L 510.947368 374.890573 
L 520.736842 370.189222 
L 530.526316 395.876781 
L 540.315789 429.685911 
L 550.105263 380.657276 
L 559.894737 409.866772 
L 569.684211 422.815311 
L 579.473684 417.851295 
L 589.263158 425.744437 
L 599.052632 425.220736 
L 608.842105 422.394496 
L 618.631579 423.186226 
L 628.421053 431.859011 
" style="fill:none;stroke:#008000;stroke-linecap:square;stroke-width:1.5;"/>
   </g>
   <g id="patch_28">
    <path d="M 462 538.56 
L 462 321.12 
" style="fill:none;stroke:#000000;stroke-linecap:square;stroke-linejoin:miter;stroke-width:0.8;"/>
   </g>
   <g id="patch_29">
    <path d="M 648 538.56 
L 648 321.12 
" style="fill:none;stroke:#000000;stroke-linecap:square;stroke-linejoin:miter;stroke-width:0.8;"/>
   </g>
   <g id="patch_30">
    <path d="M 462 538.56 
L 648 538.56 
" style="fill:none;stroke:#000000;stroke-linecap:square;stroke-linejoin:miter;stroke-width:0.8;"/>
   </g>
   <g id="patch_31">
    <path d="M 462 321.12 
L 648 321.12 
" style="fill:none;stroke:#000000;stroke-linecap:square;stroke-linejoin:miter;stroke-width:0.8;"/>
   </g>
   <g id="text_20">
    <!-- ZEV -->
    <g transform="translate(555 338.5152)scale(0.1 -0.1)">
     <use xlink:href="#DejaVuSans-90"/>
     <use x="68.505859" xlink:href="#DejaVuSans-69"/>
     <use x="131.689453" xlink:href="#DejaVuSans-86"/>
    </g>
   </g>
  </g>
  <g id="axes_7">
   <g id="patch_32">
    <path d="M 90 756 
L 276 756 
L 276 538.56 
L 90 538.56 
z
" style="fill:#ffffff;"/>
   </g>
   <g id="PolyCollection_7">
    <defs>
     <path d="M 148.736842 -150.338589 
L 148.736842 -150.338589 
L 168.315789 -138.081979 
L 178.105263 -134.09132 
L 187.894737 -128.324101 
L 197.684211 -129.205591 
L 207.473684 -129.059831 
L 217.263158 -130.828599 
L 227.052632 -128.473642 
L 236.842105 -129.516569 
L 246.631579 -131.091813 
L 256.421053 -128.318351 
L 256.421053 -139.662014 
L 256.421053 -139.662014 
L 246.631579 -138.774498 
L 236.842105 -140.371018 
L 227.052632 -141.638557 
L 217.263158 -139.405736 
L 207.473684 -145.244481 
L 197.684211 -145.244481 
L 187.894737 -135.540876 
L 178.105263 -140.779902 
L 168.315789 -148.569495 
L 148.736842 -150.338589 
z
" id="mfb82dab0e9" style="stroke:#0000ff;stroke-opacity:0.5;"/>
    </defs>
    <g clip-path="url(#p9200575630)">
     <use style="fill:#0000ff;fill-opacity:0.5;stroke:#0000ff;stroke-opacity:0.5;" x="0" xlink:href="#mfb82dab0e9" y="864"/>
    </g>
   </g>
   <g id="matplotlib.axis_13">
    <g id="xtick_25">
     <g id="line2d_67">
      <g>
       <use style="stroke:#000000;stroke-width:0.8;" x="90" xlink:href="#m488a0cdb0e" y="756"/>
      </g>
     </g>
     <g id="text_21">
      <!-- 2019 -->
      <defs>
       <path d="M 10.984375 1.515625 
L 10.984375 10.5 
Q 14.703125 8.734375 18.5 7.8125 
Q 22.3125 6.890625 25.984375 6.890625 
Q 35.75 6.890625 40.890625 13.453125 
Q 46.046875 20.015625 46.78125 33.40625 
Q 43.953125 29.203125 39.59375 26.953125 
Q 35.25 24.703125 29.984375 24.703125 
Q 19.046875 24.703125 12.671875 31.3125 
Q 6.296875 37.9375 6.296875 49.421875 
Q 6.296875 60.640625 12.9375 67.421875 
Q 19.578125 74.21875 30.609375 74.21875 
Q 43.265625 74.21875 49.921875 64.515625 
Q 56.59375 54.828125 56.59375 36.375 
Q 56.59375 19.140625 48.40625 8.859375 
Q 40.234375 -1.421875 26.421875 -1.421875 
Q 22.703125 -1.421875 18.890625 -0.6875 
Q 15.09375 0.046875 10.984375 1.515625 
z
M 30.609375 32.421875 
Q 37.25 32.421875 41.125 36.953125 
Q 45.015625 41.5 45.015625 49.421875 
Q 45.015625 57.28125 41.125 61.84375 
Q 37.25 66.40625 30.609375 66.40625 
Q 23.96875 66.40625 20.09375 61.84375 
Q 16.21875 57.28125 16.21875 49.421875 
Q 16.21875 41.5 20.09375 36.953125 
Q 23.96875 32.421875 30.609375 32.421875 
z
" id="DejaVuSans-57"/>
      </defs>
      <g transform="translate(77.275 770.598437)scale(0.1 -0.1)">
       <use xlink:href="#DejaVuSans-50"/>
       <use x="63.623047" xlink:href="#DejaVuSans-48"/>
       <use x="127.246094" xlink:href="#DejaVuSans-49"/>
       <use x="190.869141" xlink:href="#DejaVuSans-57"/>
      </g>
     </g>
    </g>
    <g id="xtick_26">
     <g id="line2d_68">
      <g>
       <use style="stroke:#000000;stroke-width:0.8;" x="138.947368" xlink:href="#m488a0cdb0e" y="756"/>
      </g>
     </g>
     <g id="text_22">
      <!-- 2024 -->
      <g transform="translate(126.222368 770.598437)scale(0.1 -0.1)">
       <use xlink:href="#DejaVuSans-50"/>
       <use x="63.623047" xlink:href="#DejaVuSans-48"/>
       <use x="127.246094" xlink:href="#DejaVuSans-50"/>
       <use x="190.869141" xlink:href="#DejaVuSans-52"/>
      </g>
     </g>
    </g>
    <g id="xtick_27">
     <g id="line2d_69">
      <g>
       <use style="stroke:#000000;stroke-width:0.8;" x="187.894737" xlink:href="#m488a0cdb0e" y="756"/>
      </g>
     </g>
     <g id="text_23">
      <!-- 2029 -->
      <g transform="translate(175.169737 770.598437)scale(0.1 -0.1)">
       <use xlink:href="#DejaVuSans-50"/>
       <use x="63.623047" xlink:href="#DejaVuSans-48"/>
       <use x="127.246094" xlink:href="#DejaVuSans-50"/>
       <use x="190.869141" xlink:href="#DejaVuSans-57"/>
      </g>
     </g>
    </g>
    <g id="xtick_28">
     <g id="line2d_70">
      <g>
       <use style="stroke:#000000;stroke-width:0.8;" x="236.842105" xlink:href="#m488a0cdb0e" y="756"/>
      </g>
     </g>
     <g id="text_24">
      <!-- 2034 -->
      <defs>
       <path d="M 40.578125 39.3125 
Q 47.65625 37.796875 51.625 33 
Q 55.609375 28.21875 55.609375 21.1875 
Q 55.609375 10.40625 48.1875 4.484375 
Q 40.765625 -1.421875 27.09375 -1.421875 
Q 22.515625 -1.421875 17.65625 -0.515625 
Q 12.796875 0.390625 7.625 2.203125 
L 7.625 11.71875 
Q 11.71875 9.328125 16.59375 8.109375 
Q 21.484375 6.890625 26.8125 6.890625 
Q 36.078125 6.890625 40.9375 10.546875 
Q 45.796875 14.203125 45.796875 21.1875 
Q 45.796875 27.640625 41.28125 31.265625 
Q 36.765625 34.90625 28.71875 34.90625 
L 20.21875 34.90625 
L 20.21875 43.015625 
L 29.109375 43.015625 
Q 36.375 43.015625 40.234375 45.921875 
Q 44.09375 48.828125 44.09375 54.296875 
Q 44.09375 59.90625 40.109375 62.90625 
Q 36.140625 65.921875 28.71875 65.921875 
Q 24.65625 65.921875 20.015625 65.03125 
Q 15.375 64.15625 9.8125 62.3125 
L 9.8125 71.09375 
Q 15.4375 72.65625 20.34375 73.4375 
Q 25.25 74.21875 29.59375 74.21875 
Q 40.828125 74.21875 47.359375 69.109375 
Q 53.90625 64.015625 53.90625 55.328125 
Q 53.90625 49.265625 50.4375 45.09375 
Q 46.96875 40.921875 40.578125 39.3125 
z
" id="DejaVuSans-51"/>
      </defs>
      <g transform="translate(224.117105 770.598437)scale(0.1 -0.1)">
       <use xlink:href="#DejaVuSans-50"/>
       <use x="63.623047" xlink:href="#DejaVuSans-48"/>
       <use x="127.246094" xlink:href="#DejaVuSans-51"/>
       <use x="190.869141" xlink:href="#DejaVuSans-52"/>
      </g>
     </g>
    </g>
   </g>
   <g id="matplotlib.axis_14">
    <g id="ytick_37">
     <g id="line2d_71">
      <g>
       <use style="stroke:#000000;stroke-width:0.8;" x="90" xlink:href="#m5bba010faa" y="756"/>
      </g>
     </g>
     <g id="text_25">
      <!-- 0.0 -->
      <g transform="translate(67.096875 759.799219)scale(0.1 -0.1)">
       <use xlink:href="#DejaVuSans-48"/>
       <use x="63.623047" xlink:href="#DejaVuSans-46"/>
       <use x="95.410156" xlink:href="#DejaVuSans-48"/>
      </g>
     </g>
    </g>
    <g id="ytick_38">
     <g id="line2d_72">
      <g>
       <use style="stroke:#000000;stroke-width:0.8;" x="90" xlink:href="#m5bba010faa" y="716.465455"/>
      </g>
     </g>
     <g id="text_26">
      <!-- 0.2 -->
      <g transform="translate(67.096875 720.264673)scale(0.1 -0.1)">
       <use xlink:href="#DejaVuSans-48"/>
       <use x="63.623047" xlink:href="#DejaVuSans-46"/>
       <use x="95.410156" xlink:href="#DejaVuSans-50"/>
      </g>
     </g>
    </g>
    <g id="ytick_39">
     <g id="line2d_73">
      <g>
       <use style="stroke:#000000;stroke-width:0.8;" x="90" xlink:href="#m5bba010faa" y="676.930909"/>
      </g>
     </g>
     <g id="text_27">
      <!-- 0.4 -->
      <g transform="translate(67.096875 680.730128)scale(0.1 -0.1)">
       <use xlink:href="#DejaVuSans-48"/>
       <use x="63.623047" xlink:href="#DejaVuSans-46"/>
       <use x="95.410156" xlink:href="#DejaVuSans-52"/>
      </g>
     </g>
    </g>
    <g id="ytick_40">
     <g id="line2d_74">
      <g>
       <use style="stroke:#000000;stroke-width:0.8;" x="90" xlink:href="#m5bba010faa" y="637.396364"/>
      </g>
     </g>
     <g id="text_28">
      <!-- 0.6 -->
      <g transform="translate(67.096875 641.195582)scale(0.1 -0.1)">
       <use xlink:href="#DejaVuSans-48"/>
       <use x="63.623047" xlink:href="#DejaVuSans-46"/>
       <use x="95.410156" xlink:href="#DejaVuSans-54"/>
      </g>
     </g>
    </g>
    <g id="ytick_41">
     <g id="line2d_75">
      <g>
       <use style="stroke:#000000;stroke-width:0.8;" x="90" xlink:href="#m5bba010faa" y="597.861818"/>
      </g>
     </g>
     <g id="text_29">
      <!-- 0.8 -->
      <g transform="translate(67.096875 601.661037)scale(0.1 -0.1)">
       <use xlink:href="#DejaVuSans-48"/>
       <use x="63.623047" xlink:href="#DejaVuSans-46"/>
       <use x="95.410156" xlink:href="#DejaVuSans-56"/>
      </g>
     </g>
    </g>
    <g id="ytick_42">
     <g id="line2d_76">
      <g>
       <use style="stroke:#000000;stroke-width:0.8;" x="90" xlink:href="#m5bba010faa" y="558.327273"/>
      </g>
     </g>
     <g id="text_30">
      <!-- 1.0 -->
      <g transform="translate(67.096875 562.126491)scale(0.1 -0.1)">
       <use xlink:href="#DejaVuSans-49"/>
       <use x="63.623047" xlink:href="#DejaVuSans-46"/>
       <use x="95.410156" xlink:href="#DejaVuSans-48"/>
      </g>
     </g>
    </g>
    <g id="text_31">
     <!-- Self-consumption rate  -->
     <g transform="translate(49.819375 704.187031)rotate(-90)scale(0.1 -0.1)">
      <use xlink:href="#DejaVuSans-83"/>
      <use x="63.476562" xlink:href="#DejaVuSans-101"/>
      <use x="125" xlink:href="#DejaVuSans-108"/>
      <use x="152.783203" xlink:href="#DejaVuSans-102"/>
      <use x="187.910156" xlink:href="#DejaVuSans-45"/>
      <use x="223.994141" xlink:href="#DejaVuSans-99"/>
      <use x="278.974609" xlink:href="#DejaVuSans-111"/>
      <use x="340.15625" xlink:href="#DejaVuSans-110"/>
      <use x="403.535156" xlink:href="#DejaVuSans-115"/>
      <use x="455.634766" xlink:href="#DejaVuSans-117"/>
      <use x="519.013672" xlink:href="#DejaVuSans-109"/>
      <use x="616.425781" xlink:href="#DejaVuSans-112"/>
      <use x="679.902344" xlink:href="#DejaVuSans-116"/>
      <use x="719.111328" xlink:href="#DejaVuSans-105"/>
      <use x="746.894531" xlink:href="#DejaVuSans-111"/>
      <use x="808.076172" xlink:href="#DejaVuSans-110"/>
      <use x="871.455078" xlink:href="#DejaVuSans-32"/>
      <use x="903.242188" xlink:href="#DejaVuSans-114"/>
      <use x="944.355469" xlink:href="#DejaVuSans-97"/>
      <use x="1005.634766" xlink:href="#DejaVuSans-116"/>
      <use x="1044.84375" xlink:href="#DejaVuSans-101"/>
      <use x="1106.367188" xlink:href="#DejaVuSans-32"/>
     </g>
     <!-- [% solar generation consumed on site] -->
     <g transform="translate(61.017187 744.37375)rotate(-90)scale(0.1 -0.1)">
      <use xlink:href="#DejaVuSans-91"/>
      <use x="39.013672" xlink:href="#DejaVuSans-37"/>
      <use x="134.033203" xlink:href="#DejaVuSans-32"/>
      <use x="165.820312" xlink:href="#DejaVuSans-115"/>
      <use x="217.919922" xlink:href="#DejaVuSans-111"/>
      <use x="279.101562" xlink:href="#DejaVuSans-108"/>
      <use x="306.884766" xlink:href="#DejaVuSans-97"/>
      <use x="368.164062" xlink:href="#DejaVuSans-114"/>
      <use x="409.277344" xlink:href="#DejaVuSans-32"/>
      <use x="441.064453" xlink:href="#DejaVuSans-103"/>
      <use x="504.541016" xlink:href="#DejaVuSans-101"/>
      <use x="566.064453" xlink:href="#DejaVuSans-110"/>
      <use x="629.443359" xlink:href="#DejaVuSans-101"/>
      <use x="690.966797" xlink:href="#DejaVuSans-114"/>
      <use x="732.080078" xlink:href="#DejaVuSans-97"/>
      <use x="793.359375" xlink:href="#DejaVuSans-116"/>
      <use x="832.568359" xlink:href="#DejaVuSans-105"/>
      <use x="860.351562" xlink:href="#DejaVuSans-111"/>
      <use x="921.533203" xlink:href="#DejaVuSans-110"/>
      <use x="984.912109" xlink:href="#DejaVuSans-32"/>
      <use x="1016.699219" xlink:href="#DejaVuSans-99"/>
      <use x="1071.679688" xlink:href="#DejaVuSans-111"/>
      <use x="1132.861328" xlink:href="#DejaVuSans-110"/>
      <use x="1196.240234" xlink:href="#DejaVuSans-115"/>
      <use x="1248.339844" xlink:href="#DejaVuSans-117"/>
      <use x="1311.71875" xlink:href="#DejaVuSans-109"/>
      <use x="1409.130859" xlink:href="#DejaVuSans-101"/>
      <use x="1470.654297" xlink:href="#DejaVuSans-100"/>
      <use x="1534.130859" xlink:href="#DejaVuSans-32"/>
      <use x="1565.917969" xlink:href="#DejaVuSans-111"/>
      <use x="1627.099609" xlink:href="#DejaVuSans-110"/>
      <use x="1690.478516" xlink:href="#DejaVuSans-32"/>
      <use x="1722.265625" xlink:href="#DejaVuSans-115"/>
      <use x="1774.365234" xlink:href="#DejaVuSans-105"/>
      <use x="1802.148438" xlink:href="#DejaVuSans-116"/>
      <use x="1841.357422" xlink:href="#DejaVuSans-101"/>
      <use x="1902.880859" xlink:href="#DejaVuSans-93"/>
     </g>
    </g>
   </g>
   <g id="line2d_77">
    <path clip-path="url(#p9200575630)" d="M 148.736842 713.661411 
L 168.315789 718.820144 
L 178.105263 726.419723 
L 187.894737 734.22264 
L 197.684211 728.709268 
L 207.473684 728.74646 
L 217.263158 729.529775 
L 227.052632 729.745986 
L 236.842105 729.902698 
L 246.631579 730.23652 
L 256.421053 731.094551 
" style="fill:none;stroke:#0000ff;stroke-linecap:square;stroke-width:1.5;"/>
   </g>
   <g id="patch_33">
    <path d="M 90 756 
L 90 538.56 
" style="fill:none;stroke:#000000;stroke-linecap:square;stroke-linejoin:miter;stroke-width:0.8;"/>
   </g>
   <g id="patch_34">
    <path d="M 276 756 
L 276 538.56 
" style="fill:none;stroke:#000000;stroke-linecap:square;stroke-linejoin:miter;stroke-width:0.8;"/>
   </g>
   <g id="patch_35">
    <path d="M 90 756 
L 276 756 
" style="fill:none;stroke:#000000;stroke-linecap:square;stroke-linejoin:miter;stroke-width:0.8;"/>
   </g>
   <g id="patch_36">
    <path d="M 90 538.56 
L 276 538.56 
" style="fill:none;stroke:#000000;stroke-linecap:square;stroke-linejoin:miter;stroke-width:0.8;"/>
   </g>
   <g id="text_32">
    <!-- ZEV+ -->
    <defs>
     <path d="M 46 62.703125 
L 46 35.5 
L 73.1875 35.5 
L 73.1875 27.203125 
L 46 27.203125 
L 46 0 
L 37.796875 0 
L 37.796875 27.203125 
L 10.59375 27.203125 
L 10.59375 35.5 
L 37.796875 35.5 
L 37.796875 62.703125 
z
" id="DejaVuSans-43"/>
    </defs>
    <g transform="translate(183 555.9552)scale(0.1 -0.1)">
     <use xlink:href="#DejaVuSans-90"/>
     <use x="68.505859" xlink:href="#DejaVuSans-69"/>
     <use x="131.689453" xlink:href="#DejaVuSans-86"/>
     <use x="200.097656" xlink:href="#DejaVuSans-43"/>
    </g>
   </g>
   <g id="legend_1">
    <g id="line2d_78">
     <path d="M 132.423438 790.842437 
L 152.423438 790.842437 
" style="fill:none;stroke:#0000ff;stroke-linecap:square;stroke-width:1.5;"/>
    </g>
    <g id="line2d_79"/>
    <g id="text_33">
     <!-- all_residential -->
     <defs>
      <path d="M 50.984375 -16.609375 
L 50.984375 -23.578125 
L -0.984375 -23.578125 
L -0.984375 -16.609375 
z
" id="DejaVuSans-95"/>
     </defs>
     <g transform="translate(160.423438 794.342437)scale(0.1 -0.1)">
      <use xlink:href="#DejaVuSans-97"/>
      <use x="61.279297" xlink:href="#DejaVuSans-108"/>
      <use x="89.0625" xlink:href="#DejaVuSans-108"/>
      <use x="116.845703" xlink:href="#DejaVuSans-95"/>
      <use x="166.845703" xlink:href="#DejaVuSans-114"/>
      <use x="207.927734" xlink:href="#DejaVuSans-101"/>
      <use x="269.451172" xlink:href="#DejaVuSans-115"/>
      <use x="321.550781" xlink:href="#DejaVuSans-105"/>
      <use x="349.333984" xlink:href="#DejaVuSans-100"/>
      <use x="412.810547" xlink:href="#DejaVuSans-101"/>
      <use x="474.333984" xlink:href="#DejaVuSans-110"/>
      <use x="537.712891" xlink:href="#DejaVuSans-116"/>
      <use x="576.921875" xlink:href="#DejaVuSans-105"/>
      <use x="604.705078" xlink:href="#DejaVuSans-97"/>
      <use x="665.984375" xlink:href="#DejaVuSans-108"/>
     </g>
    </g>
   </g>
  </g>
  <g id="axes_8">
   <g id="patch_37">
    <path d="M 276 756 
L 462 756 
L 462 538.56 
L 276 538.56 
z
" style="fill:#ffffff;"/>
   </g>
   <g id="PolyCollection_8">
    <defs>
     <path d="M 285.789474 -280.949674 
L 285.789474 -262.553505 
L 305.368421 -221.283552 
L 315.157895 -261.059879 
L 324.947368 -266.546133 
L 334.736842 -278.125869 
L 344.526316 -220.532302 
L 354.315789 -282.653938 
L 364.105263 -178.350127 
L 373.894737 -239.950907 
L 383.684211 -262.286584 
L 393.473684 -166.912139 
L 403.263158 -263.748082 
L 413.052632 -212.883626 
L 422.842105 -275.996136 
L 432.631579 -264.267109 
L 442.421053 -188.758661 
L 442.421053 -282.332974 
L 442.421053 -282.332974 
L 432.631579 -282.684222 
L 422.842105 -279.757194 
L 413.052632 -281.674418 
L 403.263158 -283.106731 
L 393.473684 -282.995254 
L 383.684211 -282.980763 
L 373.894737 -271.99087 
L 364.105263 -270.856873 
L 354.315789 -283.979755 
L 344.526316 -268.58507 
L 334.736842 -278.125869 
L 324.947368 -267.047156 
L 315.157895 -277.189397 
L 305.368421 -280.018005 
L 285.789474 -280.949674 
z
" id="m152576f36a" style="stroke:#ff8c00;stroke-opacity:0.5;"/>
    </defs>
    <g clip-path="url(#p7932bc2fc5)">
     <use style="fill:#ff8c00;fill-opacity:0.5;stroke:#ff8c00;stroke-opacity:0.5;" x="0" xlink:href="#m152576f36a" y="864"/>
    </g>
   </g>
   <g id="matplotlib.axis_15">
    <g id="xtick_29">
     <g id="line2d_80">
      <g>
       <use style="stroke:#000000;stroke-width:0.8;" x="276" xlink:href="#m488a0cdb0e" y="756"/>
      </g>
     </g>
     <g id="text_34">
      <!-- 2019 -->
      <g transform="translate(263.275 770.598437)scale(0.1 -0.1)">
       <use xlink:href="#DejaVuSans-50"/>
       <use x="63.623047" xlink:href="#DejaVuSans-48"/>
       <use x="127.246094" xlink:href="#DejaVuSans-49"/>
       <use x="190.869141" xlink:href="#DejaVuSans-57"/>
      </g>
     </g>
    </g>
    <g id="xtick_30">
     <g id="line2d_81">
      <g>
       <use style="stroke:#000000;stroke-width:0.8;" x="324.947368" xlink:href="#m488a0cdb0e" y="756"/>
      </g>
     </g>
     <g id="text_35">
      <!-- 2024 -->
      <g transform="translate(312.222368 770.598437)scale(0.1 -0.1)">
       <use xlink:href="#DejaVuSans-50"/>
       <use x="63.623047" xlink:href="#DejaVuSans-48"/>
       <use x="127.246094" xlink:href="#DejaVuSans-50"/>
       <use x="190.869141" xlink:href="#DejaVuSans-52"/>
      </g>
     </g>
    </g>
    <g id="xtick_31">
     <g id="line2d_82">
      <g>
       <use style="stroke:#000000;stroke-width:0.8;" x="373.894737" xlink:href="#m488a0cdb0e" y="756"/>
      </g>
     </g>
     <g id="text_36">
      <!-- 2029 -->
      <g transform="translate(361.169737 770.598437)scale(0.1 -0.1)">
       <use xlink:href="#DejaVuSans-50"/>
       <use x="63.623047" xlink:href="#DejaVuSans-48"/>
       <use x="127.246094" xlink:href="#DejaVuSans-50"/>
       <use x="190.869141" xlink:href="#DejaVuSans-57"/>
      </g>
     </g>
    </g>
    <g id="xtick_32">
     <g id="line2d_83">
      <g>
       <use style="stroke:#000000;stroke-width:0.8;" x="422.842105" xlink:href="#m488a0cdb0e" y="756"/>
      </g>
     </g>
     <g id="text_37">
      <!-- 2034 -->
      <g transform="translate(410.117105 770.598437)scale(0.1 -0.1)">
       <use xlink:href="#DejaVuSans-50"/>
       <use x="63.623047" xlink:href="#DejaVuSans-48"/>
       <use x="127.246094" xlink:href="#DejaVuSans-51"/>
       <use x="190.869141" xlink:href="#DejaVuSans-52"/>
      </g>
     </g>
    </g>
   </g>
   <g id="matplotlib.axis_16">
    <g id="ytick_43">
     <g id="line2d_84">
      <g>
       <use style="stroke:#000000;stroke-width:0.8;" x="276" xlink:href="#m5bba010faa" y="756"/>
      </g>
     </g>
    </g>
    <g id="ytick_44">
     <g id="line2d_85">
      <g>
       <use style="stroke:#000000;stroke-width:0.8;" x="276" xlink:href="#m5bba010faa" y="716.465455"/>
      </g>
     </g>
    </g>
    <g id="ytick_45">
     <g id="line2d_86">
      <g>
       <use style="stroke:#000000;stroke-width:0.8;" x="276" xlink:href="#m5bba010faa" y="676.930909"/>
      </g>
     </g>
    </g>
    <g id="ytick_46">
     <g id="line2d_87">
      <g>
       <use style="stroke:#000000;stroke-width:0.8;" x="276" xlink:href="#m5bba010faa" y="637.396364"/>
      </g>
     </g>
    </g>
    <g id="ytick_47">
     <g id="line2d_88">
      <g>
       <use style="stroke:#000000;stroke-width:0.8;" x="276" xlink:href="#m5bba010faa" y="597.861818"/>
      </g>
     </g>
    </g>
    <g id="ytick_48">
     <g id="line2d_89">
      <g>
       <use style="stroke:#000000;stroke-width:0.8;" x="276" xlink:href="#m5bba010faa" y="558.327273"/>
      </g>
     </g>
    </g>
   </g>
   <g id="line2d_90">
    <path clip-path="url(#p7932bc2fc5)" d="M 285.789474 588.003864 
L 305.368421 613.349222 
L 315.157895 602.940121 
L 324.947368 597.203356 
L 334.736842 585.874131 
L 344.526316 631.828288 
L 354.315789 580.683153 
L 364.105263 639.3965 
L 373.894737 608.029111 
L 383.684211 590.673076 
L 393.473684 583.368332 
L 403.263158 585.995857 
L 413.052632 588.003864 
L 422.842105 588.003864 
L 432.631579 585.429864 
L 442.421053 590.45482 
" style="fill:none;stroke:#ff8c00;stroke-linecap:square;stroke-width:1.5;"/>
   </g>
   <g id="patch_38">
    <path d="M 276 756 
L 276 538.56 
" style="fill:none;stroke:#000000;stroke-linecap:square;stroke-linejoin:miter;stroke-width:0.8;"/>
   </g>
   <g id="patch_39">
    <path d="M 462 756 
L 462 538.56 
" style="fill:none;stroke:#000000;stroke-linecap:square;stroke-linejoin:miter;stroke-width:0.8;"/>
   </g>
   <g id="patch_40">
    <path d="M 276 756 
L 462 756 
" style="fill:none;stroke:#000000;stroke-linecap:square;stroke-linejoin:miter;stroke-width:0.8;"/>
   </g>
   <g id="patch_41">
    <path d="M 276 538.56 
L 462 538.56 
" style="fill:none;stroke:#000000;stroke-linecap:square;stroke-linejoin:miter;stroke-width:0.8;"/>
   </g>
   <g id="text_38">
    <!-- ZEV+ -->
    <g transform="translate(369 555.9552)scale(0.1 -0.1)">
     <use xlink:href="#DejaVuSans-90"/>
     <use x="68.505859" xlink:href="#DejaVuSans-69"/>
     <use x="131.689453" xlink:href="#DejaVuSans-86"/>
     <use x="200.097656" xlink:href="#DejaVuSans-43"/>
    </g>
   </g>
   <g id="legend_2">
    <g id="line2d_91">
     <path d="M 312.573438 790.842437 
L 332.573438 790.842437 
" style="fill:none;stroke:#ff8c00;stroke-linecap:square;stroke-width:1.5;"/>
    </g>
    <g id="line2d_92"/>
    <g id="text_39">
     <!-- all_commercial -->
     <g transform="translate(340.573438 794.342437)scale(0.1 -0.1)">
      <use xlink:href="#DejaVuSans-97"/>
      <use x="61.279297" xlink:href="#DejaVuSans-108"/>
      <use x="89.0625" xlink:href="#DejaVuSans-108"/>
      <use x="116.845703" xlink:href="#DejaVuSans-95"/>
      <use x="166.845703" xlink:href="#DejaVuSans-99"/>
      <use x="221.826172" xlink:href="#DejaVuSans-111"/>
      <use x="283.007812" xlink:href="#DejaVuSans-109"/>
      <use x="380.419922" xlink:href="#DejaVuSans-109"/>
      <use x="477.832031" xlink:href="#DejaVuSans-101"/>
      <use x="539.355469" xlink:href="#DejaVuSans-114"/>
      <use x="580.4375" xlink:href="#DejaVuSans-99"/>
      <use x="635.417969" xlink:href="#DejaVuSans-105"/>
      <use x="663.201172" xlink:href="#DejaVuSans-97"/>
      <use x="724.480469" xlink:href="#DejaVuSans-108"/>
     </g>
    </g>
   </g>
  </g>
  <g id="axes_9">
   <g id="patch_42">
    <path d="M 462 756 
L 648 756 
L 648 538.56 
L 462 538.56 
z
" style="fill:#ffffff;"/>
   </g>
   <g id="PolyCollection_9">
    <defs>
     <path d="M 471.789474 -282.096132 
L 471.789474 -232.266587 
L 481.578947 -258.649945 
L 491.368421 -242.817151 
L 501.157895 -188.653575 
L 510.947368 -240.351055 
L 520.736842 -170.479333 
L 530.526316 -157.577002 
L 540.315789 -163.762971 
L 550.105263 -162.582156 
L 559.894737 -143.266791 
L 569.684211 -150.899311 
L 579.473684 -140.078627 
L 589.263158 -147.292369 
L 599.052632 -137.574563 
L 608.842105 -142.397595 
L 618.631579 -144.383861 
L 628.421053 -137.729771 
L 628.421053 -275.756232 
L 628.421053 -275.756232 
L 618.631579 -276.510251 
L 608.842105 -279.295708 
L 599.052632 -275.17408 
L 589.263158 -277.544095 
L 579.473684 -276.012045 
L 569.684211 -278.283634 
L 559.894737 -281.254081 
L 550.105263 -282.096132 
L 540.315789 -276.627314 
L 530.526316 -280.972063 
L 520.736842 -281.224482 
L 510.947368 -281.921306 
L 501.157895 -281.261974 
L 491.368421 -282.562901 
L 481.578947 -283.487643 
L 471.789474 -282.096132 
z
" id="m5f234332bf" style="stroke:#008000;stroke-opacity:0.5;"/>
    </defs>
    <g clip-path="url(#p61b9957680)">
     <use style="fill:#008000;fill-opacity:0.5;stroke:#008000;stroke-opacity:0.5;" x="0" xlink:href="#m5f234332bf" y="864"/>
    </g>
   </g>
   <g id="matplotlib.axis_17">
    <g id="xtick_33">
     <g id="line2d_93">
      <g>
       <use style="stroke:#000000;stroke-width:0.8;" x="462" xlink:href="#m488a0cdb0e" y="756"/>
      </g>
     </g>
     <g id="text_40">
      <!-- 2019 -->
      <g transform="translate(449.275 770.598437)scale(0.1 -0.1)">
       <use xlink:href="#DejaVuSans-50"/>
       <use x="63.623047" xlink:href="#DejaVuSans-48"/>
       <use x="127.246094" xlink:href="#DejaVuSans-49"/>
       <use x="190.869141" xlink:href="#DejaVuSans-57"/>
      </g>
     </g>
    </g>
    <g id="xtick_34">
     <g id="line2d_94">
      <g>
       <use style="stroke:#000000;stroke-width:0.8;" x="510.947368" xlink:href="#m488a0cdb0e" y="756"/>
      </g>
     </g>
     <g id="text_41">
      <!-- 2024 -->
      <g transform="translate(498.222368 770.598437)scale(0.1 -0.1)">
       <use xlink:href="#DejaVuSans-50"/>
       <use x="63.623047" xlink:href="#DejaVuSans-48"/>
       <use x="127.246094" xlink:href="#DejaVuSans-50"/>
       <use x="190.869141" xlink:href="#DejaVuSans-52"/>
      </g>
     </g>
    </g>
    <g id="xtick_35">
     <g id="line2d_95">
      <g>
       <use style="stroke:#000000;stroke-width:0.8;" x="559.894737" xlink:href="#m488a0cdb0e" y="756"/>
      </g>
     </g>
     <g id="text_42">
      <!-- 2029 -->
      <g transform="translate(547.169737 770.598437)scale(0.1 -0.1)">
       <use xlink:href="#DejaVuSans-50"/>
       <use x="63.623047" xlink:href="#DejaVuSans-48"/>
       <use x="127.246094" xlink:href="#DejaVuSans-50"/>
       <use x="190.869141" xlink:href="#DejaVuSans-57"/>
      </g>
     </g>
    </g>
    <g id="xtick_36">
     <g id="line2d_96">
      <g>
       <use style="stroke:#000000;stroke-width:0.8;" x="608.842105" xlink:href="#m488a0cdb0e" y="756"/>
      </g>
     </g>
     <g id="text_43">
      <!-- 2034 -->
      <g transform="translate(596.117105 770.598437)scale(0.1 -0.1)">
       <use xlink:href="#DejaVuSans-50"/>
       <use x="63.623047" xlink:href="#DejaVuSans-48"/>
       <use x="127.246094" xlink:href="#DejaVuSans-51"/>
       <use x="190.869141" xlink:href="#DejaVuSans-52"/>
      </g>
     </g>
    </g>
   </g>
   <g id="matplotlib.axis_18">
    <g id="ytick_49">
     <g id="line2d_97">
      <g>
       <use style="stroke:#000000;stroke-width:0.8;" x="462" xlink:href="#m5bba010faa" y="756"/>
      </g>
     </g>
    </g>
    <g id="ytick_50">
     <g id="line2d_98">
      <g>
       <use style="stroke:#000000;stroke-width:0.8;" x="462" xlink:href="#m5bba010faa" y="716.465455"/>
      </g>
     </g>
    </g>
    <g id="ytick_51">
     <g id="line2d_99">
      <g>
       <use style="stroke:#000000;stroke-width:0.8;" x="462" xlink:href="#m5bba010faa" y="676.930909"/>
      </g>
     </g>
    </g>
    <g id="ytick_52">
     <g id="line2d_100">
      <g>
       <use style="stroke:#000000;stroke-width:0.8;" x="462" xlink:href="#m5bba010faa" y="637.396364"/>
      </g>
     </g>
    </g>
    <g id="ytick_53">
     <g id="line2d_101">
      <g>
       <use style="stroke:#000000;stroke-width:0.8;" x="462" xlink:href="#m5bba010faa" y="597.861818"/>
      </g>
     </g>
    </g>
    <g id="ytick_54">
     <g id="line2d_102">
      <g>
       <use style="stroke:#000000;stroke-width:0.8;" x="462" xlink:href="#m5bba010faa" y="558.327273"/>
      </g>
     </g>
    </g>
   </g>
   <g id="line2d_103">
    <path clip-path="url(#p61b9957680)" d="M 471.789474 594.804097 
L 481.578947 595.078601 
L 491.368421 581.903868 
L 501.157895 598.948643 
L 510.947368 592.330573 
L 520.736842 587.629222 
L 530.526316 613.316781 
L 540.315789 647.125911 
L 550.105263 598.097276 
L 559.894737 627.306772 
L 569.684211 641.14003 
L 579.473684 636.910011 
L 589.263158 643.532647 
L 599.052632 643.702356 
L 608.842105 649.056573 
L 618.631579 637.381568 
L 628.421053 650.14177 
" style="fill:none;stroke:#008000;stroke-linecap:square;stroke-width:1.5;"/>
   </g>
   <g id="patch_43">
    <path d="M 462 756 
L 462 538.56 
" style="fill:none;stroke:#000000;stroke-linecap:square;stroke-linejoin:miter;stroke-width:0.8;"/>
   </g>
   <g id="patch_44">
    <path d="M 648 756 
L 648 538.56 
" style="fill:none;stroke:#000000;stroke-linecap:square;stroke-linejoin:miter;stroke-width:0.8;"/>
   </g>
   <g id="patch_45">
    <path d="M 462 756 
L 648 756 
" style="fill:none;stroke:#000000;stroke-linecap:square;stroke-linejoin:miter;stroke-width:0.8;"/>
   </g>
   <g id="patch_46">
    <path d="M 462 538.56 
L 648 538.56 
" style="fill:none;stroke:#000000;stroke-linecap:square;stroke-linejoin:miter;stroke-width:0.8;"/>
   </g>
   <g id="text_44">
    <!-- ZEV+ -->
    <g transform="translate(555 555.9552)scale(0.1 -0.1)">
     <use xlink:href="#DejaVuSans-90"/>
     <use x="68.505859" xlink:href="#DejaVuSans-69"/>
     <use x="131.689453" xlink:href="#DejaVuSans-86"/>
     <use x="200.097656" xlink:href="#DejaVuSans-43"/>
    </g>
   </g>
   <g id="legend_3">
    <g id="line2d_104">
     <path d="M 520.165625 790.842437 
L 540.165625 790.842437 
" style="fill:none;stroke:#008000;stroke-linecap:square;stroke-width:1.5;"/>
    </g>
    <g id="line2d_105"/>
    <g id="text_45">
     <!-- mixed_use -->
     <defs>
      <path d="M 54.890625 54.6875 
L 35.109375 28.078125 
L 55.90625 0 
L 45.3125 0 
L 29.390625 21.484375 
L 13.484375 0 
L 2.875 0 
L 24.125 28.609375 
L 4.6875 54.6875 
L 15.28125 54.6875 
L 29.78125 35.203125 
L 44.28125 54.6875 
z
" id="DejaVuSans-120"/>
     </defs>
     <g transform="translate(548.165625 794.342437)scale(0.1 -0.1)">
      <use xlink:href="#DejaVuSans-109"/>
      <use x="97.412109" xlink:href="#DejaVuSans-105"/>
      <use x="125.195312" xlink:href="#DejaVuSans-120"/>
      <use x="184.328125" xlink:href="#DejaVuSans-101"/>
      <use x="245.851562" xlink:href="#DejaVuSans-100"/>
      <use x="309.328125" xlink:href="#DejaVuSans-95"/>
      <use x="359.328125" xlink:href="#DejaVuSans-117"/>
      <use x="422.707031" xlink:href="#DejaVuSans-115"/>
      <use x="474.806641" xlink:href="#DejaVuSans-101"/>
     </g>
    </g>
   </g>
  </g>
 </g>
 <defs>
  <clipPath id="p19d0dbaaac">
   <rect height="217.44" width="186" x="90" y="103.68"/>
  </clipPath>
  <clipPath id="p10dbdace72">
   <rect height="217.44" width="186" x="276" y="103.68"/>
  </clipPath>
  <clipPath id="p9775da5efe">
   <rect height="217.44" width="186" x="462" y="103.68"/>
  </clipPath>
  <clipPath id="pf62ec2dbe1">
   <rect height="217.44" width="186" x="90" y="321.12"/>
  </clipPath>
  <clipPath id="p729daaaf26">
   <rect height="217.44" width="186" x="276" y="321.12"/>
  </clipPath>
  <clipPath id="pb06c4d9b15">
   <rect height="217.44" width="186" x="462" y="321.12"/>
  </clipPath>
  <clipPath id="p9200575630">
   <rect height="217.44" width="186" x="90" y="538.56"/>
  </clipPath>
  <clipPath id="p7932bc2fc5">
   <rect height="217.44" width="186" x="276" y="538.56"/>
  </clipPath>
  <clipPath id="p61b9957680">
   <rect height="217.44" width="186" x="462" y="538.56"/>
  </clipPath>
 </defs>
</svg>
